<svg width="1280" height="720" xmlns="http://www.w3.org/2000/svg" xmlns:xlink="http://www.w3.org/1999/xlink" overflow="hidden"><g><rect x="0" y="0" width="1280" height="720" fill="#FFFFFF"/><text fill="#FFFFFF" font-family="Arial,Arial_MSFontService,sans-serif" font-weight="400" font-size="24" transform="translate(357.19 198)">STM32H7R</text><text fill="#FFFFFF" font-family="Arial,Arial_MSFontService,sans-serif" font-weight="400" font-size="24" transform="translate(482.523 198)">-</text><text fill="#FFFFFF" font-family="Arial,Arial_MSFontService,sans-serif" font-weight="400" font-size="24" transform="translate(490.523 198)">S</text><text fill="#FFFFFF" font-family="Arial,Arial_MSFontService,sans-serif" font-weight="400" font-size="16" transform="translate(362.523 229)">Ram (620Kb)</text><g><g><g><path d="M390 75.5996 390 63.3808 360.009 63.3808 360.009 62.1543C360.009 47.5917 348.206 35.7884 333.643 35.7884L326.485 35.7884 326.485 3.05565 314.266 3.05565 314.266 35.7864 301.456 35.7864 301.456 3.05565 289.238 3.05565 289.238 35.7864 276.424 35.7864 276.424 3.05565 264.206 3.05565 264.206 35.7864 251.396 35.7864 251.396 3.05565 239.177 3.05565 239.177 35.7864 226.368 35.7864 226.368 3.05565 214.147 3.05565 214.147 35.7864 201.336 35.7864 201.336 3.05565 189.117 3.05565 189.117 35.7864 176.307 35.7864 176.307 3.05565 164.089 3.05565 164.089 35.7864 151.277 35.7864 151.277 3.05565 139.058 3.05565 139.058 35.7864 126.247 35.7864 126.247 3.05565 114.028 3.05565 114.028 35.7864 101.217 35.7864 101.217 3.05565 88.998 3.05565 88.998 35.7864 76.1865 35.7864 76.1865 3.05565 63.96 3.05565 63.96 35.7864 56.8035 35.7864C42.2429 35.7864 30.4376 47.5898 30.4376 62.1524L30.4376 63.3789 0 63.3789 0 75.5976 30.4356 75.5976 30.4356 88.4072 0 88.4072 0 100.626 30.4356 100.626 30.4356 113.437 0 113.437 0 125.656 30.4356 125.656 30.4356 138.468 0 138.468 0 150.686 30.4356 150.686 30.4356 163.498 0 163.498 0 175.716 30.4356 175.716 30.4356 188.528 0 188.528 0 200.747 30.4356 200.747 30.4356 213.558 0 213.558 0 225.777 30.4356 225.777 30.4356 238.586 0 238.586 0 250.805 30.4356 250.805 30.4356 263.615 0 263.615 0 275.833 30.4356 275.833 30.4356 288.647 0 288.647 0 300.866 30.4356 300.866 30.4356 313.675 0 313.675 0 325.894 30.4356 325.894 30.4356 327.12C30.4356 341.681 42.2409 353.486 56.8016 353.486L63.958 353.486 63.958 386.937 76.1768 386.937 76.1768 353.486 88.9883 353.486 88.9883 386.937 101.207 386.937 101.207 353.486 114.018 353.486 114.018 386.937 126.237 386.937 126.237 353.486 139.049 353.486 139.049 386.937 151.267 386.937 151.267 353.486 164.079 353.486 164.079 386.937 176.298 386.937 176.298 353.486 189.107 353.486 189.107 386.937 201.326 386.937 201.326 353.486 214.137 353.486 214.137 386.937 226.358 386.937 226.358 353.486 239.168 353.486 239.168 386.937 251.386 386.937 251.386 353.486 264.196 353.486 264.196 386.937 276.414 386.937 276.414 353.486 289.228 353.486 289.228 386.937 301.447 386.937 301.447 353.486 314.256 353.486 314.256 386.937 326.475 386.937 326.475 353.486 333.633 353.486C348.196 353.486 359.999 341.681 359.999 327.12L359.999 325.894 390 325.894 390 313.675 360.009 313.675 360.009 300.866 390 300.866 390 288.647 360.009 288.647 360.009 275.833 390 275.833 390 263.615 360.009 263.615 360.009 250.805 390 250.805 390 238.586 360.009 238.586 360.009 225.777 390 225.777 390 213.558 360.009 213.558 360.009 200.747 390 200.747 390 188.528 360.009 188.528 360.009 175.716 390 175.716 390 163.498 360.009 163.498 360.009 150.686 390 150.686 390 138.47 360.009 138.47 360.009 125.658 390 125.658 390 113.439 360.009 113.439 360.009 100.628 390 100.628 390 88.4091 360.009 88.4091 360.009 75.5996 390 75.5996Z" fill="#03234B" transform="matrix(1.0641 0 0 1 312 129)"/></g></g></g><text fill="#FFFFFF" font-family="Arial,Arial_MSFontService,sans-serif" font-weight="400" font-size="24" transform="translate(387.321 203)">STM32H7R</text><text fill="#FFFFFF" font-family="Arial,Arial_MSFontService,sans-serif" font-weight="400" font-size="24" transform="translate(512.654 203)">-</text><text fill="#FFFFFF" font-family="Arial,Arial_MSFontService,sans-serif" font-weight="400" font-size="24" transform="translate(520.654 203)">S</text><rect x="664" y="343" width="29" height="101" fill="#ADADB0"/><text fill="#03234B" font-family="Arial,Arial_MSFontService,sans-serif" font-weight="400" font-size="16" transform="matrix(-1.83697e-16 -1 1 -1.83697e-16 684.899 434)">XSPI/OSPI</text><path d="M369 239.501C369 227.074 379.074 217 391.5 217L592.5 217C604.926 217 615 227.074 615 239.501L615 329.499C615 341.926 604.926 352 592.5 352L391.5 352C379.074 352 369 341.926 369 329.499Z" fill="#3CB4E6" fill-rule="evenodd"/><text fill="#FFFFFF" font-family="Arial,Arial_MSFontService,sans-serif" font-weight="700" font-size="16" transform="translate(380.977 239)">SRAM</text><text fill="#FFFFFF" font-family="Arial,Arial_MSFontService,sans-serif" font-weight="700" font-size="16" transform="translate(432.477 239)">(620K</text><text fill="#FFFFFF" font-family="Arial,Arial_MSFontService,sans-serif" font-weight="700" font-size="16" transform="translate(475.81 239)">B</text><text fill="#FFFFFF" font-family="Arial,Arial_MSFontService,sans-serif" font-weight="700" font-size="16" transform="translate(487.31 239)">)</text><path d="M368 376.167C368 366.134 376.134 358 386.167 358L596.833 358C606.866 358 615 366.134 615 376.167L615 448.833C615 458.866 606.866 467 596.833 467L386.167 467C376.134 467 368 458.866 368 448.833Z" fill="#3CB4E6" fill-rule="evenodd"/><text fill="#FFFFFF" font-family="Arial,Arial_MSFontService,sans-serif" font-weight="700" font-size="16" transform="translate(379.997 378)">User Flash (64K</text><text fill="#FFFFFF" font-family="Arial,Arial_MSFontService,sans-serif" font-weight="700" font-size="16" transform="translate(500.663 378)">B</text><text fill="#FFFFFF" font-family="Arial,Arial_MSFontService,sans-serif" font-weight="700" font-size="16" transform="translate(512.163 378)">)</text><path d="M693 386 852.841 386" stroke="#03234B" stroke-width="2.33333" stroke-miterlimit="8" fill="none" fill-rule="evenodd"/><g><g><g><path d="M218 42.2582 218 35.4283 201.236 35.4283 201.236 34.7427C201.236 26.6025 194.638 20.0048 186.498 20.0048L182.497 20.0048 182.497 1.70803 175.667 1.70803 175.667 20.0037 168.506 20.0037 168.506 1.70803 161.676 1.70803 161.676 20.0037 154.514 20.0037 154.514 1.70803 147.684 1.70803 147.684 20.0037 140.524 20.0037 140.524 1.70803 133.694 1.70803 133.694 20.0037 126.534 20.0037 126.534 1.70803 119.703 1.70803 119.703 20.0037 112.541 20.0037 112.541 1.70803 105.711 1.70803 105.711 20.0037 98.5513 20.0037 98.5513 1.70803 91.7213 1.70803 91.7213 20.0037 84.56 20.0037 84.56 1.70803 77.7301 1.70803 77.7301 20.0037 70.5688 20.0037 70.5688 1.70803 63.7388 1.70803 63.7388 20.0037 56.5775 20.0037 56.5775 1.70803 49.7476 1.70803 49.7476 20.0037 42.5863 20.0037 42.5863 1.70803 35.752 1.70803 35.752 20.0037 31.7517 20.0037C23.6127 20.0037 17.0138 26.6015 17.0138 34.7416L17.0138 35.4272 0 35.4272 0 42.2571 17.0127 42.2571 17.0127 49.4173 0 49.4173 0 56.2473 17.0127 56.2473 17.0127 63.4086 0 63.4086 0 70.2385 17.0127 70.2385 17.0127 77.3998 0 77.3998 0 84.2298 17.0127 84.2298 17.0127 91.3911 0 91.3911 0 98.221 17.0127 98.221 17.0127 105.382 0 105.382 0 112.212 17.0127 112.212 17.0127 119.374 0 119.374 0 126.203 17.0127 126.203 17.0127 133.364 0 133.364 0 140.194 17.0127 140.194 17.0127 147.354 0 147.354 0 154.184 17.0127 154.184 17.0127 161.346 0 161.346 0 168.176 17.0127 168.176 17.0127 175.336 0 175.336 0 182.166 17.0127 182.166 17.0127 182.852C17.0127 190.991 23.6116 197.59 31.7506 197.59L35.7509 197.59 35.7509 216.288 42.5808 216.288 42.5808 197.59 49.7421 197.59 49.7421 216.288 56.5721 216.288 56.5721 197.59 63.7334 197.59 63.7334 216.288 70.5633 216.288 70.5633 197.59 77.7246 197.59 77.7246 216.288 84.5546 216.288 84.5546 197.59 91.7159 197.59 91.7159 216.288 98.5458 216.288 98.5458 197.59 105.706 197.59 105.706 216.288 112.536 216.288 112.536 197.59 119.697 197.59 119.697 216.288 126.528 216.288 126.528 197.59 133.689 197.59 133.689 216.288 140.518 216.288 140.518 197.59 147.679 197.59 147.679 216.288 154.509 216.288 154.509 197.59 161.671 197.59 161.671 216.288 168.501 216.288 168.501 197.59 175.661 197.59 175.661 216.288 182.491 216.288 182.491 197.59 186.492 197.59C194.633 197.59 201.23 190.991 201.23 182.852L201.23 182.166 218 182.166 218 175.336 201.236 175.336 201.236 168.176 218 168.176 218 161.346 201.236 161.346 201.236 154.184 218 154.184 218 147.354 201.236 147.354 201.236 140.194 218 140.194 218 133.364 201.236 133.364 201.236 126.203 218 126.203 218 119.374 201.236 119.374 201.236 112.212 218 112.212 218 105.382 201.236 105.382 201.236 98.221 218 98.221 218 91.3911 201.236 91.3911 201.236 84.2298 218 84.2298 218 77.4009 201.236 77.4009 201.236 70.2396 218 70.2396 218 63.4097 201.236 63.4097 201.236 56.2484 218 56.2484 218 49.4184 201.236 49.4184 201.236 42.2582 218 42.2582Z" stroke="#03234B" stroke-width="2.83117" fill="#FFFFFF" transform="matrix(1 0 0 1.01835 845 245)"/></g></g></g><text fill="#03234B" font-family="Arial,Arial_MSFontService,sans-serif" font-weight="400" font-size="19" transform="translate(894.152 289)">External Flash</text><g><g><g><path d="M986.898 341.702 917.1 341.702C911.604 341.702 907.129 346.174 907.129 351.674L907.129 424.327C907.129 429.826 911.604 434.298 917.1 434.298L969.449 434.298C970.11 434.298 970.745 434.036 971.213 433.568L996.14 408.64C996.608 408.172 996.87 407.539 996.87 406.876L996.87 351.673C996.87 346.174 992.395 341.702 986.898 341.702ZM971.943 425.788 971.942 425.788 971.942 414.357C971.944 411.604 974.175 409.373 976.928 409.371L988.36 409.371 971.943 425.788ZM991.884 404.384 976.927 404.384C971.431 404.384 966.956 408.856 966.956 414.356L966.956 429.313 917.1 429.313C914.348 429.31 912.117 427.079 912.114 424.327L912.114 351.674C912.116 348.921 914.347 346.69 917.1 346.688L986.9 346.688C989.652 346.691 991.882 348.921 991.885 351.673L991.885 404.384Z" fill="#E6007E"/><path d="M962.84 373.626 965.311 373.639 965.434 381.944 963.005 381.939C962.645 381.943 962.344 382.047 962.146 382.245 961.974 382.424 961.882 382.666 961.892 382.914 961.903 383.504 962.347 383.887 963.024 383.89L970.119 383.911 970.136 383.911C970.489 383.911 970.792 383.804 970.99 383.608 971.165 383.43 971.259 383.188 971.252 382.938L971.233 379.14C971.229 378.521 970.814 378.164 970.095 378.162L970.086 378.162C969.702 378.162 969.41 378.259 969.22 378.45 969.054 378.616 968.971 378.845 968.973 379.129L968.994 381.958 967.676 381.954 967.543 371.705 962.807 371.672C962.434 371.669 962.136 371.774 961.939 371.974 961.769 372.154 961.681 372.396 961.696 372.643 961.704 373.234 962.152 373.619 962.84 373.626ZM982.317 383.978 982.343 383.978C983.478 383.978 984.376 383.233 984.391 382.277L984.483 373.594C984.492 372.651 983.566 371.869 982.42 371.85L976.97 371.795C976.35 371.795 975.78 372.007 975.387 372.398 975.077 372.706 974.907 373.097 974.909 373.501L974.931 382.21C974.924 382.625 975.09 383.024 975.394 383.334 975.772 383.718 976.342 383.943 976.957 383.948L982.317 383.978ZM977.191 373.741 982.189 373.791 982.123 382.039 977.187 382.006 977.191 373.741ZM942.481 402.12C942.834 402.12 943.137 402.012 943.334 401.817 943.508 401.638 943.602 401.396 943.594 401.147L943.578 397.35C943.573 396.73 943.158 396.373 942.439 396.371 942.051 396.373 941.756 396.467 941.564 396.659 941.398 396.825 941.315 397.054 941.317 397.337L941.337 400.166 940.022 400.164 939.888 389.914 935.152 389.88C934.791 389.879 934.478 389.983 934.281 390.184 934.111 390.364 934.023 390.607 934.039 390.854 934.051 391.451 934.488 391.826 935.182 391.833L937.655 391.848 937.776 400.154 935.349 400.148 935.341 400.148C934.987 400.148 934.685 400.257 934.489 400.454 934.317 400.634 934.226 400.876 934.237 401.125 934.249 401.715 934.692 402.097 935.366 402.098L942.464 402.121 942.481 402.12ZM921.918 402.502 927.278 402.533 927.304 402.533C928.439 402.533 929.337 401.788 929.352 400.832L929.444 392.149C929.453 391.206 928.527 390.424 927.381 390.405L921.931 390.35C921.311 390.35 920.741 390.562 920.348 390.953 920.038 391.261 919.868 391.652 919.87 392.056L919.892 400.765C919.885 401.18 920.051 401.579 920.355 401.889 920.732 402.273 921.302 402.498 921.918 402.502ZM922.151 392.295 927.149 392.345 927.083 400.594 922.147 400.561 922.151 392.295ZM962.876 355.382 965.415 355.415 965.668 363.76 963.172 363.732 963.163 363.732C962.797 363.732 962.489 363.842 962.294 364.043 962.126 364.223 962.039 364.464 962.056 364.71 962.071 365.301 962.526 365.684 963.214 365.688L970.497 365.767 970.512 365.767C970.888 365.767 971.193 365.66 971.393 365.459 971.561 365.283 971.65 365.045 971.638 364.801L971.56 360.974C971.55 360.611 971.385 360.002 970.389 359.997 969.993 359.992 969.693 360.086 969.498 360.28 969.331 360.447 969.249 360.676 969.253 360.962L969.319 363.799 967.956 363.786 967.665 353.493 962.817 353.419C962.443 353.419 962.127 353.527 961.931 353.73 961.765 353.909 961.681 354.149 961.699 354.393 961.719 354.988 962.17 355.368 962.876 355.382ZM976.409 355.408 978.977 355.454 979.078 363.752 976.553 363.715C976.191 363.71 975.869 363.816 975.666 364.017 975.494 364.194 975.402 364.434 975.414 364.681 975.419 365.265 975.869 365.652 976.562 365.668L983.93 365.765 983.963 365.765C984.325 365.765 984.632 365.659 984.83 365.464 985.003 365.289 985.097 365.051 985.089 364.805L985.083 361.007C985.081 360.646 984.926 360.038 983.919 360.022 983.514 360.017 983.21 360.109 983.013 360.302 982.846 360.466 982.761 360.694 982.762 360.979L982.774 363.807 981.39 363.783 981.283 353.541 976.38 353.456C975.996 353.449 975.681 353.558 975.478 353.761 975.308 353.937 975.219 354.176 975.231 354.42 975.25 355.016 975.701 355.394 976.409 355.408ZM920.848 381.987C920.482 381.987 920.174 382.097 919.979 382.298 919.811 382.478 919.724 382.719 919.741 382.965 919.756 383.556 920.211 383.939 920.899 383.943L928.182 384.022 928.197 384.022C928.573 384.022 928.878 383.915 929.078 383.713 929.246 383.536 929.335 383.299 929.323 383.055L929.245 379.229C929.235 378.866 929.07 378.257 928.074 378.252 927.679 378.247 927.378 378.341 927.183 378.535 927.016 378.702 926.934 378.931 926.938 379.217L927.004 382.054 925.64 382.04 925.349 371.747 920.501 371.673C920.127 371.673 919.811 371.781 919.615 371.984 919.449 372.163 919.365 372.403 919.383 372.647 919.404 373.243 919.855 373.623 920.561 373.637L923.1 373.67 923.353 382.015 920.857 381.987 920.848 381.987ZM941.615 383.982 941.648 383.982C942.01 383.982 942.317 383.876 942.515 383.681 942.688 383.506 942.782 383.268 942.775 383.022L942.769 379.224C942.767 378.863 942.612 378.255 941.605 378.239 941.2 378.234 940.896 378.326 940.699 378.519 940.532 378.683 940.447 378.911 940.448 379.196L940.46 382.024 939.076 382 938.969 371.758 934.066 371.673C933.682 371.666 933.367 371.775 933.164 371.978 932.994 372.154 932.905 372.393 932.917 372.637 932.934 373.231 933.385 373.609 934.094 373.623L936.662 373.67 936.763 381.968 934.238 381.931C933.876 381.926 933.554 382.032 933.351 382.233 933.179 382.41 933.088 382.65 933.099 382.897 933.104 383.481 933.554 383.868 934.247 383.884L941.615 383.982ZM955.577 384.02C955.948 384.02 956.261 383.911 956.459 383.712 956.628 383.536 956.717 383.298 956.706 383.054L956.625 379.23C956.616 378.866 956.452 378.255 955.46 378.251 955.066 378.244 954.762 378.339 954.568 378.532 954.401 378.699 954.319 378.929 954.323 379.215L954.387 382.054 953.025 382.039 952.734 371.745 947.888 371.672C947.505 371.67 947.193 371.78 946.997 371.985 946.832 372.164 946.749 372.403 946.769 372.646 946.789 373.233 947.25 373.621 947.944 373.635L950.485 373.67 950.738 382.014 948.242 381.986 948.232 381.986C947.866 381.986 947.557 382.096 947.362 382.297 947.194 382.476 947.108 382.717 947.124 382.962 947.137 383.554 947.592 383.939 948.283 383.942L955.563 384.02 955.577 384.02ZM933.964 355.309 936.608 355.368 936.836 363.71 934.251 363.658C933.868 363.651 933.546 363.757 933.344 363.96 933.174 364.137 933.086 364.376 933.099 364.621 933.112 365.212 933.576 365.601 934.28 365.612L941.829 365.764 941.864 365.764C942.244 365.764 942.551 365.658 942.753 365.457 942.923 365.282 943.013 365.044 943.001 364.801L942.932 360.991C942.925 360.627 942.761 360.015 941.738 359.999 941.321 359.987 941.012 360.081 940.813 360.277 940.646 360.441 940.564 360.668 940.567 360.954L940.625 363.788 939.194 363.757 938.931 353.472 933.924 353.351C933.533 353.338 933.206 353.448 933.003 353.653 932.835 353.829 932.749 354.067 932.766 354.31 932.783 354.91 933.243 355.293 933.964 355.309ZM921.55 365.672 927.117 365.766 927.174 365.766C927.801 365.766 928.371 365.552 928.744 365.177 929.048 364.871 929.207 364.476 929.196 364.061L928.855 355.249C928.818 354.297 927.827 353.5 926.648 353.472L920.989 353.354C920.338 353.341 919.749 353.564 919.36 353.968 919.063 354.276 918.91 354.667 918.934 355.071L919.375 363.907C919.419 364.892 920.353 365.652 921.55 365.672ZM926.499 355.432 926.84 363.803 921.696 363.711 921.292 355.327 926.499 355.432ZM948.933 365.67 954.503 365.766 954.553 365.766C955.182 365.766 955.754 365.55 956.129 365.17 956.43 364.867 956.59 364.471 956.577 364.056L956.236 355.246C956.201 354.294 955.212 353.495 954.031 353.467L948.376 353.351C947.725 353.34 947.134 353.561 946.743 353.964 946.452 354.255 946.298 354.656 946.317 355.067L946.756 363.901C946.802 364.89 947.738 365.652 948.933 365.67ZM953.884 355.43 954.22 363.803 949.078 363.711 948.676 355.323 953.884 355.43ZM927.711 407.766 922.056 407.65C921.405 407.639 920.814 407.86 920.423 408.264 920.132 408.555 919.978 408.956 919.997 409.367L920.436 418.201C920.482 419.19 921.418 419.952 922.613 419.97L928.183 420.066 928.233 420.066C928.862 420.066 929.434 419.85 929.809 419.47 930.11 419.167 930.27 418.771 930.257 418.357L929.916 409.547C929.881 408.593 928.892 407.794 927.711 407.766ZM922.759 418.01 922.357 409.622 927.564 409.729 927.9 418.102 922.759 418.01ZM984.504 396.649C984.089 396.641 983.778 396.731 983.579 396.927 983.413 397.091 983.33 397.318 983.333 397.604L983.391 400.438 981.96 400.407 981.697 390.122 976.69 390C976.299 389.989 975.972 390.097 975.769 390.302 975.601 390.478 975.515 390.716 975.532 390.959 975.55 391.558 976.009 391.941 976.731 391.957L979.375 392.016 979.603 400.358 977.018 400.306C976.635 400.298 976.313 400.405 976.111 400.608 975.941 400.785 975.852 401.024 975.866 401.269 975.879 401.86 976.343 402.249 977.047 402.26L984.596 402.412 984.631 402.412C985.011 402.412 985.318 402.306 985.519 402.105 985.689 401.93 985.779 401.693 985.767 401.449L985.698 397.639C985.691 397.277 985.527 396.665 984.504 396.649ZM969.414 389.829 963.755 389.711C963.104 389.696 962.515 389.923 962.126 390.324 961.829 390.632 961.676 391.025 961.7 391.429L962.141 400.263C962.185 401.25 963.119 402.01 964.316 402.031L969.883 402.125 969.94 402.125C970.567 402.125 971.136 401.911 971.51 401.533 971.809 401.24 971.973 400.836 971.962 400.417L971.621 391.607C971.584 390.657 970.593 389.858 969.414 389.829ZM964.462 400.069 964.058 391.685 969.265 391.79 969.606 400.163 964.462 400.069ZM944.081 414.227C943.691 414.227 943.398 414.322 943.206 414.515 943.04 414.681 942.957 414.91 942.959 415.193L942.979 418.022 941.664 418.02 941.53 407.77 936.794 407.736C936.428 407.731 936.119 407.839 935.923 408.04 935.753 408.22 935.665 408.463 935.682 408.71 935.694 409.307 936.131 409.682 936.825 409.69L939.298 409.705 939.419 418.011 936.992 418.005 936.984 418.005C936.63 418.005 936.328 418.113 936.132 418.311 935.96 418.491 935.869 418.733 935.88 418.982 935.892 419.572 936.335 419.954 937.009 419.955L944.107 419.978 944.125 419.978C944.478 419.978 944.781 419.871 944.978 419.675 945.152 419.496 945.246 419.254 945.238 419.005L945.222 415.208C945.215 414.586 944.8 414.229 944.081 414.227ZM956.406 407.916 950.954 407.857 950.926 407.857C950.326 407.857 949.76 408.077 949.374 408.462 949.064 408.77 948.894 409.161 948.896 409.565L948.916 418.276C948.912 418.691 949.078 419.09 949.381 419.398 949.759 419.784 950.329 420.007 950.942 420.011L956.302 420.042 956.328 420.042C957.466 420.042 958.363 419.3 958.376 418.341L958.472 409.658C958.475 408.715 957.55 407.933 956.406 407.916ZM956.109 418.103 951.17 418.07 951.179 409.804 956.172 409.854 956.109 418.103ZM957.906 396.259C957.5 396.253 957.195 396.347 956.998 396.542 956.831 396.706 956.747 396.933 956.747 397.215L956.762 400.044 955.374 400.02 955.268 389.778 950.368 389.694C949.994 389.688 949.67 389.795 949.467 389.997 949.296 390.173 949.206 390.412 949.218 390.657 949.234 391.251 949.685 391.63 950.395 391.644L952.961 391.69 953.064 399.989 950.537 399.953 950.514 399.953C950.155 399.953 949.85 400.06 949.652 400.256 949.48 400.433 949.388 400.672 949.397 400.918 949.405 401.505 949.856 401.893 950.549 401.905L957.915 402.002 957.95 402.002C958.313 402.002 958.621 401.895 958.818 401.7 958.989 401.526 959.081 401.288 959.071 401.044L959.069 397.245C959.068 396.884 958.914 396.278 957.906 396.259Z" fill="#E6007E"/></g></g></g><text fill="#E6007E" font-family="Arial,Arial_MSFontService,sans-serif" font-weight="700" font-size="15" transform="translate(918.258 317)">App code</text><text fill="#E6007E" font-family="Arial,Arial_MSFontService,sans-serif" font-weight="700" font-size="15" transform="translate(918.258 335)">and data</text><text fill="#A9409A" font-family="Arial,Arial_MSFontService,sans-serif" font-weight="400" font-size="24" transform="translate(198.485 456)">Reset</text><path d="M270 446 395.668 446 395.668 450 270 450ZM393.667 442 405.667 448 393.667 454Z" fill="#A9409A"/><text fill="#03234B" font-family="Arial,Arial_MSFontService,sans-serif" font-weight="700" font-size="15" transform="translate(407.323 396)">Boot code</text><g><g><g><path d="M60.2776 2.62842 10.721 2.62842C6.81884 2.62842 3.64159 5.80354 3.64159 9.70854L3.64159 61.2922C3.64159 65.1965 6.81884 68.3716 10.721 68.3716L47.8888 68.3716C48.3581 68.3716 48.809 68.1856 49.1412 67.8533L66.8394 50.1544C67.1717 49.8221 67.3577 49.3727 67.3577 48.902L67.3577 9.70783C67.3577 5.80354 64.1804 2.62842 60.2776 2.62842ZM49.6595 62.3295 49.6588 62.3295 49.6588 54.2135C49.6604 52.259 51.2444 50.675 53.1989 50.6734L61.3156 50.6734 49.6595 62.3295ZM63.8176 47.1326 53.1982 47.1326C49.296 47.1326 46.1188 50.3078 46.1188 54.2128L46.1188 64.8322 10.721 64.8322C8.76687 64.8299 7.18328 63.2463 7.18094 61.2922L7.18094 9.70854C7.1825 7.75405 8.76651 6.17005 10.721 6.16848L60.279 6.16848C62.2329 6.17044 63.8164 7.75391 63.8183 9.70783L63.8183 47.1326Z" fill="#03234B" transform="matrix(1.04225 0 0 1 405 397)"/><path d="M43.1964 25.2945 44.9508 25.3037 45.0381 31.2002 43.3135 31.1967C43.0579 31.1995 42.8442 31.2734 42.7037 31.4139 42.5813 31.5411 42.5162 31.7126 42.5233 31.8889 42.5311 32.3078 42.8464 32.5798 43.327 32.5819L48.3645 32.5968 48.3766 32.5968C48.6272 32.5968 48.8423 32.5208 48.9829 32.3817 49.1069 32.2549 49.174 32.0832 49.1689 31.906L49.1554 29.2094C49.1526 28.7699 48.8579 28.5164 48.3475 28.515L48.3411 28.515C48.0684 28.515 47.8611 28.5839 47.7262 28.7195 47.6083 28.8374 47.5494 29 47.5508 29.2016L47.5657 31.2102 46.63 31.2073 46.5355 23.9306 43.173 23.9071C42.9081 23.905 42.6966 23.9795 42.5567 24.1215 42.4358 24.2491 42.3733 24.4211 42.3842 24.5965 42.3898 25.0161 42.7079 25.2895 43.1964 25.2945ZM57.0251 32.6444 57.0435 32.6444C57.8494 32.6444 58.487 32.1154 58.4976 31.4367L58.5629 25.2717C58.5693 24.6022 57.9119 24.047 57.0982 24.0335L53.2287 23.9944C52.7885 23.9944 52.3838 24.145 52.1048 24.4226 51.8847 24.6413 51.764 24.9189 51.7654 25.2057L51.781 31.3891C51.776 31.6837 51.8939 31.967 52.1097 32.1871 52.3781 32.4598 52.7828 32.6195 53.2195 32.6231L57.0251 32.6444ZM53.3856 25.3761 56.9342 25.4116 56.8873 31.2677 53.3828 31.2443 53.3856 25.3761ZM28.7415 45.5252C28.9921 45.5252 29.2073 45.4485 29.3471 45.3101 29.4709 45.1833 29.5376 45.0114 29.5317 44.8344L29.5204 42.1385C29.5168 41.6983 29.2222 41.4448 28.7117 41.4434 28.4362 41.4448 28.2268 41.5116 28.0904 41.6479 27.9726 41.7658 27.9136 41.9283 27.9151 42.1293L27.9293 44.1379 26.9956 44.1364 26.9005 36.8589 23.5379 36.8348C23.2816 36.8341 23.0594 36.9079 22.9195 37.0506 22.7987 37.1784 22.7364 37.3508 22.7477 37.5263 22.7562 37.9502 23.0665 38.2165 23.5592 38.2214L25.315 38.2321 25.401 44.1293 23.6778 44.1251 23.6721 44.1251C23.4208 44.1251 23.2064 44.2025 23.0672 44.3423 22.9451 44.4701 22.8805 44.6422 22.8883 44.8187 22.8968 45.2376 23.2113 45.5089 23.6899 45.5096L28.7294 45.5259 28.7415 45.5252ZM14.1418 45.7964 17.9474 45.8184 17.9658 45.8184C18.7717 45.8184 19.4093 45.2895 19.4199 44.6107L19.4852 38.4458C19.4916 37.7763 18.8342 37.221 18.0205 37.2075L14.151 37.1685C13.7108 37.1685 13.3061 37.319 13.0271 37.5966 12.807 37.8153 12.6863 38.0929 12.6877 38.3798L12.7033 44.5631C12.6983 44.8578 12.8162 45.1411 13.032 45.3612 13.2997 45.6338 13.7044 45.7936 14.1418 45.7964ZM14.3072 38.5494 17.8558 38.5849 17.8089 44.4417 14.3044 44.4183 14.3072 38.5494ZM43.222 12.3412 45.0247 12.3647 45.2043 18.2896 43.4321 18.2697 43.4257 18.2697C43.1659 18.2697 42.9472 18.3478 42.8087 18.4905 42.6892 18.6181 42.628 18.7897 42.6398 18.9641 42.6504 19.3837 42.9735 19.6556 43.4619 19.6585L48.6329 19.7146 48.6435 19.7146C48.9105 19.7146 49.127 19.6386 49.269 19.4959 49.3886 19.3706 49.4515 19.2017 49.443 19.0287L49.3876 16.3115C49.3805 16.0538 49.2634 15.6214 48.5562 15.6179 48.275 15.6143 48.062 15.6811 47.9236 15.8188 47.805 15.9374 47.7468 16.1 47.7496 16.303L47.7965 18.3173 46.8288 18.3081 46.6222 11 43.1801 10.9475C42.9145 10.9475 42.6902 11.0242 42.551 11.1683 42.4329 11.2954 42.3732 11.466 42.3863 11.639 42.4005 12.0615 42.7207 12.3313 43.222 12.3412ZM52.8304 12.3597 54.6537 12.3923 54.7254 18.2839 52.9326 18.2577C52.6756 18.2541 52.447 18.3294 52.3029 18.4721 52.1805 18.5977 52.1158 18.7684 52.1239 18.9435 52.1275 19.3581 52.447 19.6329 52.939 19.6443L58.1703 19.7131 58.1937 19.7131C58.4507 19.7131 58.6687 19.6379 58.8093 19.4994 58.9321 19.3753 58.9986 19.2061 58.9932 19.0315L58.9889 16.335C58.9875 16.0787 58.8775 15.647 58.1625 15.6356 57.8749 15.6321 57.6591 15.6974 57.5192 15.8344 57.4007 15.9509 57.3403 16.1127 57.341 16.3151L57.3495 18.323 56.3669 18.3059 56.2909 11.0341 52.8098 10.9738C52.5372 10.9688 52.3135 11.0462 52.1694 11.1903 52.0486 11.3152 51.9851 11.4847 51.994 11.6582 52.0075 12.0814 52.3277 12.3497 52.8304 12.3597ZM13.3821 31.2308C13.1222 31.2308 12.9035 31.3089 12.7651 31.4516 12.6455 31.5792 12.5843 31.7507 12.5961 31.9251 12.6068 32.3448 12.9298 32.6167 13.4183 32.6195L18.5892 32.6756 18.5999 32.6756C18.8668 32.6756 19.0834 32.5997 19.2254 32.4562 19.3449 32.3309 19.4078 32.162 19.3993 31.989L19.344 29.2726C19.3368 29.0149 19.2197 28.5825 18.5125 28.5789 18.2321 28.5754 18.0184 28.6421 17.8799 28.7798 17.7614 28.8984 17.7031 29.061 17.706 29.2641L17.7528 31.2783 16.7844 31.2684 16.5778 23.9604 13.1357 23.9078C12.8702 23.9078 12.6458 23.9845 12.5066 24.1286 12.3886 24.2557 12.3289 24.4263 12.3419 24.5994 12.3568 25.0225 12.677 25.2923 13.1783 25.3023L14.981 25.3257 15.1606 31.2506 13.3885 31.2308 13.3821 31.2308ZM28.1266 32.6472 28.1501 32.6472C28.4071 32.6472 28.6251 32.572 28.7656 32.4335 28.8884 32.3093 28.9551 32.1402 28.9503 31.9656L28.946 29.269C28.9446 29.0127 28.8345 28.581 28.1195 28.5697 27.832 28.5661 27.6162 28.6315 27.4763 28.7685 27.3577 28.8849 27.2974 29.0468 27.2981 29.2492L27.3066 31.257 26.324 31.24 26.248 23.9682 22.7669 23.9078C22.4942 23.9029 22.2706 23.9803 22.1264 24.1244 22.0057 24.2493 21.9423 24.4187 21.9511 24.5923 21.9631 25.014 22.2833 25.2824 22.7867 25.2923L24.61 25.3257 24.6817 31.2173 22.889 31.191C22.632 31.1875 22.4033 31.2627 22.2592 31.4054 22.1369 31.531 22.0721 31.7017 22.0803 31.8769 22.0838 32.2915 22.4033 32.5663 22.8954 32.5776L28.1266 32.6472ZM38.0397 32.6742C38.3031 32.6742 38.5253 32.5968 38.6659 32.4555 38.7858 32.3303 38.8492 32.1615 38.8413 31.9883L38.7837 29.2733C38.7774 29.0149 38.6609 28.581 37.9566 28.5782 37.6769 28.5732 37.461 28.6407 37.3233 28.7777 37.2047 28.8963 37.1465 29.0596 37.1493 29.2626L37.1948 31.2783 36.2277 31.2677 36.0211 23.9589 32.5805 23.9071C32.3085 23.9057 32.087 23.9838 31.9479 24.1293 31.8305 24.2562 31.7718 24.4264 31.786 24.5987 31.8002 25.0154 32.1275 25.2909 32.6202 25.3008L34.4244 25.3257 34.604 31.2499 32.8318 31.2301 32.8247 31.2301C32.5649 31.2301 32.3455 31.3082 32.207 31.4509 32.0877 31.578 32.0265 31.749 32.038 31.923 32.0473 32.3433 32.3703 32.6167 32.8609 32.6188L38.0297 32.6742 38.0397 32.6742ZM22.6944 12.2894 24.5717 12.3313 24.7336 18.2541 22.8982 18.2172C22.6263 18.2122 22.3977 18.2875 22.2542 18.4316 22.1337 18.5571 22.0707 18.7271 22.0803 18.9009 22.0895 19.3205 22.419 19.5967 22.9188 19.6045L28.2786 19.7124 28.3034 19.7124C28.5732 19.7124 28.7912 19.6372 28.9346 19.4945 29.0552 19.3702 29.1189 19.2016 29.1107 19.0287L29.0617 16.3236C29.0567 16.0652 28.9403 15.6306 28.214 15.6193 27.9179 15.6108 27.6985 15.6775 27.5572 15.8167 27.4387 15.9331 27.3804 16.0943 27.3826 16.2973L27.4237 18.3095 26.4077 18.2875 26.221 10.9851 22.666 10.8992C22.3884 10.89 22.1563 10.9681 22.0121 11.1136 21.8927 11.2384 21.8316 11.4079 21.8439 11.5801 21.8559 12.0061 22.1825 12.278 22.6944 12.2894ZM13.8805 19.6471 17.8331 19.7139 17.8735 19.7139C18.3187 19.7139 18.7234 19.5619 18.9882 19.2957 19.2041 19.0784 19.317 18.798 19.3092 18.5033L19.067 12.2468C19.0408 11.5709 18.3372 11.005 17.5001 10.9851L13.4822 10.9013C13.02 10.8921 12.6018 11.0504 12.3256 11.3373 12.1147 11.556 12.0061 11.8336 12.0231 12.1204L12.3362 18.394C12.3675 19.0933 13.0306 19.6329 13.8805 19.6471ZM17.3943 12.3767 17.6364 18.3201 13.9842 18.2548 13.6973 12.3022 17.3943 12.3767ZM33.3224 19.6457 37.2771 19.7139 37.3126 19.7139C37.7592 19.7139 38.1653 19.5605 38.4316 19.2907 38.6453 19.0756 38.7589 18.7944 38.7497 18.4998L38.5076 12.2447C38.4827 11.5687 37.7805 11.0014 36.942 10.9816L32.927 10.8992C32.4647 10.8914 32.0451 11.0483 31.7675 11.3344 31.5611 11.5414 31.4514 11.8256 31.4651 12.1176L31.7768 18.3897C31.8094 19.0919 32.474 19.6329 33.3224 19.6457ZM36.8376 12.3753 37.0762 18.3201 33.4254 18.2548 33.14 12.2993 36.8376 12.3753ZM18.2548 49.5339 14.2398 49.4515C13.7775 49.4437 13.3579 49.6006 13.0803 49.8874 12.8739 50.0944 12.7642 50.3786 12.7779 50.6706L13.0896 56.9427C13.1222 57.6449 13.7868 58.1859 14.6352 58.1987L18.5899 58.2669 18.6254 58.2669C19.072 58.2669 19.4781 58.1135 19.7444 57.8437 19.9581 57.6286 20.0717 57.3474 20.0625 57.0535L19.8204 50.7984C19.7955 50.121 19.0933 49.5537 18.2548 49.5339ZM14.7389 56.8071 14.4535 50.8516 18.1504 50.9276 18.389 56.8724 14.7389 56.8071ZM58.5778 41.6408C58.2832 41.6351 58.0624 41.699 57.9211 41.8382 57.8032 41.9546 57.7443 42.1158 57.7464 42.3188L57.7876 44.331 56.7716 44.309 56.5849 37.0066 53.0299 36.92C52.7523 36.9122 52.5201 36.9889 52.376 37.1344 52.2568 37.2594 52.1957 37.4286 52.2077 37.6009 52.2205 38.0262 52.5464 38.2981 53.059 38.3095L54.9362 38.3514 55.0981 44.2742 53.2628 44.2373C52.9908 44.2316 52.7622 44.3075 52.6188 44.4517 52.498 44.5771 52.4349 44.7472 52.4449 44.921 52.4541 45.3406 52.7835 45.6168 53.2834 45.6246L58.6432 45.7325 58.668 45.7325C58.9378 45.7325 59.1558 45.6573 59.2985 45.5145 59.419 45.3903 59.4828 45.2217 59.4746 45.0488L59.4256 42.3437C59.4206 42.0867 59.3042 41.6521 58.5778 41.6408ZM47.8639 36.7986 43.8461 36.7148C43.3838 36.7042 42.9656 36.8653 42.6895 37.15 42.4786 37.3687 42.37 37.6478 42.387 37.9346L42.7001 44.2067C42.7313 44.9075 43.3945 45.4471 44.2444 45.462L48.1969 45.5287 48.2374 45.5287C48.6826 45.5287 49.0866 45.3768 49.3521 45.1084 49.5643 44.9003 49.6805 44.6133 49.673 44.3161L49.4309 38.061C49.4046 37.3865 48.701 36.8192 47.8639 36.7986ZM44.348 44.069 44.0612 38.1163 47.7581 38.1909 48.0003 44.1357 44.348 44.069ZM29.8775 54.1212C29.6006 54.1212 29.3926 54.1886 29.2563 54.3256 29.1384 54.4435 29.0795 54.6061 29.0809 54.807L29.0951 56.8156 28.1614 56.8142 28.0663 49.5367 24.7037 49.5126C24.4439 49.509 24.2245 49.5857 24.0853 49.7284 23.9644 49.8561 23.9024 50.0286 23.9142 50.2041 23.9227 50.628 24.233 50.8942 24.7257 50.8999L26.4816 50.9105 26.5675 56.8078 24.8443 56.8035 24.8386 56.8035C24.5873 56.8035 24.3729 56.8802 24.2337 57.0208 24.1116 57.1486 24.047 57.3206 24.0548 57.4972 24.0633 57.9161 24.3778 58.1873 24.8564 58.188L29.896 58.2044 29.9087 58.2044C30.1594 58.2044 30.3745 58.1284 30.5144 57.9893 30.6381 57.8624 30.7048 57.6906 30.699 57.5135L30.6876 54.8177C30.6826 54.3761 30.388 54.1226 29.8775 54.1212ZM38.6283 49.6404 34.7573 49.5985 34.7375 49.5985C34.3115 49.5985 33.9096 49.7547 33.6355 50.028 33.4154 50.2467 33.2947 50.5243 33.2962 50.8111L33.3104 56.996C33.3075 57.2906 33.4254 57.5739 33.6405 57.7926 33.9089 58.0666 34.3136 58.225 34.7488 58.2278L38.5544 58.2498 38.5729 58.2498C39.3809 58.2498 40.0177 57.723 40.027 57.0421L40.0951 50.8772C40.0972 50.2076 39.4405 49.6524 38.6283 49.6404ZM38.4174 56.8731 34.9107 56.8497 34.9171 50.9808 38.4621 51.0163 38.4174 56.8731ZM39.6933 41.3639C39.405 41.3596 39.1884 41.4264 39.0486 41.5648 38.93 41.6813 38.8704 41.8424 38.8704 42.0426L38.881 44.0512 37.8955 44.0342 37.8203 36.7624 34.3413 36.7027C34.0757 36.6985 33.8457 36.7744 33.7016 36.9179 33.5802 37.0428 33.5162 37.2125 33.5248 37.3865 33.5361 37.8082 33.8563 38.0773 34.3605 38.0872L36.1823 38.1199 36.2554 44.0122 34.4613 43.9866 34.4449 43.9866C34.19 43.9866 33.9735 44.0626 33.8329 44.2018 33.7109 44.3271 33.6455 44.497 33.6519 44.6718 33.6575 45.0886 33.9778 45.364 34.4698 45.3725L39.6996 45.4414 39.7245 45.4414C39.9822 45.4414 40.2009 45.3654 40.3408 45.227 40.4623 45.1031 40.5272 44.9346 40.5204 44.7612L40.519 42.0639C40.5183 41.8076 40.4089 41.3774 39.6933 41.3639Z" fill="#03234B" transform="matrix(1.04225 0 0 1 405 397)"/></g></g></g><text fill="#03234B" font-family="Arial,Arial_MSFontService,sans-serif" font-weight="400" font-size="21" transform="translate(746.852 406)">Memory</text><text fill="#03234B" font-family="Arial,Arial_MSFontService,sans-serif" font-weight="400" font-size="21" transform="translate(746.852 431)">mapped</text><path d="M476 409 649.758 409 649.758 413 476 413ZM647.758 405 659.758 411 647.758 417Z" fill="#A9409A"/><path d="M693.015 384 896.162 385.527 896.132 389.527 692.985 388ZM894.192 381.512 906.147 387.603 894.102 393.512Z" fill="#A9409A"/><text fill="#A9409A" font-family="Arial,Arial_MSFontService,sans-serif" font-weight="400" font-size="24" transform="translate(745.969 377)">Jump</text></g></svg>