<svg width="1280" height="720" xmlns="http://www.w3.org/2000/svg" xmlns:xlink="http://www.w3.org/1999/xlink" overflow="hidden"><g><rect x="0" y="0" width="1280" height="720" fill="#FFFFFF"/><rect x="685" y="179" width="333" height="332" fill="#03234B"/><text fill="#FFFFFF" font-family="Arial,Arial_MSFontService,sans-serif" font-weight="400" font-size="24" transform="translate(789.677 206)">STM32H7S</text><rect x="723" y="141" width="15" height="38" fill="#03234B"/><rect x="753" y="141" width="16" height="38" fill="#03234B"/><rect x="784" y="141" width="15" height="38" fill="#03234B"/><rect x="814" y="141" width="15" height="38" fill="#03234B"/><rect x="844" y="141" width="15" height="38" fill="#03234B"/><rect x="874" y="141" width="15" height="38" fill="#03234B"/><rect x="905" y="141" width="15" height="38" fill="#03234B"/><rect x="935" y="141" width="15" height="38" fill="#03234B"/><rect x="965" y="141" width="15" height="38" fill="#03234B"/><rect x="995" y="141" width="15" height="38" fill="#03234B"/><rect x="648" y="489" width="37" height="15" fill="#03234B"/><rect x="648" y="458" width="37" height="15" fill="#03234B"/><rect x="648" y="428" width="37" height="15" fill="#03234B"/><rect x="648" y="398" width="37" height="15" fill="#03234B"/><rect x="648" y="368" width="37" height="15" fill="#03234B"/><rect x="648" y="337" width="37" height="15" fill="#03234B"/><rect x="648" y="307" width="37" height="15" fill="#03234B"/><rect x="648" y="277" width="37" height="15" fill="#03234B"/><rect x="648" y="247" width="37" height="15" fill="#03234B"/><rect x="648" y="216" width="37" height="15" fill="#03234B"/><rect x="723" y="511" width="15" height="38" fill="#03234B"/><rect x="753" y="511" width="16" height="38" fill="#03234B"/><rect x="784" y="511" width="15" height="38" fill="#03234B"/><rect x="814" y="511" width="15" height="38" fill="#03234B"/><rect x="844" y="511" width="15" height="38" fill="#03234B"/><rect x="874" y="511" width="15" height="38" fill="#03234B"/><rect x="905" y="511" width="15" height="38" fill="#03234B"/><rect x="935" y="511" width="15" height="38" fill="#03234B"/><rect x="965" y="511" width="15" height="38" fill="#03234B"/><rect x="995" y="511" width="15" height="38" fill="#03234B"/><rect x="1018" y="458" width="38" height="15" fill="#03234B"/><rect x="1018" y="428" width="38" height="15" fill="#03234B"/><rect x="1018" y="398" width="38" height="15" fill="#03234B"/><rect x="1018" y="368" width="38" height="15" fill="#03234B"/><rect x="1018" y="337" width="38" height="15" fill="#03234B"/><rect x="1018" y="307" width="38" height="15" fill="#03234B"/><rect x="1018" y="277" width="38" height="15" fill="#03234B"/><rect x="1018" y="247" width="38" height="15" fill="#03234B"/><rect x="1018" y="216" width="38" height="15" fill="#03234B"/><rect x="1018" y="489" width="38" height="15" fill="#03234B"/><rect x="912" y="216" width="38" height="136" fill="#49B170"/><text fill="#FFFFFF" font-family="Arial,Arial_MSFontService,sans-serif" font-weight="400" font-size="21" transform="translate(925.719 241)">x</text><text fill="#FFFFFF" font-family="Arial,Arial_MSFontService,sans-serif" font-weight="400" font-size="21" transform="translate(923.973 266)">S</text><text fill="#FFFFFF" font-family="Arial,Arial_MSFontService,sans-serif" font-weight="400" font-size="21" transform="translate(923.973 292)">P</text><text fill="#FFFFFF" font-family="Arial,Arial_MSFontService,sans-serif" font-weight="400" font-size="21" transform="translate(928.053 318)">I</text><text fill="#FFFFFF" font-family="Arial,Arial_MSFontService,sans-serif" font-weight="400" font-size="21" transform="translate(925.139 343)">1</text><rect x="1018" y="337" width="38" height="15" fill="#3CB4E6"/><rect x="1018" y="307" width="38" height="15" fill="#3CB4E6"/><rect x="1018" y="277" width="38" height="15" fill="#3CB4E6"/><rect x="1018" y="247" width="38" height="15" fill="#3CB4E6"/><rect x="1018" y="216" width="38" height="15" fill="#3CB4E6"/><rect x="1018" y="458" width="38" height="15" fill="#8C0078"/><rect x="1018" y="428" width="38" height="15" fill="#8C0078"/><rect x="1018" y="398" width="38" height="15" fill="#8C0078"/><rect x="1018" y="368" width="38" height="15" fill="#8C0078"/><rect x="859" y="216" width="38" height="136" fill="#FFC000"/><text fill="#FFFFFF" font-family="Arial,Arial_MSFontService,sans-serif" font-weight="400" font-size="24" transform="translate(868.137 250)">M</text><text fill="#FFFFFF" font-family="Arial,Arial_MSFontService,sans-serif" font-weight="400" font-size="24" transform="translate(868.717 279)">C</text><text fill="#FFFFFF" font-family="Arial,Arial_MSFontService,sans-serif" font-weight="400" font-size="24" transform="translate(869.383 308)">E</text><text fill="#FFFFFF" font-family="Arial,Arial_MSFontService,sans-serif" font-weight="400" font-size="24" transform="translate(870.717 337)">1</text><rect x="859" y="368" width="38" height="136" fill="#FFC000"/><text fill="#FFFFFF" font-family="Arial,Arial_MSFontService,sans-serif" font-weight="400" font-size="24" transform="translate(868.137 401)">M</text><text fill="#FFFFFF" font-family="Arial,Arial_MSFontService,sans-serif" font-weight="400" font-size="24" transform="translate(868.717 430)">C</text><text fill="#FFFFFF" font-family="Arial,Arial_MSFontService,sans-serif" font-weight="400" font-size="24" transform="translate(869.383 459)">E</text><text fill="#FFFFFF" font-family="Arial,Arial_MSFontService,sans-serif" font-weight="400" font-size="24" transform="translate(870.717 488)">2</text><rect x="912" y="368" width="38" height="136" fill="#49B170"/><text fill="#FFFFFF" font-family="Arial,Arial_MSFontService,sans-serif" font-weight="400" font-size="21" transform="translate(925.719 393)">x</text><text fill="#FFFFFF" font-family="Arial,Arial_MSFontService,sans-serif" font-weight="400" font-size="21" transform="translate(923.973 418)">S</text><text fill="#FFFFFF" font-family="Arial,Arial_MSFontService,sans-serif" font-weight="400" font-size="21" transform="translate(923.973 444)">P</text><text fill="#FFFFFF" font-family="Arial,Arial_MSFontService,sans-serif" font-weight="400" font-size="21" transform="translate(928.053 470)">I</text><text fill="#FFFFFF" font-family="Arial,Arial_MSFontService,sans-serif" font-weight="400" font-size="21" transform="translate(925.139 495)">2</text><rect x="1018" y="489" width="38" height="15" fill="#8C0078"/><rect x="995" y="216" width="23" height="136" fill="#3CB4E6"/><text fill="#FFFFFF" font-family="Arial,Arial_MSFontService,sans-serif" font-weight="400" font-size="21" transform="translate(999.572 241)">P</text><text fill="#FFFFFF" font-family="Arial,Arial_MSFontService,sans-serif" font-weight="400" font-size="21" transform="translate(999.572 266)">o</text><text fill="#FFFFFF" font-family="Arial,Arial_MSFontService,sans-serif" font-weight="400" font-size="21" transform="translate(999.572 292)">r</text><text fill="#FFFFFF" font-family="Arial,Arial_MSFontService,sans-serif" font-weight="400" font-size="21" transform="translate(999.572 318)">t</text><text fill="#FFFFFF" font-family="Arial,Arial_MSFontService,sans-serif" font-weight="400" font-size="21" transform="translate(999.572 343)">1</text><rect x="995" y="368" width="23" height="136" fill="#8C0078"/><text fill="#FFFFFF" font-family="Arial,Arial_MSFontService,sans-serif" font-weight="400" font-size="21" transform="translate(999.572 393)">P</text><text fill="#FFFFFF" font-family="Arial,Arial_MSFontService,sans-serif" font-weight="400" font-size="21" transform="translate(999.572 418)">o</text><text fill="#FFFFFF" font-family="Arial,Arial_MSFontService,sans-serif" font-weight="400" font-size="21" transform="translate(999.572 444)">r</text><text fill="#FFFFFF" font-family="Arial,Arial_MSFontService,sans-serif" font-weight="400" font-size="21" transform="translate(999.572 470)">t</text><text fill="#FFFFFF" font-family="Arial,Arial_MSFontService,sans-serif" font-weight="400" font-size="21" transform="translate(999.572 495)">2</text><path d="M897 267 902.12 267 902.12 271 897 271ZM900.12 263 912.12 269 900.12 275Z" fill="#E6007E"/><path d="M897 418 902.12 418 902.12 422 897 422ZM900.12 414 912.12 420 900.12 426Z" fill="#E6007E"/><path d="M907 298 912.12 298 912.12 302 907 302ZM909 306 897 300 909 294Z" fill="#E6007E"/><path d="M907 449 912.12 449 912.12 453 907 453ZM909 457 897 451 909 445Z" fill="#E6007E"/><path d="M950 247 995.359 247" stroke="#E6007E" stroke-width="4" stroke-miterlimit="8" fill="none" fill-rule="evenodd"/><path d="M958 247 988.24 398.198" stroke="#E6007E" stroke-width="4" stroke-miterlimit="8" fill="none" fill-rule="evenodd"/><path d="M980 398 995.12 398" stroke="#03234B" stroke-width="2.33333" stroke-miterlimit="8" fill="none" fill-rule="evenodd"/><path d="M988 398 995.56 398" stroke="#E6007E" stroke-width="4" stroke-miterlimit="8" fill="none" fill-rule="evenodd"/><path d="M988 322 995.56 322" stroke="#E6007E" stroke-width="4" stroke-miterlimit="8" fill="none" fill-rule="evenodd"/><path d="M0 0 30.2396 151.198" stroke="#E6007E" stroke-width="4" stroke-miterlimit="8" fill="none" fill-rule="evenodd" transform="matrix(-1 0 0 1 988.24 322)"/><path d="M950 473 995.359 473" stroke="#E6007E" stroke-width="4" stroke-miterlimit="8" fill="none" fill-rule="evenodd"/><rect x="648" y="186" width="37" height="15" fill="#03234B"/><rect x="1018" y="186" width="38" height="15" fill="#03234B"/><rect x="693" y="141" width="15" height="38" fill="#03234B"/><rect x="693" y="511" width="15" height="38" fill="#03234B"/></g></svg>