<svg width="1280" height="720" xmlns="http://www.w3.org/2000/svg" xmlns:xlink="http://www.w3.org/1999/xlink" overflow="hidden"><g><rect x="0" y="0" width="1280" height="720" fill="#FFFFFF"/><rect x="224" y="209" width="303" height="302" fill="#03234B"/><text fill="#FFFFFF" font-family="Arial,Arial_MSFontService,sans-serif" font-weight="400" font-size="24" transform="translate(313.404 237)">STM32H7S</text><rect x="489" y="368" width="38" height="136" fill="#49B170"/><text fill="#FFFFFF" font-family="Arial,Arial_MSFontService,sans-serif" font-weight="400" font-size="24" transform="translate(501.702 401)">x</text><text fill="#FFFFFF" font-family="Arial,Arial_MSFontService,sans-serif" font-weight="400" font-size="24" transform="translate(499.702 430)">S</text><text fill="#FFFFFF" font-family="Arial,Arial_MSFontService,sans-serif" font-weight="400" font-size="24" transform="translate(499.702 459)">P</text><text fill="#FFFFFF" font-family="Arial,Arial_MSFontService,sans-serif" font-weight="400" font-size="24" transform="translate(504.368 488)">I</text><rect x="700" y="209" width="227" height="302" fill="#3CB4E6"/><text fill="#FFFFFF" font-family="Arial,Arial_MSFontService,sans-serif" font-weight="400" font-size="24" transform="translate(788.544 237)">xSPI</text><text fill="#FFFFFF" font-family="Arial,Arial_MSFontService,sans-serif" font-weight="400" font-size="24" transform="translate(770.544 266)">memory</text><text fill="#FFFFFF" font-family="Arial,Arial_MSFontService,sans-serif" font-weight="400" font-size="24" transform="translate(782.544 295)">64MB</text><rect x="232" y="171" width="15" height="38" fill="#03234B"/><rect x="262" y="171" width="15" height="38" fill="#03234B"/><rect x="292" y="171" width="15" height="38" fill="#03234B"/><rect x="322" y="171" width="16" height="38" fill="#03234B"/><rect x="353" y="171" width="15" height="38" fill="#03234B"/><rect x="383" y="171" width="15" height="38" fill="#03234B"/><rect x="413" y="171" width="15" height="38" fill="#03234B"/><rect x="443" y="171" width="16" height="38" fill="#03234B"/><rect x="474" y="171" width="15" height="38" fill="#03234B"/><rect x="186" y="489" width="38" height="15" fill="#03234B"/><rect x="186" y="458" width="38" height="15" fill="#03234B"/><rect x="186" y="428" width="38" height="15" fill="#03234B"/><rect x="186" y="398" width="38" height="15" fill="#03234B"/><rect x="186" y="368" width="38" height="15" fill="#03234B"/><rect x="186" y="337" width="38" height="15" fill="#03234B"/><rect x="186" y="307" width="38" height="15" fill="#03234B"/><rect x="186" y="277" width="38" height="15" fill="#03234B"/><rect x="186" y="247" width="38" height="15" fill="#03234B"/><rect x="186" y="216" width="38" height="15" fill="#03234B"/><rect x="232" y="511" width="15" height="38" fill="#03234B"/><rect x="262" y="511" width="15" height="38" fill="#03234B"/><rect x="292" y="511" width="15" height="38" fill="#03234B"/><rect x="322" y="511" width="16" height="38" fill="#03234B"/><rect x="353" y="511" width="15" height="38" fill="#03234B"/><rect x="383" y="511" width="15" height="38" fill="#03234B"/><rect x="413" y="511" width="15" height="38" fill="#03234B"/><rect x="443" y="511" width="16" height="38" fill="#03234B"/><rect x="474" y="511" width="15" height="38" fill="#03234B"/><rect x="527" y="489" width="37" height="15" fill="#49B170"/><rect x="527" y="458" width="37" height="15" fill="#49B170"/><rect x="527" y="428" width="37" height="15" fill="#49B170"/><rect x="527" y="398" width="37" height="15" fill="#49B170"/><rect x="527" y="368" width="37" height="15" fill="#49B170"/><rect x="527" y="337" width="37" height="15" fill="#03234B"/><rect x="527" y="307" width="37" height="15" fill="#03234B"/><rect x="527" y="277" width="37" height="15" fill="#03234B"/><rect x="527" y="247" width="37" height="15" fill="#03234B"/><rect x="504" y="171" width="15" height="38" fill="#03234B"/><rect x="527" y="216" width="37" height="15" fill="#03234B"/><rect x="663" y="489" width="37" height="15" fill="#3CB4E6"/><rect x="663" y="458" width="37" height="15" fill="#3CB4E6"/><rect x="663" y="428" width="37" height="15" fill="#3CB4E6"/><rect x="663" y="398" width="37" height="15" fill="#3CB4E6"/><rect x="663" y="368" width="37" height="15" fill="#3CB4E6"/><rect x="927" y="489" width="38" height="15" fill="#3CB4E6"/><rect x="927" y="458" width="38" height="15" fill="#3CB4E6"/><rect x="927" y="428" width="38" height="15" fill="#3CB4E6"/><rect x="927" y="398" width="38" height="15" fill="#3CB4E6"/><rect x="927" y="368" width="38" height="15" fill="#3CB4E6"/><rect x="927" y="337" width="38" height="15" fill="#3CB4E6"/><rect x="927" y="307" width="38" height="15" fill="#3CB4E6"/><rect x="927" y="277" width="38" height="15" fill="#3CB4E6"/><rect x="927" y="247" width="38" height="15" fill="#3CB4E6"/><rect x="927" y="216" width="38" height="15" fill="#3CB4E6"/><rect x="663" y="337" width="37" height="15" fill="#3CB4E6"/><rect x="663" y="307" width="37" height="15" fill="#3CB4E6"/><rect x="663" y="277" width="37" height="15" fill="#3CB4E6"/><rect x="663" y="247" width="37" height="15" fill="#3CB4E6"/><rect x="663" y="216" width="37" height="15" fill="#3CB4E6"/><path d="M584 432 642.279 432 642.279 440 584 440ZM588 448 564 436 588 424ZM638.279 424 662.279 436 638.279 448Z" fill="#49B170"/><path d="M584 462 642.279 462 642.279 470 584 470ZM588 478 564 466 588 454ZM638.279 454 662.279 466 638.279 478Z" fill="#49B170"/><path d="M584 492 642.279 492 642.279 500 584 500ZM588 508 564 496 588 484ZM638.279 484 662.279 496 638.279 508Z" fill="#49B170"/><path d="M584 401 642.279 401 642.279 409 584 409ZM588 417 564 405 588 393ZM638.279 393 662.279 405 638.279 417Z" fill="#49B170"/><path d="M584 371 642.279 371 642.279 379 584 379ZM588 387 564 375 588 363ZM638.279 363 662.279 375 638.279 387Z" fill="#49B170"/><rect x="443" y="368" width="38" height="136" fill="#FFC000"/><text fill="#FFFFFF" font-family="Arial,Arial_MSFontService,sans-serif" font-weight="400" font-size="24" transform="translate(452.342 415)">M</text><text fill="#FFFFFF" font-family="Arial,Arial_MSFontService,sans-serif" font-weight="400" font-size="24" transform="translate(452.922 444)">C</text><text fill="#FFFFFF" font-family="Arial,Arial_MSFontService,sans-serif" font-weight="400" font-size="24" transform="translate(453.589 473)">E</text><rect x="708" y="336" width="212" height="31" fill="#FFC000"/><text fill="#FFFFFF" font-family="Arial,Arial_MSFontService,sans-serif" font-weight="400" font-size="24" transform="translate(740.544 360)">MCE region 1</text><rect x="708" y="383" width="212" height="30" fill="#FFC000"/><text fill="#FFFFFF" font-family="Arial,Arial_MSFontService,sans-serif" font-weight="400" font-size="24" transform="translate(740.544 406)">MCE region 2</text><rect x="708" y="428" width="212" height="30" fill="#FFC000"/><text fill="#FFFFFF" font-family="Arial,Arial_MSFontService,sans-serif" font-weight="400" font-size="24" transform="translate(740.544 452)">MCE region 3</text><rect x="708" y="473" width="212" height="31" fill="#FFC000"/><text fill="#FFFFFF" font-family="Arial,Arial_MSFontService,sans-serif" font-weight="400" font-size="24" transform="translate(740.544 497)">MCE region 4</text><path d="M708 489 708 625.078" stroke="#E6007E" stroke-width="4" stroke-miterlimit="8" stroke-dasharray="4 4" fill="none" fill-rule="evenodd"/><rect x="549" y="572" width="401" height="83" fill="#E6007E"/><text fill="#FFFFFF" font-family="Arial,Arial_MSFontService,sans-serif" font-weight="400" font-size="24" transform="translate(590.502 593)">The MCE can have 4 different</text><text fill="#FFFFFF" font-family="Arial,Arial_MSFontService,sans-serif" font-weight="400" font-size="24" transform="translate(590.502 622)">regions. Of different sizes and</text><text fill="#FFFFFF" font-family="Arial,Arial_MSFontService,sans-serif" font-weight="400" font-size="24" transform="translate(680.955 651)">configuration</text></g></svg>