<svg width="1280" height="720" xmlns="http://www.w3.org/2000/svg" xmlns:xlink="http://www.w3.org/1999/xlink" overflow="hidden"><g><rect x="0" y="0" width="1280" height="720" fill="#FFFFFF"/><rect x="223" y="126" width="493" height="483" fill="#03234B"/><text fill="#FFFFFF" font-family="Arial,Arial_MSFontService,sans-serif" font-weight="400" font-size="24" transform="translate(407.284 153)">STM32H7S</text><rect x="610" y="163" width="38" height="137" fill="#49B170"/><text fill="#FFFFFF" font-family="Arial,Arial_MSFontService,sans-serif" font-weight="400" font-size="21" transform="translate(623.323 188)">x</text><text fill="#FFFFFF" font-family="Arial,Arial_MSFontService,sans-serif" font-weight="400" font-size="21" transform="translate(621.577 213)">S</text><text fill="#FFFFFF" font-family="Arial,Arial_MSFontService,sans-serif" font-weight="400" font-size="21" transform="translate(621.577 239)">P</text><text fill="#FFFFFF" font-family="Arial,Arial_MSFontService,sans-serif" font-weight="400" font-size="21" transform="translate(625.657 265)">I</text><text fill="#FFFFFF" font-family="Arial,Arial_MSFontService,sans-serif" font-weight="400" font-size="21" transform="translate(622.743 290)">1</text><rect x="300" y="87.9999" width="15" height="38" fill="#03234B"/><rect x="330" y="87.9999" width="15" height="38" fill="#03234B"/><rect x="360" y="87.9999" width="15" height="38" fill="#03234B"/><rect x="391" y="87.9999" width="15" height="38" fill="#03234B"/><rect x="421" y="87.9999" width="15" height="38" fill="#03234B"/><rect x="451" y="87.9999" width="15" height="38" fill="#03234B"/><rect x="481" y="87.9999" width="15" height="38" fill="#03234B"/><rect x="511" y="88" width="16" height="38" fill="#03234B"/><rect x="542" y="87.9999" width="15" height="38" fill="#03234B"/><rect x="186" y="519" width="38" height="15" fill="#03234B"/><rect x="186" y="489" width="38" height="15" fill="#03234B"/><rect x="186" y="458" width="38" height="15" fill="#03234B"/><rect x="186" y="428" width="38" height="15" fill="#03234B"/><rect x="186" y="398" width="38" height="15" fill="#03234B"/><rect x="186" y="368" width="38" height="15" fill="#03234B"/><rect x="186" y="337" width="38" height="15" fill="#03234B"/><rect x="186" y="307" width="38" height="15" fill="#03234B"/><rect x="186" y="277" width="38" height="15" fill="#03234B"/><rect x="186" y="133" width="38" height="15" fill="#03234B"/><rect x="451" y="609" width="15" height="38" fill="#03234B"/><rect x="481" y="609" width="15" height="38" fill="#03234B"/><rect x="511" y="609" width="16" height="38" fill="#03234B"/><rect x="542" y="609" width="15" height="38" fill="#03234B"/><rect x="572" y="609" width="15" height="38" fill="#03234B"/><rect x="602" y="609" width="15" height="38" fill="#03234B"/><rect x="632" y="609" width="16" height="38" fill="#03234B"/><rect x="663" y="609" width="15" height="38" fill="#03234B"/><rect x="693" y="609" width="15" height="38" fill="#03234B"/><rect x="716" y="284" width="37" height="16" fill="#3CB4E6"/><rect x="716" y="254" width="37" height="15" fill="#3CB4E6"/><rect x="716" y="224" width="37" height="15" fill="#3CB4E6"/><rect x="716" y="194" width="37" height="15" fill="#3CB4E6"/><rect x="716" y="163" width="37" height="16" fill="#3CB4E6"/><rect x="716" y="405" width="37" height="15" fill="#8C0078"/><rect x="716" y="375" width="37" height="15" fill="#8C0078"/><rect x="716" y="345" width="37" height="15" fill="#8C0078"/><rect x="716" y="315" width="37" height="15" fill="#8C0078"/><rect x="572" y="87.9999" width="15" height="38" fill="#03234B"/><rect x="716" y="466" width="37" height="15" fill="#49B170"/><rect x="557.5" y="163.5" width="38" height="137" stroke="#AD005F" stroke-width="3" stroke-linejoin="round" stroke-miterlimit="10" fill="#E6007E"/><text fill="#FFFFFF" font-family="Arial,Arial_MSFontService,sans-serif" font-weight="400" font-size="24" transform="translate(565.741 197)">M</text><text fill="#FFFFFF" font-family="Arial,Arial_MSFontService,sans-serif" font-weight="400" font-size="24" transform="translate(566.321 226)">C</text><text fill="#FFFFFF" font-family="Arial,Arial_MSFontService,sans-serif" font-weight="400" font-size="24" transform="translate(566.988 255)">E</text><text fill="#FFFFFF" font-family="Arial,Arial_MSFontService,sans-serif" font-weight="400" font-size="24" transform="translate(568.321 284)">1</text><rect x="557.5" y="315.5" width="38" height="136" stroke="#BF9D00" stroke-width="3" stroke-miterlimit="8" fill="#FFC000"/><text fill="#FFFFFF" font-family="Arial,Arial_MSFontService,sans-serif" font-weight="400" font-size="24" transform="translate(565.741 348)">M</text><text fill="#FFFFFF" font-family="Arial,Arial_MSFontService,sans-serif" font-weight="400" font-size="24" transform="translate(566.321 377)">C</text><text fill="#FFFFFF" font-family="Arial,Arial_MSFontService,sans-serif" font-weight="400" font-size="24" transform="translate(566.988 406)">E</text><text fill="#FFFFFF" font-family="Arial,Arial_MSFontService,sans-serif" font-weight="400" font-size="24" transform="translate(568.321 435)">2</text><rect x="625.5" y="466.5" width="38" height="136" stroke="#BF9D00" stroke-width="1.33333" stroke-miterlimit="8" fill="#FFC000"/><text fill="#FFFFFF" font-family="Arial,Arial_MSFontService,sans-serif" font-weight="400" font-size="24" transform="translate(633.78 499)">M</text><text fill="#FFFFFF" font-family="Arial,Arial_MSFontService,sans-serif" font-weight="400" font-size="24" transform="translate(634.36 528)">C</text><text fill="#FFFFFF" font-family="Arial,Arial_MSFontService,sans-serif" font-weight="400" font-size="24" transform="translate(635.027 557)">E</text><text fill="#FFFFFF" font-family="Arial,Arial_MSFontService,sans-serif" font-weight="400" font-size="24" transform="translate(636.36 586)">3</text><rect x="610" y="315" width="38" height="136" fill="#49B170"/><text fill="#FFFFFF" font-family="Arial,Arial_MSFontService,sans-serif" font-weight="400" font-size="21" transform="translate(623.323 340)">x</text><text fill="#FFFFFF" font-family="Arial,Arial_MSFontService,sans-serif" font-weight="400" font-size="21" transform="translate(621.577 365)">S</text><text fill="#FFFFFF" font-family="Arial,Arial_MSFontService,sans-serif" font-weight="400" font-size="21" transform="translate(621.577 391)">P</text><text fill="#FFFFFF" font-family="Arial,Arial_MSFontService,sans-serif" font-weight="400" font-size="21" transform="translate(625.657 417)">I</text><text fill="#FFFFFF" font-family="Arial,Arial_MSFontService,sans-serif" font-weight="400" font-size="21" transform="translate(622.743 442)">2</text><rect x="678" y="466" width="38" height="136" fill="#49B170"/><text fill="#FFFFFF" font-family="Arial,Arial_MSFontService,sans-serif" font-weight="400" font-size="21" transform="translate(690.196 516)">F</text><text fill="#FFFFFF" font-family="Arial,Arial_MSFontService,sans-serif" font-weight="400" font-size="21" transform="translate(687.783 541)">M</text><text fill="#FFFFFF" font-family="Arial,Arial_MSFontService,sans-serif" font-weight="400" font-size="21" transform="translate(689.029 567)">C</text><rect x="716" y="436" width="37" height="15" fill="#8C0078"/><rect x="716" y="587" width="37" height="15" fill="#49B170"/><rect x="716" y="557" width="37" height="15" fill="#49B170"/><rect x="716" y="526" width="37" height="15" fill="#49B170"/><rect x="716" y="496" width="37" height="15" fill="#49B170"/><rect x="270" y="609" width="15" height="38" fill="#03234B"/><rect x="300" y="609" width="15" height="38" fill="#03234B"/><rect x="330" y="609" width="15" height="38" fill="#03234B"/><rect x="360" y="609" width="15" height="38" fill="#03234B"/><rect x="391" y="609" width="15" height="38" fill="#03234B"/><rect x="421" y="609" width="15" height="38" fill="#03234B"/><rect x="602" y="87.9999" width="15" height="38" fill="#03234B"/><rect x="632" y="88" width="16" height="38" fill="#03234B"/><rect x="663" y="87.9999" width="15" height="38" fill="#03234B"/><rect x="693" y="87.9999" width="15" height="38" fill="#03234B"/><rect x="186" y="254" width="38" height="15" fill="#03234B"/><rect x="186" y="224" width="38" height="15" fill="#03234B"/><rect x="186" y="194" width="38" height="15" fill="#03234B"/><rect x="186" y="163" width="38" height="16" fill="#03234B"/><rect x="186" y="549" width="38" height="15" fill="#03234B"/><rect x="693" y="163" width="23" height="137" fill="#3CB4E6"/><text fill="#FFFFFF" font-family="Arial,Arial_MSFontService,sans-serif" font-weight="400" font-size="21" transform="translate(697.176 188)">P</text><text fill="#FFFFFF" font-family="Arial,Arial_MSFontService,sans-serif" font-weight="400" font-size="21" transform="translate(697.176 213)">o</text><text fill="#FFFFFF" font-family="Arial,Arial_MSFontService,sans-serif" font-weight="400" font-size="21" transform="translate(697.176 239)">r</text><text fill="#FFFFFF" font-family="Arial,Arial_MSFontService,sans-serif" font-weight="400" font-size="21" transform="translate(697.176 265)">t</text><text fill="#FFFFFF" font-family="Arial,Arial_MSFontService,sans-serif" font-weight="400" font-size="21" transform="translate(697.176 290)">1</text><rect x="693" y="315" width="23" height="136" fill="#8C0078"/><text fill="#FFFFFF" font-family="Arial,Arial_MSFontService,sans-serif" font-weight="400" font-size="21" transform="translate(697.176 340)">P</text><text fill="#FFFFFF" font-family="Arial,Arial_MSFontService,sans-serif" font-weight="400" font-size="21" transform="translate(697.176 365)">o</text><text fill="#FFFFFF" font-family="Arial,Arial_MSFontService,sans-serif" font-weight="400" font-size="21" transform="translate(697.176 391)">r</text><text fill="#FFFFFF" font-family="Arial,Arial_MSFontService,sans-serif" font-weight="400" font-size="21" transform="translate(697.176 417)">t</text><text fill="#FFFFFF" font-family="Arial,Arial_MSFontService,sans-serif" font-weight="400" font-size="21" transform="translate(697.176 442)">2</text><path d="M595 214 600.12 214 600.12 218 595 218ZM598.12 210 610.12 216 598.12 222Z" fill="#E6007E"/><path d="M595 366 600.12 366 600.12 370 595 370ZM598.12 362 610.12 368 598.12 374Z" fill="#E6007E"/><path d="M663 517 668.12 517 668.12 521 663 521ZM666.12 513 678.12 519 666.12 525Z" fill="#E6007E"/><path d="M605 245 610.12 245 610.12 249 605 249ZM607 253 595 247 607 241Z" fill="#E6007E"/><path d="M605 396 610.12 396 610.12 400 605 400ZM607 404 595 398 607 392Z" fill="#E6007E"/><path d="M673 547 678.12 547 678.12 551 673 551ZM675 555 663 549 675 543Z" fill="#E6007E"/><path d="M648 194 693.359 194" stroke="#E6007E" stroke-width="4" stroke-miterlimit="8" fill="none" fill-rule="evenodd"/><path d="M655 194 685.24 345.198" stroke="#E6007E" stroke-width="4" stroke-miterlimit="8" fill="none" fill-rule="evenodd"/><path d="M678 345 693.12 345" stroke="#03234B" stroke-width="2.33333" stroke-miterlimit="8" fill="none" fill-rule="evenodd"/><path d="M685 345 692.56 345" stroke="#E6007E" stroke-width="4" stroke-miterlimit="8" fill="none" fill-rule="evenodd"/><path d="M685 269 692.56 269" stroke="#E6007E" stroke-width="4" stroke-miterlimit="8" fill="none" fill-rule="evenodd"/><path d="M0 0 30.2396 151.198" stroke="#E6007E" stroke-width="4" stroke-miterlimit="8" fill="none" fill-rule="evenodd" transform="matrix(-1 0 0 1 685.24 269)"/><path d="M648 420 693.359 420" stroke="#E6007E" stroke-width="4" stroke-miterlimit="8" fill="none" fill-rule="evenodd"/><rect x="239" y="87.9999" width="15" height="38" fill="#03234B"/><rect x="270" y="87.9999" width="15" height="38" fill="#03234B"/><rect x="239" y="609" width="15" height="38" fill="#03234B"/><rect x="716" y="133" width="37" height="15" fill="#03234B"/><rect x="375.5" y="163.5" width="182" height="46" stroke="#AD005F" stroke-width="3" stroke-linejoin="round" stroke-miterlimit="10" fill="#E6007E"/><text fill="#FFFFFF" font-family="Arial,Arial_MSFontService,sans-serif" font-weight="400" font-size="24" transform="translate(442.122 195)">AES</text><rect x="375.5" y="209.5" width="182" height="30" stroke="#AD005F" stroke-width="3" stroke-linejoin="round" stroke-miterlimit="10" fill="#E6007E"/><text fill="#FFFFFF" font-family="Arial,Arial_MSFontService,sans-serif" font-weight="400" font-size="24" transform="translate(400.789 233)">Normal/Fast</text><rect x="375.5" y="239.5" width="182" height="30" stroke="#AD005F" stroke-width="3" stroke-linejoin="round" stroke-miterlimit="10" fill="#E6007E"/><text fill="#FFFFFF" font-family="Arial,Arial_MSFontService,sans-serif" font-weight="400" font-size="24" transform="translate(394.789 263)">Block/Stream</text><rect x="375.5" y="269.5" width="182" height="31" stroke="#AD005F" stroke-width="3" stroke-linejoin="round" stroke-miterlimit="10" fill="#E6007E"/><text fill="#FFFFFF" font-family="Arial,Arial_MSFontService,sans-serif" font-weight="400" font-size="24" transform="translate(386.789 293)">Context key 2x</text><rect x="375.5" y="315.5" width="182" height="45" stroke="#BF9D00" stroke-width="3" stroke-miterlimit="8" fill="#FFC000"/><text fill="#FFFFFF" font-family="Arial,Arial_MSFontService,sans-serif" font-weight="400" font-size="24" transform="translate(418.122 346)">Neokeon</text><rect x="375.5" y="360.5" width="182" height="30" stroke="#BF9D00" stroke-width="3" stroke-miterlimit="8" fill="#FFC000"/><text fill="#FFFFFF" font-family="Arial,Arial_MSFontService,sans-serif" font-weight="400" font-size="24" transform="translate(400.789 384)">Normal/Fast</text><rect x="375.5" y="390.5" width="182" height="30" stroke="#BF9D00" stroke-width="3" stroke-miterlimit="8" fill="#FFC000"/><text fill="#FFFFFF" font-family="Arial,Arial_MSFontService,sans-serif" font-weight="400" font-size="24" transform="translate(436.789 414)">Block</text><rect x="443.5" y="466.5" width="182" height="45" stroke="#BF9D00" stroke-width="3" stroke-miterlimit="8" fill="#FFC000"/><text fill="#FFFFFF" font-family="Arial,Arial_MSFontService,sans-serif" font-weight="400" font-size="24" transform="translate(486.161 497)">Neokeon</text><rect x="443.5" y="511.5" width="182" height="30" stroke="#BF9D00" stroke-width="3" stroke-miterlimit="8" fill="#FFC000"/><text fill="#FFFFFF" font-family="Arial,Arial_MSFontService,sans-serif" font-weight="400" font-size="24" transform="translate(468.828 535)">Normal/Fast</text><rect x="443.5" y="541.5" width="182" height="31" stroke="#BF9D00" stroke-width="3" stroke-miterlimit="8" fill="#FFC000"/><text fill="#FFFFFF" font-family="Arial,Arial_MSFontService,sans-serif" font-weight="400" font-size="24" transform="translate(504.828 565)">Block</text></g></svg>