<svg width="1280" height="720" xmlns="http://www.w3.org/2000/svg" xmlns:xlink="http://www.w3.org/1999/xlink" overflow="hidden"><g><rect x="0" y="0" width="1280" height="720" fill="#FFFFFF"/><rect x="285" y="209" width="302" height="302" fill="#03234B"/><text fill="#FFFFFF" font-family="Arial,Arial_MSFontService,sans-serif" font-weight="400" font-size="24" transform="translate(373.883 237)">STM32H7S</text><rect x="549" y="368" width="38" height="136" fill="#49B170"/><text fill="#FFFFFF" font-family="Arial,Arial_MSFontService,sans-serif" font-weight="400" font-size="24" transform="translate(562.181 401)">x</text><text fill="#FFFFFF" font-family="Arial,Arial_MSFontService,sans-serif" font-weight="400" font-size="24" transform="translate(560.181 430)">S</text><text fill="#FFFFFF" font-family="Arial,Arial_MSFontService,sans-serif" font-weight="400" font-size="24" transform="translate(560.181 459)">P</text><text fill="#FFFFFF" font-family="Arial,Arial_MSFontService,sans-serif" font-weight="400" font-size="24" transform="translate(564.848 488)">I</text><rect x="761" y="209" width="227" height="302" fill="#3CB4E6"/><text fill="#FFFFFF" font-family="Arial,Arial_MSFontService,sans-serif" font-weight="400" font-size="24" transform="translate(849.023 237)">xSPI</text><text fill="#FFFFFF" font-family="Arial,Arial_MSFontService,sans-serif" font-weight="400" font-size="24" transform="translate(831.023 266)">memory</text><text fill="#FFFFFF" font-family="Arial,Arial_MSFontService,sans-serif" font-weight="400" font-size="24" transform="translate(843.023 295)">64MB</text><rect x="292" y="171" width="15" height="38" fill="#03234B"/><rect x="322" y="171" width="16" height="38" fill="#03234B"/><rect x="353" y="171" width="15" height="38" fill="#03234B"/><rect x="383" y="171" width="15" height="38" fill="#03234B"/><rect x="413" y="171" width="15" height="38" fill="#03234B"/><rect x="443" y="171" width="16" height="38" fill="#03234B"/><rect x="474" y="171" width="15" height="38" fill="#03234B"/><rect x="504" y="171" width="15" height="38" fill="#03234B"/><rect x="534" y="171" width="15" height="38" fill="#03234B"/><rect x="247" y="489" width="38" height="15" fill="#03234B"/><rect x="247" y="458" width="38" height="15" fill="#03234B"/><rect x="247" y="428" width="38" height="15" fill="#03234B"/><rect x="247" y="398" width="38" height="15" fill="#03234B"/><rect x="247" y="368" width="38" height="15" fill="#03234B"/><rect x="247" y="337" width="38" height="15" fill="#03234B"/><rect x="247" y="307" width="38" height="15" fill="#03234B"/><rect x="247" y="277" width="38" height="15" fill="#03234B"/><rect x="247" y="247" width="38" height="15" fill="#03234B"/><rect x="247" y="216" width="38" height="15" fill="#03234B"/><rect x="292" y="511" width="15" height="38" fill="#03234B"/><rect x="322" y="511" width="16" height="38" fill="#03234B"/><rect x="353" y="511" width="15" height="38" fill="#03234B"/><rect x="383" y="511" width="15" height="38" fill="#03234B"/><rect x="413" y="511" width="15" height="38" fill="#03234B"/><rect x="443" y="511" width="16" height="38" fill="#03234B"/><rect x="474" y="511" width="15" height="38" fill="#03234B"/><rect x="504" y="511" width="15" height="38" fill="#03234B"/><rect x="534" y="511" width="15" height="38" fill="#03234B"/><rect x="587" y="489" width="38" height="15" fill="#49B170"/><rect x="587" y="458" width="38" height="15" fill="#49B170"/><rect x="587" y="428" width="38" height="15" fill="#49B170"/><rect x="587" y="398" width="38" height="15" fill="#49B170"/><rect x="587" y="368" width="38" height="15" fill="#49B170"/><rect x="587" y="337" width="38" height="15" fill="#03234B"/><rect x="587" y="307" width="38" height="15" fill="#03234B"/><rect x="587" y="277" width="38" height="15" fill="#03234B"/><rect x="587" y="247" width="38" height="15" fill="#03234B"/><rect x="564" y="171" width="16" height="38" fill="#03234B"/><rect x="587" y="216" width="38" height="15" fill="#03234B"/><rect x="723" y="489" width="38" height="15" fill="#3CB4E6"/><rect x="723" y="458" width="38" height="15" fill="#3CB4E6"/><rect x="723" y="428" width="38" height="15" fill="#3CB4E6"/><rect x="723" y="398" width="38" height="15" fill="#3CB4E6"/><rect x="723" y="368" width="38" height="15" fill="#3CB4E6"/><rect x="988" y="489" width="38" height="15" fill="#3CB4E6"/><rect x="988" y="458" width="38" height="15" fill="#3CB4E6"/><rect x="988" y="428" width="38" height="15" fill="#3CB4E6"/><rect x="988" y="398" width="38" height="15" fill="#3CB4E6"/><rect x="988" y="368" width="38" height="15" fill="#3CB4E6"/><rect x="988" y="337" width="38" height="15" fill="#3CB4E6"/><rect x="988" y="307" width="38" height="15" fill="#3CB4E6"/><rect x="988" y="277" width="38" height="15" fill="#3CB4E6"/><rect x="988" y="247" width="38" height="15" fill="#3CB4E6"/><rect x="988" y="216" width="38" height="15" fill="#3CB4E6"/><rect x="723" y="337" width="38" height="15" fill="#3CB4E6"/><rect x="723" y="307" width="38" height="15" fill="#3CB4E6"/><rect x="723" y="277" width="38" height="15" fill="#3CB4E6"/><rect x="723" y="247" width="38" height="15" fill="#3CB4E6"/><rect x="723" y="216" width="38" height="15" fill="#3CB4E6"/><path d="M645 432 703.279 432 703.279 440 645 440ZM649 448 625 436 649 424ZM699.279 424 723.279 436 699.279 448Z" fill="#49B170"/><path d="M645 462 703.279 462 703.279 470 645 470ZM649 478 625 466 649 454ZM699.279 454 723.279 466 699.279 478Z" fill="#49B170"/><path d="M645 492 703.279 492 703.279 500 645 500ZM649 508 625 496 649 484ZM699.279 484 723.279 496 699.279 508Z" fill="#49B170"/><path d="M645 401 703.279 401 703.279 409 645 409ZM649 417 625 405 649 393ZM699.279 393 723.279 405 699.279 417Z" fill="#49B170"/><path d="M645 371 703.279 371 703.279 379 645 379ZM649 387 625 375 649 363ZM699.279 363 723.279 375 699.279 387Z" fill="#49B170"/><rect x="504" y="368" width="38" height="136" fill="#FFC000"/><text fill="#FFFFFF" font-family="Arial,Arial_MSFontService,sans-serif" font-weight="400" font-size="24" transform="translate(512.822 415)">M</text><text fill="#FFFFFF" font-family="Arial,Arial_MSFontService,sans-serif" font-weight="400" font-size="24" transform="translate(513.402 444)">C</text><text fill="#FFFFFF" font-family="Arial,Arial_MSFontService,sans-serif" font-weight="400" font-size="24" transform="translate(514.068 473)">E</text><path d="M542 434 781.476 434 781.476 438 542 438ZM779.477 430 791.477 436 779.477 442Z" fill="#FFC000"/><path d="M886.777 383 815.222 383C809.588 383 805 387.685 805 393.446L805 469.555C805 475.315 809.588 480 815.222 480L868.889 480C869.566 480 870.217 479.726 870.697 479.235L896.252 453.122C896.731 452.632 897 451.968 897 451.274L897 393.445C897 387.685 892.412 383 886.777 383ZM871.445 471.085 871.445 471.085 871.445 459.111C871.447 456.227 873.734 453.89 876.556 453.887L888.276 453.887 871.445 471.085ZM891.888 448.663 876.555 448.663C870.921 448.663 866.333 453.348 866.333 459.11L866.333 474.778 815.222 474.778C812.4 474.775 810.114 472.438 810.11 469.555L810.11 393.446C810.113 390.563 812.4 388.225 815.222 388.223L886.779 388.223C889.6 388.226 891.887 390.562 891.89 393.445L891.89 448.663Z" fill="#FFC000" fill-rule="evenodd"/><text fill="#FFC000" font-family="Arial,Arial_MSFontService,sans-serif" font-weight="700" font-size="12" transform="translate(819.438 403)">!</text><text fill="#FFC000" font-family="Arial,Arial_MSFontService,sans-serif" font-weight="700" font-size="12" transform="translate(830.724 403)">@</text><text fill="#FFC000" font-family="Arial,Arial_MSFontService,sans-serif" font-weight="700" font-size="12" transform="translate(848.344 403)">#</text><text fill="#FFC000" font-family="Arial,Arial_MSFontService,sans-serif" font-weight="700" font-size="12" transform="translate(863.464 403)">$</text><text fill="#FFC000" font-family="Arial,Arial_MSFontService,sans-serif" font-weight="700" font-size="12" transform="translate(876.583 403)">%</text><text fill="#FFC000" font-family="Arial,Arial_MSFontService,sans-serif" font-weight="700" font-size="12" transform="translate(817.938 418)">^</text><text fill="#FFC000" font-family="Arial,Arial_MSFontService,sans-serif" font-weight="700" font-size="12" transform="translate(832.224 418)">&amp;</text><text fill="#FFC000" font-family="Arial,Arial_MSFontService,sans-serif" font-weight="700" font-size="12" transform="translate(849.344 418)">*</text><text fill="#FFC000" font-family="Arial,Arial_MSFontService,sans-serif" font-weight="700" font-size="12" transform="translate(864.797 418)">(</text><text fill="#FFC000" font-family="Arial,Arial_MSFontService,sans-serif" font-weight="700" font-size="12" transform="translate(879.917 418)">)</text><text fill="#FFC000" font-family="Arial,Arial_MSFontService,sans-serif" font-weight="700" font-size="12" transform="translate(818.104 433)">_</text><text fill="#FFC000" font-family="Arial,Arial_MSFontService,sans-serif" font-weight="700" font-size="12" transform="translate(833.057 433)">+</text><text fill="#FFC000" font-family="Arial,Arial_MSFontService,sans-serif" font-weight="700" font-size="12" transform="translate(849.677 433)">;</text><text fill="#FFC000" font-family="Arial,Arial_MSFontService,sans-serif" font-weight="700" font-size="12" transform="translate(864.797 433)">:</text><text fill="#FFC000" font-family="Arial,Arial_MSFontService,sans-serif" font-weight="700" font-size="12" transform="translate(880.25 433)">\</text><text fill="#FFC000" font-family="Arial,Arial_MSFontService,sans-serif" font-weight="700" font-size="12" transform="translate(819.771 448)">|</text><text fill="#FFC000" font-family="Arial,Arial_MSFontService,sans-serif" font-weight="700" font-size="12" transform="translate(833.557 448)">“</text><text fill="#FFC000" font-family="Arial,Arial_MSFontService,sans-serif" font-weight="700" font-size="12" transform="translate(848.01 448)">?</text><text fill="#FFC000" font-family="Arial,Arial_MSFontService,sans-serif" font-weight="700" font-size="12" transform="translate(863.297 448)">&lt;</text><text fill="#FFC000" font-family="Arial,Arial_MSFontService,sans-serif" font-weight="700" font-size="12" transform="translate(880.25 448)">/</text><text fill="#FFC000" font-family="Arial,Arial_MSFontService,sans-serif" font-weight="700" font-size="12" transform="translate(817.938 463)">&gt;</text><text fill="#FFC000" font-family="Arial,Arial_MSFontService,sans-serif" font-weight="700" font-size="12" transform="translate(834.557 463)">[</text><text fill="#FFC000" font-family="Arial,Arial_MSFontService,sans-serif" font-weight="700" font-size="12" transform="translate(849.344 463)">}</text><text fill="#FFC000" font-family="Arial,Arial_MSFontService,sans-serif" font-weight="700" font-size="15" transform="translate(793.238 356)">Encrypted app</text><text fill="#FFC000" font-family="Arial,Arial_MSFontService,sans-serif" font-weight="700" font-size="15" transform="translate(797.238 374)">code and data</text><path d="M10-1.99999 120.958-1.99989 120.958 2.0001 9.99999 2.00001ZM12 6.00001 0 0 12-5.99999Z" fill="#E6007E" transform="matrix(-1 0 0 1 299.958 307)"/><text fill="#E6007E" font-family="Arial,Arial_MSFontService,sans-serif" font-weight="700" font-size="15" transform="translate(88.0091 234)">App code</text><text fill="#E6007E" font-family="Arial,Arial_MSFontService,sans-serif" font-weight="700" font-size="15" transform="translate(88.0091 252)">and data</text><path d="M160.666 261 88.3331 261C82.6375 261 78 265.685 78 271.446L78 347.555C78 353.315 82.6375 358 88.3331 358L142.583 358C143.268 358 143.926 357.726 144.411 357.235L170.244 331.122C170.729 330.632 171 329.968 171 329.274L171 271.445C171 265.685 166.363 261 160.666 261ZM145.168 349.085 145.167 349.085 145.167 337.111C145.169 334.227 147.481 331.89 150.334 331.887L162.181 331.887 145.168 349.085ZM165.833 326.663 150.333 326.663C144.637 326.663 140 331.348 140 337.11L140 352.778 88.3331 352.778C85.4808 352.775 83.1695 350.438 83.166 347.555L83.166 271.446C83.1683 268.563 85.4803 266.225 88.3331 266.223L160.668 266.223C163.52 266.226 165.831 268.562 165.834 271.445L165.834 326.663Z" fill="#E6007E" fill-rule="evenodd"/><text fill="#E6007E" font-family="Arial,Arial_MSFontService,sans-serif" font-weight="700" font-size="12" transform="translate(91.3542 282)">A</text><text fill="#E6007E" font-family="Arial,Arial_MSFontService,sans-serif" font-weight="700" font-size="12" transform="translate(106.474 282)">B</text><text fill="#E6007E" font-family="Arial,Arial_MSFontService,sans-serif" font-weight="700" font-size="12" transform="translate(121.594 282)">C</text><text fill="#E6007E" font-family="Arial,Arial_MSFontService,sans-serif" font-weight="700" font-size="12" transform="translate(136.714 282)">D</text><text fill="#E6007E" font-family="Arial,Arial_MSFontService,sans-serif" font-weight="700" font-size="12" transform="translate(152.167 282)">E</text><text fill="#E6007E" font-family="Arial,Arial_MSFontService,sans-serif" font-weight="700" font-size="12" transform="translate(92.0209 297)">F</text><text fill="#E6007E" font-family="Arial,Arial_MSFontService,sans-serif" font-weight="700" font-size="12" transform="translate(106.141 297)">G</text><text fill="#E6007E" font-family="Arial,Arial_MSFontService,sans-serif" font-weight="700" font-size="12" transform="translate(121.594 297)">H</text><text fill="#E6007E" font-family="Arial,Arial_MSFontService,sans-serif" font-weight="700" font-size="12" transform="translate(139.38 297)">I</text><text fill="#E6007E" font-family="Arial,Arial_MSFontService,sans-serif" font-weight="700" font-size="12" transform="translate(152.833 297)">J</text><text fill="#E6007E" font-family="Arial,Arial_MSFontService,sans-serif" font-weight="700" font-size="12" transform="translate(91.3542 312)">K</text><text fill="#E6007E" font-family="Arial,Arial_MSFontService,sans-serif" font-weight="700" font-size="12" transform="translate(107.141 312)">L</text><text fill="#E6007E" font-family="Arial,Arial_MSFontService,sans-serif" font-weight="700" font-size="12" transform="translate(120.927 312)">M</text><text fill="#E6007E" font-family="Arial,Arial_MSFontService,sans-serif" font-weight="700" font-size="12" transform="translate(136.714 312)">N</text><text fill="#E6007E" font-family="Arial,Arial_MSFontService,sans-serif" font-weight="700" font-size="12" transform="translate(151.5 312)">O</text><text fill="#E6007E" font-family="Arial,Arial_MSFontService,sans-serif" font-weight="700" font-size="12" transform="translate(91.6876 327)">P</text><text fill="#E6007E" font-family="Arial,Arial_MSFontService,sans-serif" font-weight="700" font-size="12" transform="translate(106.141 327)">Q</text><text fill="#E6007E" font-family="Arial,Arial_MSFontService,sans-serif" font-weight="700" font-size="12" transform="translate(121.594 327)">R</text><text fill="#E6007E" font-family="Arial,Arial_MSFontService,sans-serif" font-weight="700" font-size="12" transform="translate(137.047 327)">S</text><text fill="#E6007E" font-family="Arial,Arial_MSFontService,sans-serif" font-weight="700" font-size="12" transform="translate(152.5 327)">T</text><text fill="#E6007E" font-family="Arial,Arial_MSFontService,sans-serif" font-weight="700" font-size="12" transform="translate(91.3542 342)">U</text><text fill="#E6007E" font-family="Arial,Arial_MSFontService,sans-serif" font-weight="700" font-size="12" transform="translate(106.807 342)">V</text><text fill="#E6007E" font-family="Arial,Arial_MSFontService,sans-serif" font-weight="700" font-size="12" transform="translate(120.26 342)">W</text><path d="M421 390 421 555.598" stroke="#E6007E" stroke-width="4" stroke-miterlimit="8" stroke-dasharray="4 4" fill="none" fill-rule="evenodd"/><rect x="300" y="239" width="204" height="129" fill="#3CB4E6"/><text fill="#FFFFFF" font-family="Arial,Arial_MSFontService,sans-serif" font-weight="400" font-size="24" transform="translate(321.197 267)">External loader</text><rect x="20" y="557" width="401" height="83" fill="#E6007E"/><text fill="#FFFFFF" font-family="Arial,Arial_MSFontService,sans-serif" font-weight="400" font-size="24" transform="translate(29.6886 592)">We use Memory copy override.</text><text fill="#FFFFFF" font-family="Arial,Arial_MSFontService,sans-serif" font-weight="400" font-size="24" transform="translate(29.6886 621)">To use DMA to copy data to</text><text fill="#FFFFFF" font-family="Arial,Arial_MSFontService,sans-serif" font-weight="400" font-size="24" transform="translate(329.702 621)">xSPI</text><rect x="307" y="398" width="91" height="75" fill="#3CB4E6"/><text fill="#FFFFFF" font-family="Arial,Arial_MSFontService,sans-serif" font-weight="400" font-size="24" transform="translate(326.057 444)">DMA</text><rect x="307" y="284" width="189" height="76" fill="#E6007E" fill-opacity="0.501961"/><text fill="#FFFFFF" font-family="Arial,Arial_MSFontService,sans-serif" font-weight="400" font-size="19" transform="translate(325.863 307)">Extmem_manage</text><text fill="#FFFFFF" font-family="Arial,Arial_MSFontService,sans-serif" font-weight="400" font-size="19" transform="translate(471.697 307)">r</text><rect x="307" y="315" width="189" height="22" fill="#E6007E"/><text fill="#FFFFFF" font-family="Arial,Arial_MSFontService,sans-serif" font-weight="400" font-size="15" transform="translate(329.447 331)">Memory write override</text><rect x="307" y="337" width="189" height="23" fill="#E6007E"/><text fill="#FFFFFF" font-family="Arial,Arial_MSFontService,sans-serif" font-weight="400" font-size="15" transform="translate(329.447 354)">Memory copy override</text><rect x="466" y="557" width="401" height="83" fill="#E6007E"/><text fill="#FFFFFF" font-family="Arial,Arial_MSFontService,sans-serif" font-weight="400" font-size="24" transform="translate(475.722 578)">MPU used to prevent core to</text><text fill="#FFFFFF" font-family="Arial,Arial_MSFontService,sans-serif" font-weight="400" font-size="24" transform="translate(475.722 607)">access the</text><text fill="#FFFFFF" font-family="Arial,Arial_MSFontService,sans-serif" font-weight="400" font-size="24" transform="translate(597.056 607)">xspi</text><text fill="#FFFFFF" font-family="Arial,Arial_MSFontService,sans-serif" font-weight="400" font-size="24" transform="translate(646.389 607)">in memory mapped</text><text fill="#FFFFFF" font-family="Arial,Arial_MSFontService,sans-serif" font-weight="400" font-size="24" transform="translate(475.722 636)">code</text><rect x="466" y="368" width="30" height="136" fill="#8C0078"/><text fill="#FFFFFF" font-family="Arial,Arial_MSFontService,sans-serif" font-weight="400" font-size="24" transform="translate(471.242 415)">M</text><text fill="#FFFFFF" font-family="Arial,Arial_MSFontService,sans-serif" font-weight="400" font-size="24" transform="translate(471.242 444)">P</text><text fill="#FFFFFF" font-family="Arial,Arial_MSFontService,sans-serif" font-weight="400" font-size="24" transform="translate(471.242 473)">U</text><path d="M0 0 0.000104987 75.5989" stroke="#E6007E" stroke-width="4" stroke-miterlimit="8" fill="none" fill-rule="evenodd" transform="matrix(1 0 0 -1 383 435.599)"/><path d="M10-1.99999 120.958-1.99989 120.958 2.0001 9.99999 2.00001ZM12 6.00001 0 0 12-5.99999Z" fill="#E6007E" transform="matrix(-1 0 0 1 503.958 436)"/><path d="M481 504 481 563.759" stroke="#E6007E" stroke-width="4" stroke-miterlimit="8" stroke-dasharray="4 4" fill="none" fill-rule="evenodd"/></g></svg>