<svg width="1280" height="720" xmlns="http://www.w3.org/2000/svg" xmlns:xlink="http://www.w3.org/1999/xlink" overflow="hidden"><g><rect x="0" y="0" width="1280" height="720" fill="#FFFFFF"/><rect x="285" y="209" width="302" height="302" fill="#03234B"/><text fill="#FFFFFF" font-family="Arial,Arial_MSFontService,sans-serif" font-weight="400" font-size="24" transform="translate(373.883 237)">STM32H7S</text><rect x="549" y="368" width="38" height="136" fill="#49B170"/><text fill="#FFFFFF" font-family="Arial,Arial_MSFontService,sans-serif" font-weight="400" font-size="24" transform="translate(562.181 401)">x</text><text fill="#FFFFFF" font-family="Arial,Arial_MSFontService,sans-serif" font-weight="400" font-size="24" transform="translate(560.181 430)">S</text><text fill="#FFFFFF" font-family="Arial,Arial_MSFontService,sans-serif" font-weight="400" font-size="24" transform="translate(560.181 459)">P</text><text fill="#FFFFFF" font-family="Arial,Arial_MSFontService,sans-serif" font-weight="400" font-size="24" transform="translate(564.848 488)">I</text><rect x="761" y="209" width="227" height="302" fill="#3CB4E6"/><text fill="#FFFFFF" font-family="Arial,Arial_MSFontService,sans-serif" font-weight="400" font-size="24" transform="translate(849.023 237)">xSPI</text><text fill="#FFFFFF" font-family="Arial,Arial_MSFontService,sans-serif" font-weight="400" font-size="24" transform="translate(831.023 266)">memory</text><text fill="#FFFFFF" font-family="Arial,Arial_MSFontService,sans-serif" font-weight="400" font-size="24" transform="translate(843.023 295)">64MB</text><rect x="292" y="171" width="15" height="38" fill="#03234B"/><rect x="322" y="171" width="16" height="38" fill="#03234B"/><rect x="353" y="171" width="15" height="38" fill="#03234B"/><rect x="383" y="171" width="15" height="38" fill="#03234B"/><rect x="413" y="171" width="15" height="38" fill="#03234B"/><rect x="443" y="171" width="16" height="38" fill="#03234B"/><rect x="474" y="171" width="15" height="38" fill="#03234B"/><rect x="504" y="171" width="15" height="38" fill="#03234B"/><rect x="534" y="171" width="15" height="38" fill="#03234B"/><rect x="247" y="489" width="38" height="15" fill="#03234B"/><rect x="247" y="458" width="38" height="15" fill="#03234B"/><rect x="247" y="428" width="38" height="15" fill="#03234B"/><rect x="247" y="398" width="38" height="15" fill="#03234B"/><rect x="247" y="368" width="38" height="15" fill="#03234B"/><rect x="247" y="337" width="38" height="15" fill="#03234B"/><rect x="247" y="307" width="38" height="15" fill="#03234B"/><rect x="247" y="277" width="38" height="15" fill="#03234B"/><rect x="247" y="247" width="38" height="15" fill="#03234B"/><rect x="247" y="216" width="38" height="15" fill="#03234B"/><rect x="292" y="511" width="15" height="38" fill="#03234B"/><rect x="322" y="511" width="16" height="38" fill="#03234B"/><rect x="353" y="511" width="15" height="38" fill="#03234B"/><rect x="383" y="511" width="15" height="38" fill="#03234B"/><rect x="413" y="511" width="15" height="38" fill="#03234B"/><rect x="443" y="511" width="16" height="38" fill="#03234B"/><rect x="474" y="511" width="15" height="38" fill="#03234B"/><rect x="504" y="511" width="15" height="38" fill="#03234B"/><rect x="534" y="511" width="15" height="38" fill="#03234B"/><rect x="587" y="489" width="38" height="15" fill="#49B170"/><rect x="587" y="458" width="38" height="15" fill="#49B170"/><rect x="587" y="428" width="38" height="15" fill="#49B170"/><rect x="587" y="398" width="38" height="15" fill="#49B170"/><rect x="587" y="368" width="38" height="15" fill="#49B170"/><rect x="587" y="337" width="38" height="15" fill="#03234B"/><rect x="587" y="307" width="38" height="15" fill="#03234B"/><rect x="587" y="277" width="38" height="15" fill="#03234B"/><rect x="587" y="247" width="38" height="15" fill="#03234B"/><rect x="564" y="171" width="16" height="38" fill="#03234B"/><rect x="587" y="216" width="38" height="15" fill="#03234B"/><rect x="723" y="489" width="38" height="15" fill="#3CB4E6"/><rect x="723" y="458" width="38" height="15" fill="#3CB4E6"/><rect x="723" y="428" width="38" height="15" fill="#3CB4E6"/><rect x="723" y="398" width="38" height="15" fill="#3CB4E6"/><rect x="723" y="368" width="38" height="15" fill="#3CB4E6"/><rect x="988" y="489" width="38" height="15" fill="#3CB4E6"/><rect x="988" y="458" width="38" height="15" fill="#3CB4E6"/><rect x="988" y="428" width="38" height="15" fill="#3CB4E6"/><rect x="988" y="398" width="38" height="15" fill="#3CB4E6"/><rect x="988" y="368" width="38" height="15" fill="#3CB4E6"/><rect x="988" y="337" width="38" height="15" fill="#3CB4E6"/><rect x="988" y="307" width="38" height="15" fill="#3CB4E6"/><rect x="988" y="277" width="38" height="15" fill="#3CB4E6"/><rect x="988" y="247" width="38" height="15" fill="#3CB4E6"/><rect x="988" y="216" width="38" height="15" fill="#3CB4E6"/><rect x="723" y="337" width="38" height="15" fill="#3CB4E6"/><rect x="723" y="307" width="38" height="15" fill="#3CB4E6"/><rect x="723" y="277" width="38" height="15" fill="#3CB4E6"/><rect x="723" y="247" width="38" height="15" fill="#3CB4E6"/><rect x="723" y="216" width="38" height="15" fill="#3CB4E6"/><path d="M645 432 703.279 432 703.279 440 645 440ZM649 448 625 436 649 424ZM699.279 424 723.279 436 699.279 448Z" fill="#49B170"/><path d="M645 462 703.279 462 703.279 470 645 470ZM649 478 625 466 649 454ZM699.279 454 723.279 466 699.279 478Z" fill="#49B170"/><path d="M645 492 703.279 492 703.279 500 645 500ZM649 508 625 496 649 484ZM699.279 484 723.279 496 699.279 508Z" fill="#49B170"/><path d="M645 401 703.279 401 703.279 409 645 409ZM649 417 625 405 649 393ZM699.279 393 723.279 405 699.279 417Z" fill="#49B170"/><path d="M645 371 703.279 371 703.279 379 645 379ZM649 387 625 375 649 363ZM699.279 363 723.279 375 699.279 387Z" fill="#49B170"/><rect x="504" y="368" width="38" height="136" fill="#FFC000"/><text fill="#FFFFFF" font-family="Arial,Arial_MSFontService,sans-serif" font-weight="400" font-size="24" transform="translate(512.822 415)">M</text><text fill="#FFFFFF" font-family="Arial,Arial_MSFontService,sans-serif" font-weight="400" font-size="24" transform="translate(513.402 444)">C</text><text fill="#FFFFFF" font-family="Arial,Arial_MSFontService,sans-serif" font-weight="400" font-size="24" transform="translate(514.068 473)">E</text><path d="M549 434 553 434 553 438 549 438ZM557 434 561 434 561 438 557 438ZM565 434 569 434 569 438 565 438ZM573 434 577 434 577 438 573 438ZM581 434 585 434 585 438 581 438ZM589 434 593 434 593 438 589 438ZM597 434 601 434 601 438 597 438ZM605 434 609 434 609 438 605 438ZM613 434 617 434 617 438 613 438ZM621 434 625 434 625 438 621 438ZM629 434 633 434 633 438 629 438ZM637 434 641 434 641 438 637 438ZM645 434 649 434 649 438 645 438ZM653 434 657 434 657 438 653 438ZM661 434 665 434 665 438 661 438ZM669 434 673 434 673 438 669 438ZM677 434 681 434 681 438 677 438ZM685 434 689 434 689 438 685 438ZM693 434 697 434 697 438 693 438ZM701 434 705 434 705 438 701 438ZM709 434 713 434 713 438 709 438ZM717 434 721 434 721 438 717 438ZM725 434 729 434 729 438 725 438ZM733 434 737 434 737 438 733 438ZM741 434 745 434 745 438 741 438ZM749 434 753 434 753 438 749 438ZM757 434 761 434 761 438 757 438ZM765 434 769 434 769 438 765 438ZM773 434 777 434 777 438 773 438ZM781 434 785 434 785 438 781 438ZM789 434 793 434 793 438 789 438ZM794.036 430 806.036 436 794.036 442Z" fill="#FFC000"/><path d="M886.777 383 815.222 383C809.588 383 805 387.685 805 393.446L805 469.555C805 475.315 809.588 480 815.222 480L868.889 480C869.566 480 870.217 479.726 870.697 479.235L896.252 453.122C896.731 452.632 897 451.968 897 451.274L897 393.445C897 387.685 892.412 383 886.777 383ZM871.445 471.085 871.445 471.085 871.445 459.111C871.447 456.227 873.734 453.89 876.556 453.887L888.276 453.887 871.445 471.085ZM891.888 448.663 876.555 448.663C870.921 448.663 866.333 453.348 866.333 459.11L866.333 474.778 815.222 474.778C812.4 474.775 810.114 472.438 810.11 469.555L810.11 393.446C810.113 390.563 812.4 388.225 815.222 388.223L886.779 388.223C889.6 388.226 891.887 390.562 891.89 393.445L891.89 448.663Z" fill="#FFC000" fill-rule="evenodd"/><text fill="#FFC000" font-family="Arial,Arial_MSFontService,sans-serif" font-weight="700" font-size="12" transform="translate(819.438 403)">!</text><text fill="#FFC000" font-family="Arial,Arial_MSFontService,sans-serif" font-weight="700" font-size="12" transform="translate(830.724 403)">@</text><text fill="#FFC000" font-family="Arial,Arial_MSFontService,sans-serif" font-weight="700" font-size="12" transform="translate(848.344 403)">#</text><text fill="#FFC000" font-family="Arial,Arial_MSFontService,sans-serif" font-weight="700" font-size="12" transform="translate(863.464 403)">$</text><text fill="#FFC000" font-family="Arial,Arial_MSFontService,sans-serif" font-weight="700" font-size="12" transform="translate(876.583 403)">%</text><text fill="#FFC000" font-family="Arial,Arial_MSFontService,sans-serif" font-weight="700" font-size="12" transform="translate(817.938 418)">^</text><text fill="#FFC000" font-family="Arial,Arial_MSFontService,sans-serif" font-weight="700" font-size="12" transform="translate(832.224 418)">&amp;</text><text fill="#FFC000" font-family="Arial,Arial_MSFontService,sans-serif" font-weight="700" font-size="12" transform="translate(849.344 418)">*</text><text fill="#FFC000" font-family="Arial,Arial_MSFontService,sans-serif" font-weight="700" font-size="12" transform="translate(864.797 418)">(</text><text fill="#FFC000" font-family="Arial,Arial_MSFontService,sans-serif" font-weight="700" font-size="12" transform="translate(879.917 418)">)</text><text fill="#FFC000" font-family="Arial,Arial_MSFontService,sans-serif" font-weight="700" font-size="12" transform="translate(818.104 433)">_</text><text fill="#FFC000" font-family="Arial,Arial_MSFontService,sans-serif" font-weight="700" font-size="12" transform="translate(833.057 433)">+</text><text fill="#FFC000" font-family="Arial,Arial_MSFontService,sans-serif" font-weight="700" font-size="12" transform="translate(849.677 433)">;</text><text fill="#FFC000" font-family="Arial,Arial_MSFontService,sans-serif" font-weight="700" font-size="12" transform="translate(864.797 433)">:</text><text fill="#FFC000" font-family="Arial,Arial_MSFontService,sans-serif" font-weight="700" font-size="12" transform="translate(880.25 433)">\</text><text fill="#FFC000" font-family="Arial,Arial_MSFontService,sans-serif" font-weight="700" font-size="12" transform="translate(819.771 448)">|</text><text fill="#FFC000" font-family="Arial,Arial_MSFontService,sans-serif" font-weight="700" font-size="12" transform="translate(833.557 448)">“</text><text fill="#FFC000" font-family="Arial,Arial_MSFontService,sans-serif" font-weight="700" font-size="12" transform="translate(848.01 448)">?</text><text fill="#FFC000" font-family="Arial,Arial_MSFontService,sans-serif" font-weight="700" font-size="12" transform="translate(863.297 448)">&lt;</text><text fill="#FFC000" font-family="Arial,Arial_MSFontService,sans-serif" font-weight="700" font-size="12" transform="translate(880.25 448)">/</text><text fill="#FFC000" font-family="Arial,Arial_MSFontService,sans-serif" font-weight="700" font-size="12" transform="translate(817.938 463)">&gt;</text><text fill="#FFC000" font-family="Arial,Arial_MSFontService,sans-serif" font-weight="700" font-size="12" transform="translate(834.557 463)">[</text><text fill="#FFC000" font-family="Arial,Arial_MSFontService,sans-serif" font-weight="700" font-size="12" transform="translate(849.344 463)">}</text><text fill="#FFC000" font-family="Arial,Arial_MSFontService,sans-serif" font-weight="700" font-size="15" transform="translate(793.238 356)">Encrypted app</text><text fill="#FFC000" font-family="Arial,Arial_MSFontService,sans-serif" font-weight="700" font-size="15" transform="translate(797.238 374)">code and data</text><rect x="307" y="398" width="91" height="75" fill="#3CB4E6"/><text fill="#FFFFFF" font-family="Arial,Arial_MSFontService,sans-serif" font-weight="400" font-size="24" transform="translate(326.057 444)">DMA</text><path d="M9.99995-1.99999 14-1.99999 13.9999 2.00001 9.99995 2.00001ZM18-1.99998 22-1.99998 21.9999 2.00002 17.9999 2.00002ZM26-1.99997 30-1.99997 29.9999 2.00003 25.9999 2.00003ZM34-1.99997 38-1.99996 37.9999 2.00004 33.9999 2.00003ZM42-1.99996 46-1.99995 45.9999 2.00005 41.9999 2.00004ZM50-1.99995 54-1.99995 53.9999 2.00005 49.9999 2.00005ZM57.9999-1.99994 61.9999-1.99994 61.9999 2.00006 57.9999 2.00006ZM65.9999-1.99993 69.9999-1.99993 69.9999 2.00007 65.9999 2.00007ZM73.9999-1.99993 77.9999-1.99992 77.9999 2.00008 73.9999 2.00007ZM81.9999-1.99992 85.9999-1.99991 85.9999 2.00009 81.9999 2.00008ZM89.9999-1.99991 93.9999-1.99991 93.9999 2.00009 89.9999 2.00009ZM97.9999-1.9999 102-1.9999 102 2.0001 97.9999 2.0001ZM12 6.00001 0 0 12-5.99999Z" fill="#E6007E" transform="matrix(-1 0 0 1 503.839 436)"/><text fill="#E6007E" font-family="Arial,Arial_MSFontService,sans-serif" font-weight="700" font-size="15" transform="translate(406.99 310)">App code</text><text fill="#E6007E" font-family="Arial,Arial_MSFontService,sans-serif" font-weight="700" font-size="15" transform="translate(406.99 328)">and data</text><path d="M479.777 337 408.222 337C402.588 337 398 341.733 398 347.554L398 424.447C398 430.267 402.588 435 408.222 435L461.889 435C462.566 435 463.217 434.723 463.697 434.228L489.252 407.845C489.731 407.349 490 406.679 490 405.978L490 347.553C490 341.733 485.412 337 479.777 337ZM464.445 425.993 464.445 425.993 464.445 413.895C464.447 410.982 466.734 408.621 469.556 408.618L481.276 408.618 464.445 425.993ZM484.888 403.34 469.555 403.34C463.921 403.34 459.333 408.073 459.333 413.894L459.333 429.724 408.222 429.724C405.4 429.721 403.114 427.36 403.11 424.447L403.11 347.554C403.113 344.641 405.4 342.279 408.222 342.277L479.779 342.277C482.6 342.28 484.887 344.64 484.89 347.553L484.89 403.34Z" fill="#E6007E" fill-rule="evenodd"/><text fill="#E6007E" font-family="Arial,Arial_MSFontService,sans-serif" font-weight="700" font-size="12" transform="translate(410.335 357)">A</text><text fill="#E6007E" font-family="Arial,Arial_MSFontService,sans-serif" font-weight="700" font-size="12" transform="translate(425.455 357)">B</text><text fill="#E6007E" font-family="Arial,Arial_MSFontService,sans-serif" font-weight="700" font-size="12" transform="translate(440.574 357)">C</text><text fill="#E6007E" font-family="Arial,Arial_MSFontService,sans-serif" font-weight="700" font-size="12" transform="translate(455.694 357)">D</text><text fill="#E6007E" font-family="Arial,Arial_MSFontService,sans-serif" font-weight="700" font-size="12" transform="translate(471.147 357)">E</text><text fill="#E6007E" font-family="Arial,Arial_MSFontService,sans-serif" font-weight="700" font-size="12" transform="translate(411.001 372)">F</text><text fill="#E6007E" font-family="Arial,Arial_MSFontService,sans-serif" font-weight="700" font-size="12" transform="translate(425.121 372)">G</text><text fill="#E6007E" font-family="Arial,Arial_MSFontService,sans-serif" font-weight="700" font-size="12" transform="translate(440.574 372)">H</text><text fill="#E6007E" font-family="Arial,Arial_MSFontService,sans-serif" font-weight="700" font-size="12" transform="translate(458.361 372)">I</text><text fill="#E6007E" font-family="Arial,Arial_MSFontService,sans-serif" font-weight="700" font-size="12" transform="translate(471.814 372)">J</text><text fill="#E6007E" font-family="Arial,Arial_MSFontService,sans-serif" font-weight="700" font-size="12" transform="translate(410.335 387)">K</text><text fill="#E6007E" font-family="Arial,Arial_MSFontService,sans-serif" font-weight="700" font-size="12" transform="translate(426.121 387)">L</text><text fill="#E6007E" font-family="Arial,Arial_MSFontService,sans-serif" font-weight="700" font-size="12" transform="translate(439.908 387)">M</text><text fill="#E6007E" font-family="Arial,Arial_MSFontService,sans-serif" font-weight="700" font-size="12" transform="translate(455.694 387)">N</text><text fill="#E6007E" font-family="Arial,Arial_MSFontService,sans-serif" font-weight="700" font-size="12" transform="translate(470.481 387)">O</text><text fill="#E6007E" font-family="Arial,Arial_MSFontService,sans-serif" font-weight="700" font-size="12" transform="translate(410.668 403)">P</text><text fill="#E6007E" font-family="Arial,Arial_MSFontService,sans-serif" font-weight="700" font-size="12" transform="translate(425.121 403)">Q</text><text fill="#E6007E" font-family="Arial,Arial_MSFontService,sans-serif" font-weight="700" font-size="12" transform="translate(440.574 403)">R</text><text fill="#E6007E" font-family="Arial,Arial_MSFontService,sans-serif" font-weight="700" font-size="12" transform="translate(456.027 403)">S</text><text fill="#E6007E" font-family="Arial,Arial_MSFontService,sans-serif" font-weight="700" font-size="12" transform="translate(471.481 403)">T</text><text fill="#E6007E" font-family="Arial,Arial_MSFontService,sans-serif" font-weight="700" font-size="12" transform="translate(410.335 418)">U</text><text fill="#E6007E" font-family="Arial,Arial_MSFontService,sans-serif" font-weight="700" font-size="12" transform="translate(425.788 418)">V</text><text fill="#E6007E" font-family="Arial,Arial_MSFontService,sans-serif" font-weight="700" font-size="12" transform="translate(439.241 418)">W</text><path d="M428 443 428 601.758" stroke="#E6007E" stroke-width="4" stroke-miterlimit="8" stroke-dasharray="4 4" fill="none" fill-rule="evenodd"/><rect x="202" y="579" width="325" height="83" fill="#E6007E"/><text fill="#FFFFFF" font-family="Arial,Arial_MSFontService,sans-serif" font-weight="400" font-size="24" transform="translate(232.277 601)">We will use DMA to write</text><text fill="#FFFFFF" font-family="Arial,Arial_MSFontService,sans-serif" font-weight="400" font-size="24" transform="translate(225.397 630)">data to memory instead of</text><text fill="#FFFFFF" font-family="Arial,Arial_MSFontService,sans-serif" font-weight="400" font-size="24" transform="translate(340.73 659)">core</text></g></svg>