<svg width="1280" height="720" xmlns="http://www.w3.org/2000/svg" xmlns:xlink="http://www.w3.org/1999/xlink" overflow="hidden"><g><rect x="0" y="0" width="1280" height="720" fill="#FFFFFF"/><rect x="72" y="126" width="492" height="483" fill="#03234B"/><text fill="#FFFFFF" font-family="Arial,Arial_MSFontService,sans-serif" font-weight="400" font-size="24" transform="translate(256.086 153)">STM32H7S</text><rect x="459" y="163" width="37" height="137" fill="#49B170"/><text fill="#FFFFFF" font-family="Arial,Arial_MSFontService,sans-serif" font-weight="400" font-size="21" transform="translate(472.126 188)">x</text><text fill="#FFFFFF" font-family="Arial,Arial_MSFontService,sans-serif" font-weight="400" font-size="21" transform="translate(470.379 213)">S</text><text fill="#FFFFFF" font-family="Arial,Arial_MSFontService,sans-serif" font-weight="400" font-size="21" transform="translate(470.379 239)">P</text><text fill="#FFFFFF" font-family="Arial,Arial_MSFontService,sans-serif" font-weight="400" font-size="21" transform="translate(474.459 265)">I</text><text fill="#FFFFFF" font-family="Arial,Arial_MSFontService,sans-serif" font-weight="400" font-size="21" transform="translate(471.546 290)">1</text><rect x="149" y="87.9999" width="15" height="38" fill="#03234B"/><rect x="179" y="87.9999" width="15" height="38" fill="#03234B"/><rect x="209" y="87.9999" width="15" height="38" fill="#03234B"/><rect x="239" y="87.9999" width="15" height="38" fill="#03234B"/><rect x="270" y="87.9999" width="15" height="38" fill="#03234B"/><rect x="300" y="87.9999" width="15" height="38" fill="#03234B"/><rect x="330" y="87.9999" width="15" height="38" fill="#03234B"/><rect x="360" y="87.9999" width="15" height="38" fill="#03234B"/><rect x="391" y="87.9999" width="15" height="38" fill="#03234B"/><rect x="35" y="519" width="38" height="15" fill="#03234B"/><rect x="35" y="489" width="38" height="15" fill="#03234B"/><rect x="35" y="458" width="38" height="15" fill="#03234B"/><rect x="35" y="428" width="38" height="15" fill="#03234B"/><rect x="35" y="398" width="38" height="15" fill="#03234B"/><rect x="35" y="368" width="38" height="15" fill="#03234B"/><rect x="35" y="337" width="38" height="15" fill="#03234B"/><rect x="35" y="307" width="38" height="15" fill="#03234B"/><rect x="35" y="277" width="38" height="15" fill="#03234B"/><rect x="35" y="133" width="38" height="15" fill="#03234B"/><rect x="300" y="609" width="15" height="38" fill="#03234B"/><rect x="330" y="609" width="15" height="38" fill="#03234B"/><rect x="360" y="609" width="15" height="38" fill="#03234B"/><rect x="391" y="609" width="15" height="38" fill="#03234B"/><rect x="421" y="609" width="15" height="38" fill="#03234B"/><rect x="451" y="609" width="15" height="38" fill="#03234B"/><rect x="481" y="609" width="15" height="38" fill="#03234B"/><rect x="511" y="609" width="16" height="38" fill="#03234B"/><rect x="542" y="609" width="15" height="38" fill="#03234B"/><rect x="564" y="284" width="38" height="16" fill="#3CB4E6"/><rect x="564" y="254" width="38" height="15" fill="#3CB4E6"/><rect x="564" y="224" width="38" height="15" fill="#3CB4E6"/><rect x="564" y="194" width="38" height="15" fill="#3CB4E6"/><rect x="564" y="163" width="38" height="16" fill="#3CB4E6"/><rect x="564" y="405" width="38" height="15" fill="#8C0078"/><rect x="564" y="375" width="38" height="15" fill="#8C0078"/><rect x="564" y="345" width="38" height="15" fill="#8C0078"/><rect x="564" y="315" width="38" height="15" fill="#8C0078"/><rect x="421" y="87.9999" width="15" height="38" fill="#03234B"/><rect x="564" y="466" width="38" height="15" fill="#49B170"/><rect x="406.5" y="163.5" width="37" height="137" stroke="#AD005F" stroke-width="3" stroke-linejoin="round" stroke-miterlimit="10" fill="#E6007E"/><text fill="#FFFFFF" font-family="Arial,Arial_MSFontService,sans-serif" font-weight="400" font-size="24" transform="translate(414.543 197)">M</text><text fill="#FFFFFF" font-family="Arial,Arial_MSFontService,sans-serif" font-weight="400" font-size="24" transform="translate(415.123 226)">C</text><text fill="#FFFFFF" font-family="Arial,Arial_MSFontService,sans-serif" font-weight="400" font-size="24" transform="translate(415.79 255)">E</text><text fill="#FFFFFF" font-family="Arial,Arial_MSFontService,sans-serif" font-weight="400" font-size="24" transform="translate(417.123 284)">1</text><rect x="406.5" y="315.5" width="37" height="136" stroke="#BF9D00" stroke-width="3" stroke-miterlimit="8" fill="#FFC000"/><text fill="#FFFFFF" font-family="Arial,Arial_MSFontService,sans-serif" font-weight="400" font-size="24" transform="translate(414.543 348)">M</text><text fill="#FFFFFF" font-family="Arial,Arial_MSFontService,sans-serif" font-weight="400" font-size="24" transform="translate(415.123 377)">C</text><text fill="#FFFFFF" font-family="Arial,Arial_MSFontService,sans-serif" font-weight="400" font-size="24" transform="translate(415.79 406)">E</text><text fill="#FFFFFF" font-family="Arial,Arial_MSFontService,sans-serif" font-weight="400" font-size="24" transform="translate(417.123 435)">2</text><rect x="474.5" y="466.5" width="37" height="136" stroke="#BF9D00" stroke-width="1.33333" stroke-miterlimit="8" fill="#FFC000"/><text fill="#FFFFFF" font-family="Arial,Arial_MSFontService,sans-serif" font-weight="400" font-size="24" transform="translate(482.582 499)">M</text><text fill="#FFFFFF" font-family="Arial,Arial_MSFontService,sans-serif" font-weight="400" font-size="24" transform="translate(483.162 528)">C</text><text fill="#FFFFFF" font-family="Arial,Arial_MSFontService,sans-serif" font-weight="400" font-size="24" transform="translate(483.829 557)">E</text><text fill="#FFFFFF" font-family="Arial,Arial_MSFontService,sans-serif" font-weight="400" font-size="24" transform="translate(485.162 586)">3</text><rect x="459" y="315" width="37" height="136" fill="#49B170"/><text fill="#FFFFFF" font-family="Arial,Arial_MSFontService,sans-serif" font-weight="400" font-size="21" transform="translate(472.126 340)">x</text><text fill="#FFFFFF" font-family="Arial,Arial_MSFontService,sans-serif" font-weight="400" font-size="21" transform="translate(470.379 365)">S</text><text fill="#FFFFFF" font-family="Arial,Arial_MSFontService,sans-serif" font-weight="400" font-size="21" transform="translate(470.379 391)">P</text><text fill="#FFFFFF" font-family="Arial,Arial_MSFontService,sans-serif" font-weight="400" font-size="21" transform="translate(474.459 417)">I</text><text fill="#FFFFFF" font-family="Arial,Arial_MSFontService,sans-serif" font-weight="400" font-size="21" transform="translate(471.546 442)">2</text><rect x="527" y="466" width="37" height="136" fill="#49B170"/><text fill="#FFFFFF" font-family="Arial,Arial_MSFontService,sans-serif" font-weight="400" font-size="21" transform="translate(538.998 516)">F</text><text fill="#FFFFFF" font-family="Arial,Arial_MSFontService,sans-serif" font-weight="400" font-size="21" transform="translate(536.585 541)">M</text><text fill="#FFFFFF" font-family="Arial,Arial_MSFontService,sans-serif" font-weight="400" font-size="21" transform="translate(537.831 567)">C</text><rect x="564" y="436" width="38" height="15" fill="#8C0078"/><rect x="564" y="587" width="38" height="15" fill="#49B170"/><rect x="564" y="557" width="38" height="15" fill="#49B170"/><rect x="564" y="526" width="38" height="15" fill="#49B170"/><rect x="564" y="496" width="38" height="15" fill="#49B170"/><rect x="118" y="609" width="15" height="38" fill="#03234B"/><rect x="149" y="609" width="15" height="38" fill="#03234B"/><rect x="179" y="609" width="15" height="38" fill="#03234B"/><rect x="209" y="609" width="15" height="38" fill="#03234B"/><rect x="239" y="609" width="15" height="38" fill="#03234B"/><rect x="270" y="609" width="15" height="38" fill="#03234B"/><rect x="451" y="87.9999" width="15" height="38" fill="#03234B"/><rect x="481" y="87.9999" width="15" height="38" fill="#03234B"/><rect x="511" y="88" width="16" height="38" fill="#03234B"/><rect x="542" y="87.9999" width="15" height="38" fill="#03234B"/><rect x="35" y="254" width="38" height="15" fill="#03234B"/><rect x="35" y="224" width="38" height="15" fill="#03234B"/><rect x="35" y="194" width="38" height="15" fill="#03234B"/><rect x="35" y="163" width="38" height="16" fill="#03234B"/><rect x="35" y="549" width="38" height="15" fill="#03234B"/><rect x="542" y="163" width="22" height="137" fill="#3CB4E6"/><text fill="#FFFFFF" font-family="Arial,Arial_MSFontService,sans-serif" font-weight="400" font-size="21" transform="translate(545.978 188)">P</text><text fill="#FFFFFF" font-family="Arial,Arial_MSFontService,sans-serif" font-weight="400" font-size="21" transform="translate(545.978 213)">o</text><text fill="#FFFFFF" font-family="Arial,Arial_MSFontService,sans-serif" font-weight="400" font-size="21" transform="translate(545.978 239)">r</text><text fill="#FFFFFF" font-family="Arial,Arial_MSFontService,sans-serif" font-weight="400" font-size="21" transform="translate(545.978 265)">t</text><text fill="#FFFFFF" font-family="Arial,Arial_MSFontService,sans-serif" font-weight="400" font-size="21" transform="translate(545.978 290)">1</text><rect x="542" y="315" width="22" height="136" fill="#8C0078"/><text fill="#FFFFFF" font-family="Arial,Arial_MSFontService,sans-serif" font-weight="400" font-size="21" transform="translate(545.978 340)">P</text><text fill="#FFFFFF" font-family="Arial,Arial_MSFontService,sans-serif" font-weight="400" font-size="21" transform="translate(545.978 365)">o</text><text fill="#FFFFFF" font-family="Arial,Arial_MSFontService,sans-serif" font-weight="400" font-size="21" transform="translate(545.978 391)">r</text><text fill="#FFFFFF" font-family="Arial,Arial_MSFontService,sans-serif" font-weight="400" font-size="21" transform="translate(545.978 417)">t</text><text fill="#FFFFFF" font-family="Arial,Arial_MSFontService,sans-serif" font-weight="400" font-size="21" transform="translate(545.978 442)">2</text><path d="M443 214 448.12 214 448.12 218 443 218ZM446.12 210 458.12 216 446.12 222Z" fill="#E6007E"/><path d="M443 366 448.12 366 448.12 370 443 370ZM446.12 362 458.12 368 446.12 374Z" fill="#E6007E"/><path d="M511 517 516.12 517 516.12 521 511 521ZM514.12 513 526.12 519 514.12 525Z" fill="#E6007E"/><path d="M453 245 458.12 245 458.12 249 453 249ZM455 253 443 247 455 241Z" fill="#E6007E"/><path d="M453 396 458.12 396 458.12 400 453 400ZM455 404 443 398 455 392Z" fill="#E6007E"/><path d="M521 547 526.12 547 526.12 551 521 551ZM523 555 511 549 523 543Z" fill="#E6007E"/><path d="M496 194 541.359 194" stroke="#E6007E" stroke-width="4" stroke-miterlimit="8" fill="none" fill-rule="evenodd"/><path d="M504 194 534.24 345.198" stroke="#E6007E" stroke-width="4" stroke-miterlimit="8" fill="none" fill-rule="evenodd"/><path d="M527 345 542.12 345" stroke="#03234B" stroke-width="2.33333" stroke-miterlimit="8" fill="none" fill-rule="evenodd"/><path d="M534 345 541.56 345" stroke="#E6007E" stroke-width="4" stroke-miterlimit="8" fill="none" fill-rule="evenodd"/><path d="M534 269 541.56 269" stroke="#E6007E" stroke-width="4" stroke-miterlimit="8" fill="none" fill-rule="evenodd"/><path d="M0 0 30.2396 151.198" stroke="#E6007E" stroke-width="4" stroke-miterlimit="8" fill="none" fill-rule="evenodd" transform="matrix(-1 0 0 1 534.24 269)"/><path d="M496 420 541.359 420" stroke="#E6007E" stroke-width="4" stroke-miterlimit="8" fill="none" fill-rule="evenodd"/><rect x="88.0001" y="87.9999" width="15" height="38" fill="#03234B"/><rect x="118" y="87.9999" width="15" height="38" fill="#03234B"/><rect x="88.0001" y="609" width="15" height="38" fill="#03234B"/><rect x="564" y="133" width="38" height="15" fill="#03234B"/><rect x="111.5" y="163.5" width="295" height="46" stroke="#AD005F" stroke-width="3" stroke-linejoin="round" stroke-miterlimit="10" fill="#E6007E"/><text fill="#FFFFFF" font-family="Arial,Arial_MSFontService,sans-serif" font-weight="400" font-size="24" transform="translate(234.225 195)">AES</text><rect x="224.5" y="239.5" width="182" height="30" stroke="#AD005F" stroke-width="3" stroke-linejoin="round" stroke-miterlimit="10" fill="#E6007E"/><text fill="#FFFFFF" font-family="Arial,Arial_MSFontService,sans-serif" font-weight="400" font-size="24" transform="translate(249.591 263)">Normal/Fast</text><rect x="224.5" y="209.5" width="182" height="30" stroke="#AD005F" stroke-width="3" stroke-linejoin="round" stroke-miterlimit="10" fill="#E6007E"/><text fill="#FFFFFF" font-family="Arial,Arial_MSFontService,sans-serif" font-weight="400" font-size="24" transform="translate(285.591 233)">Block</text><rect x="224.5" y="269.5" width="182" height="31" stroke="#AD005F" stroke-width="3" stroke-linejoin="round" stroke-miterlimit="10" fill="#E6007E"/><text fill="#FFFFFF" font-family="Arial,Arial_MSFontService,sans-serif" font-weight="400" font-size="24" transform="translate(235.591 293)">Context key 2x</text><rect x="224.5" y="315.5" width="182" height="45" stroke="#BF9D00" stroke-width="3" stroke-miterlimit="8" fill="#FFC000"/><text fill="#FFFFFF" font-family="Arial,Arial_MSFontService,sans-serif" font-weight="400" font-size="24" transform="translate(266.925 346)">No</text><text fill="#FFFFFF" font-family="Arial,Arial_MSFontService,sans-serif" font-weight="400" font-size="24" transform="translate(297.591 346)">e</text><text fill="#FFFFFF" font-family="Arial,Arial_MSFontService,sans-serif" font-weight="400" font-size="24" transform="translate(310.925 346)">keon</text><rect x="224.5" y="390.5" width="182" height="30" stroke="#BF9D00" stroke-width="3" stroke-miterlimit="8" fill="#FFC000"/><text fill="#FFFFFF" font-family="Arial,Arial_MSFontService,sans-serif" font-weight="400" font-size="24" transform="translate(249.591 414)">Normal/Fast</text><rect x="224.5" y="360.5" width="182" height="30" stroke="#BF9D00" stroke-width="3" stroke-miterlimit="8" fill="#FFC000"/><text fill="#FFFFFF" font-family="Arial,Arial_MSFontService,sans-serif" font-weight="400" font-size="24" transform="translate(285.591 384)">Block</text><rect x="292.5" y="466.5" width="182" height="45" stroke="#BF9D00" stroke-width="3" stroke-miterlimit="8" fill="#FFC000"/><text fill="#FFFFFF" font-family="Arial,Arial_MSFontService,sans-serif" font-weight="400" font-size="24" transform="translate(334.964 497)">No</text><text fill="#FFFFFF" font-family="Arial,Arial_MSFontService,sans-serif" font-weight="400" font-size="24" transform="translate(365.63 497)">e</text><text fill="#FFFFFF" font-family="Arial,Arial_MSFontService,sans-serif" font-weight="400" font-size="24" transform="translate(378.964 497)">keon</text><rect x="292.5" y="541.5" width="182" height="31" stroke="#BF9D00" stroke-width="3" stroke-miterlimit="8" fill="#FFC000"/><text fill="#FFFFFF" font-family="Arial,Arial_MSFontService,sans-serif" font-weight="400" font-size="24" transform="translate(317.63 565)">Normal/Fast</text><rect x="292.5" y="511.5" width="182" height="30" stroke="#BF9D00" stroke-width="3" stroke-miterlimit="8" fill="#FFC000"/><text fill="#FFFFFF" font-family="Arial,Arial_MSFontService,sans-serif" font-weight="400" font-size="24" transform="translate(353.63 535)">Block</text><rect x="111.5" y="209.5" width="113" height="30" stroke="#AD005F" stroke-width="3" stroke-linejoin="round" stroke-miterlimit="10" fill="#E6007E"/><text fill="#FFFFFF" font-family="Arial,Arial_MSFontService,sans-serif" font-weight="400" font-size="24" transform="translate(128.84 233)">Stream</text><path d="M609.76 140.763 745.43 140.763 745.43 207.963 609.76 207.963Z" fill="#03234B" fill-rule="evenodd"/><path d="M745.43 140.763 864.141 140.763 864.141 207.963 745.43 207.963Z" fill="#03234B" fill-rule="evenodd"/><path d="M864.141 140.763 1076.12 140.763 1076.12 207.963 864.141 207.963Z" fill="#03234B" fill-rule="evenodd"/><path d="M1076.12 140.763 1237.23 140.763 1237.23 207.963 1076.12 207.963Z" fill="#03234B" fill-rule="evenodd"/><path d="M609.76 207.963 745.43 207.963 745.43 285.83 609.76 285.83Z" fill="#CBCCD0" fill-rule="evenodd"/><path d="M745.43 207.963 864.141 207.963 864.141 246.896 745.43 246.896Z" fill="#CBCCD0" fill-rule="evenodd"/><path d="M864.141 207.963 1076.12 207.963 1076.12 246.896 864.141 246.896Z" fill="#CBCCD0" fill-rule="evenodd"/><path d="M1076.12 207.963 1237.23 207.963 1237.23 246.896 1076.12 246.896Z" fill="#CBCCD0" fill-rule="evenodd"/><path d="M745.43 246.896 864.141 246.896 864.141 285.83 745.43 285.83Z" fill="#E7E8E9" fill-rule="evenodd"/><path d="M864.141 246.896 1076.12 246.896 1076.12 285.83 864.141 285.83Z" fill="#E7E8E9" fill-rule="evenodd"/><path d="M1076.12 246.896 1237.23 246.896 1237.23 285.83 1076.12 285.83Z" fill="#E7E8E9" fill-rule="evenodd"/><path d="M609.76 285.83 745.43 285.83 745.43 363.696 609.76 363.696Z" fill="#CBCCD0" fill-rule="evenodd"/><path d="M745.43 285.83 864.141 285.83 864.141 324.763 745.43 324.763Z" fill="#CBCCD0" fill-rule="evenodd"/><path d="M864.141 285.83 1076.12 285.83 1076.12 324.763 864.141 324.763Z" fill="#CBCCD0" fill-rule="evenodd"/><path d="M1076.12 285.83 1237.23 285.83 1237.23 324.763 1076.12 324.763Z" fill="#CBCCD0" fill-rule="evenodd"/><path d="M745.43 324.763 864.141 324.763 864.141 363.696 745.43 363.696Z" fill="#E7E8E9" fill-rule="evenodd"/><path d="M864.141 324.763 1076.12 324.763 1076.12 363.696 864.141 363.696Z" fill="#E7E8E9" fill-rule="evenodd"/><path d="M1076.12 324.763 1237.23 324.763 1237.23 363.696 1076.12 363.696Z" fill="#E7E8E9" fill-rule="evenodd"/><path d="M745.43 140.096 745.43 364.363" stroke="#FFFFFF" stroke-width="1.33333" stroke-linejoin="round" stroke-miterlimit="10" fill="none" fill-rule="evenodd"/><path d="M864.141 140.096 864.141 364.363" stroke="#FFFFFF" stroke-width="1.33333" stroke-linejoin="round" stroke-miterlimit="10" fill="none" fill-rule="evenodd"/><path d="M1076.12 140.096 1076.12 364.363" stroke="#FFFFFF" stroke-width="1.33333" stroke-linejoin="round" stroke-miterlimit="10" fill="none" fill-rule="evenodd"/><path d="M609.094 207.963 1237.9 207.963" stroke="#FFFFFF" stroke-width="4" stroke-linejoin="round" stroke-miterlimit="10" fill="none" fill-rule="evenodd"/><path d="M744.763 246.896 1237.9 246.896" stroke="#FFFFFF" stroke-width="1.33333" stroke-linejoin="round" stroke-miterlimit="10" fill="none" fill-rule="evenodd"/><path d="M609.094 285.83 1237.9 285.83" stroke="#FFFFFF" stroke-width="1.33333" stroke-linejoin="round" stroke-miterlimit="10" fill="none" fill-rule="evenodd"/><path d="M744.763 324.763 1237.9 324.763" stroke="#FFFFFF" stroke-width="1.33333" stroke-linejoin="round" stroke-miterlimit="10" fill="none" fill-rule="evenodd"/><path d="M609.76 140.096 609.76 364.363" stroke="#FFFFFF" stroke-width="1.33333" stroke-linejoin="round" stroke-miterlimit="10" fill="none" fill-rule="evenodd"/><path d="M1237.23 140.096 1237.23 364.363" stroke="#FFFFFF" stroke-width="1.33333" stroke-linejoin="round" stroke-miterlimit="10" fill="none" fill-rule="evenodd"/><path d="M609.094 140.763 1237.9 140.763" stroke="#FFFFFF" stroke-width="1.33333" stroke-linejoin="round" stroke-miterlimit="10" fill="none" fill-rule="evenodd"/><path d="M609.094 363.696 1237.9 363.696" stroke="#FFFFFF" stroke-width="1.33333" stroke-linejoin="round" stroke-miterlimit="10" fill="none" fill-rule="evenodd"/><g><text fill="#FFFFFF" font-family="Arial,Arial_MSFontService,sans-serif" font-weight="700" font-size="24" transform="translate(1085.72 169)">Sequential</text></g><g><text fill="#FFFFFF" font-family="Arial,Arial_MSFontService,sans-serif" font-weight="700" font-size="24" transform="translate(1085.72 198)">access</text></g><g><text fill="#FFFFFF" font-family="Arial,Arial_MSFontService,sans-serif" font-weight="700" font-size="24" transform="translate(873.741 169)">AXI latency 16B</text></g><g><text fill="#FFFFFF" font-family="Arial,Arial_MSFontService,sans-serif" font-weight="700" font-size="24" transform="translate(873.741 198)">data</text></g><g><text fill="#FFFFFF" font-family="Arial,Arial_MSFontService,sans-serif" font-weight="700" font-size="24" transform="translate(755.03 169)">Mode</text></g><g><text fill="#FFFFFF" font-family="Arial,Arial_MSFontService,sans-serif" font-weight="700" font-size="24" transform="translate(619.36 169)">Cipher</text></g><g><text fill="#03234B" font-family="Arial,Arial_MSFontService,sans-serif" font-weight="400" font-size="24" transform="translate(1085.72 236)">No</text></g><g><text fill="#03234B" font-family="Arial,Arial_MSFontService,sans-serif" font-weight="400" font-size="24" transform="translate(873.741 236)">14+11=25</text></g><g><text fill="#03234B" font-family="Arial,Arial_MSFontService,sans-serif" font-weight="400" font-size="24" transform="translate(755.03 236)">Normal</text></g><g><text fill="#03234B" font-family="Arial,Arial_MSFontService,sans-serif" font-weight="400" font-size="24" transform="translate(619.36 236)">AES</text></g><g><text fill="#03234B" font-family="Arial,Arial_MSFontService,sans-serif" font-weight="400" font-size="24" transform="translate(1085.72 275)">No</text></g><g><text fill="#03234B" font-family="Arial,Arial_MSFontService,sans-serif" font-weight="400" font-size="24" transform="translate(873.741 275)">4+11=15</text></g><g><text fill="#03234B" font-family="Arial,Arial_MSFontService,sans-serif" font-weight="400" font-size="24" transform="translate(755.03 275)">Fast</text></g><g><text fill="#03234B" font-family="Arial,Arial_MSFontService,sans-serif" font-weight="400" font-size="24" transform="translate(1085.72 314)">No</text></g><g><text fill="#03234B" font-family="Arial,Arial_MSFontService,sans-serif" font-weight="400" font-size="24" transform="translate(873.741 314)">14+7=21</text></g><g><text fill="#03234B" font-family="Arial,Arial_MSFontService,sans-serif" font-weight="400" font-size="24" transform="translate(755.03 314)">Normal</text></g><g><text fill="#03234B" font-family="Arial,Arial_MSFontService,sans-serif" font-weight="400" font-size="24" transform="translate(619.36 314)">Noekeon</text></g><g><text fill="#03234B" font-family="Arial,Arial_MSFontService,sans-serif" font-weight="400" font-size="24" transform="translate(1085.72 353)">No</text></g><g><text fill="#03234B" font-family="Arial,Arial_MSFontService,sans-serif" font-weight="400" font-size="24" transform="translate(873.741 353)">4+7=11</text></g><g><text fill="#03234B" font-family="Arial,Arial_MSFontService,sans-serif" font-weight="400" font-size="24" transform="translate(755.03 353)">Fast</text></g><path d="M609.76 458.279 745.43 458.279 745.43 525.479 609.76 525.479Z" fill="#03234B" fill-rule="evenodd"/><path d="M745.43 458.279 864.141 458.279 864.141 525.479 745.43 525.479Z" fill="#03234B" fill-rule="evenodd"/><path d="M864.141 458.279 1076.12 458.279 1076.12 525.479 864.141 525.479Z" fill="#03234B" fill-rule="evenodd"/><path d="M1076.12 458.279 1237.23 458.279 1237.23 525.479 1076.12 525.479Z" fill="#03234B" fill-rule="evenodd"/><path d="M609.76 525.479 745.43 525.479 745.43 564.412 609.76 564.412Z" fill="#CBCCD0" fill-rule="evenodd"/><path d="M745.43 525.479 864.141 525.479 864.141 564.412 745.43 564.412Z" fill="#CBCCD0" fill-rule="evenodd"/><path d="M864.141 525.479 1076.12 525.479 1076.12 564.412 864.141 564.412Z" fill="#CBCCD0" fill-rule="evenodd"/><path d="M1076.12 525.479 1237.23 525.479 1237.23 564.412 1076.12 564.412Z" fill="#CBCCD0" fill-rule="evenodd"/><path d="M745.43 457.612 745.43 565.079" stroke="#FFFFFF" stroke-width="1.33333" stroke-linejoin="round" stroke-miterlimit="10" fill="none" fill-rule="evenodd"/><path d="M864.141 457.612 864.141 565.079" stroke="#FFFFFF" stroke-width="1.33333" stroke-linejoin="round" stroke-miterlimit="10" fill="none" fill-rule="evenodd"/><path d="M1076.12 457.612 1076.12 565.079" stroke="#FFFFFF" stroke-width="1.33333" stroke-linejoin="round" stroke-miterlimit="10" fill="none" fill-rule="evenodd"/><path d="M609.094 525.479 1237.9 525.479" stroke="#FFFFFF" stroke-width="4" stroke-linejoin="round" stroke-miterlimit="10" fill="none" fill-rule="evenodd"/><path d="M609.76 457.612 609.76 565.079" stroke="#FFFFFF" stroke-width="1.33333" stroke-linejoin="round" stroke-miterlimit="10" fill="none" fill-rule="evenodd"/><path d="M1237.23 457.612 1237.23 565.079" stroke="#FFFFFF" stroke-width="1.33333" stroke-linejoin="round" stroke-miterlimit="10" fill="none" fill-rule="evenodd"/><path d="M609.094 458.279 1237.9 458.279" stroke="#FFFFFF" stroke-width="1.33333" stroke-linejoin="round" stroke-miterlimit="10" fill="none" fill-rule="evenodd"/><path d="M609.094 564.412 1237.9 564.412" stroke="#FFFFFF" stroke-width="1.33333" stroke-linejoin="round" stroke-miterlimit="10" fill="none" fill-rule="evenodd"/><g><text fill="#FFFFFF" font-family="Arial,Arial_MSFontService,sans-serif" font-weight="700" font-size="24" transform="translate(1085.72 486)">Sequential</text></g><g><text fill="#FFFFFF" font-family="Arial,Arial_MSFontService,sans-serif" font-weight="700" font-size="24" transform="translate(1085.72 515)">access</text></g><g><text fill="#FFFFFF" font-family="Arial,Arial_MSFontService,sans-serif" font-weight="700" font-size="24" transform="translate(873.741 486)">AXI latency 16B</text></g><g><text fill="#FFFFFF" font-family="Arial,Arial_MSFontService,sans-serif" font-weight="700" font-size="24" transform="translate(873.741 515)">data</text></g><g><text fill="#FFFFFF" font-family="Arial,Arial_MSFontService,sans-serif" font-weight="700" font-size="24" transform="translate(755.03 486)">Mode</text></g><g><text fill="#FFFFFF" font-family="Arial,Arial_MSFontService,sans-serif" font-weight="700" font-size="24" transform="translate(619.36 486)">Cipher</text></g><g><text fill="#03234B" font-family="Arial,Arial_MSFontService,sans-serif" font-weight="400" font-size="24" transform="translate(1085.72 553)">Yes</text></g><g><text fill="#03234B" font-family="Arial,Arial_MSFontService,sans-serif" font-weight="400" font-size="24" transform="translate(873.741 553)">11</text></g><g><text fill="#03234B" font-family="Arial,Arial_MSFontService,sans-serif" font-weight="400" font-size="24" transform="translate(755.03 553)">Normal</text></g><g><text fill="#03234B" font-family="Arial,Arial_MSFontService,sans-serif" font-weight="400" font-size="24" transform="translate(619.36 553)">AES</text></g><text fill="#03234B" font-family="Arial,Arial_MSFontService,sans-serif" font-weight="400" font-size="37" transform="translate(785.678 129)">Block Mode</text><text fill="#03234B" font-family="Arial,Arial_MSFontService,sans-serif" font-weight="400" font-size="37" transform="translate(781.515 446)">Stream Mode</text></g></svg>