<svg width="1280" height="720" xmlns="http://www.w3.org/2000/svg" xmlns:xlink="http://www.w3.org/1999/xlink" overflow="hidden"><g><rect x="0" y="0" width="1280" height="720" fill="#FFFFFF"/><rect x="451" y="209" width="302" height="302" fill="#03234B"/><text fill="#FFFFFF" font-family="Arial,Arial_MSFontService,sans-serif" font-weight="400" font-size="24" transform="translate(501.534 237)">STM32H7xx(older)</text><rect x="489" y="269" width="227" height="227" fill="#3CB4E6"/><text fill="#FFFFFF" font-family="Arial,Arial_MSFontService,sans-serif" font-weight="400" font-size="24" transform="translate(563.534 377)">FLASH</text><text fill="#FFFFFF" font-family="Arial,Arial_MSFontService,sans-serif" font-weight="400" font-size="24" transform="translate(535.534 406)">512MB</text><text fill="#FFFFFF" font-family="Arial,Arial_MSFontService,sans-serif" font-weight="400" font-size="24" transform="translate(611.534 406)">-</text><text fill="#FFFFFF" font-family="Arial,Arial_MSFontService,sans-serif" font-weight="400" font-size="24" transform="translate(619.534 406)">2MB</text><rect x="459" y="171" width="15" height="38" fill="#03234B"/><rect x="489" y="171" width="15" height="38" fill="#03234B"/><rect x="519" y="171" width="15" height="38" fill="#03234B"/><rect x="549" y="171" width="15" height="38" fill="#03234B"/><rect x="580" y="171" width="15" height="38" fill="#03234B"/><rect x="610" y="171" width="15" height="38" fill="#03234B"/><rect x="640" y="171" width="15" height="38" fill="#03234B"/><rect x="670" y="171" width="15" height="38" fill="#03234B"/><rect x="700" y="171" width="16" height="38" fill="#03234B"/><rect x="413" y="489" width="38" height="15" fill="#03234B"/><rect x="413" y="458" width="38" height="15" fill="#03234B"/><rect x="413" y="428" width="38" height="15" fill="#03234B"/><rect x="413" y="398" width="38" height="15" fill="#03234B"/><rect x="413" y="368" width="38" height="15" fill="#03234B"/><rect x="413" y="337" width="38" height="15" fill="#03234B"/><rect x="413" y="307" width="38" height="15" fill="#03234B"/><rect x="413" y="277" width="38" height="15" fill="#03234B"/><rect x="413" y="247" width="38" height="15" fill="#03234B"/><rect x="413" y="216" width="38" height="15" fill="#03234B"/><rect x="459" y="511" width="15" height="38" fill="#03234B"/><rect x="489" y="511" width="15" height="38" fill="#03234B"/><rect x="519" y="511" width="15" height="38" fill="#03234B"/><rect x="549" y="511" width="15" height="38" fill="#03234B"/><rect x="580" y="511" width="15" height="38" fill="#03234B"/><rect x="610" y="511" width="15" height="38" fill="#03234B"/><rect x="640" y="511" width="15" height="38" fill="#03234B"/><rect x="670" y="511" width="15" height="38" fill="#03234B"/><rect x="700" y="511" width="16" height="38" fill="#03234B"/><rect x="753" y="489" width="38" height="15" fill="#03234B"/><rect x="753" y="458" width="38" height="15" fill="#03234B"/><rect x="753" y="428" width="38" height="15" fill="#03234B"/><rect x="753" y="398" width="38" height="15" fill="#03234B"/><rect x="753" y="368" width="38" height="15" fill="#03234B"/><rect x="753" y="337" width="38" height="15" fill="#03234B"/><rect x="753" y="307" width="38" height="15" fill="#03234B"/><rect x="753" y="277" width="38" height="15" fill="#03234B"/><rect x="753" y="247" width="38" height="15" fill="#03234B"/><rect x="731" y="171" width="15" height="38" fill="#03234B"/><rect x="753" y="216" width="38" height="15" fill="#03234B"/><rect x="496" y="572" width="378" height="53" fill="#E6007E"/><text fill="#FFFFFF" font-family="Arial,Arial_MSFontService,sans-serif" font-weight="400" font-size="24" transform="translate(510.693 592)">One project needed for complete</text><text fill="#FFFFFF" font-family="Arial,Arial_MSFontService,sans-serif" font-weight="400" font-size="24" transform="translate(628.026 621)">application</text><path d="M496 473 496 601.518" stroke="#E6007E" stroke-width="4" stroke-miterlimit="8" stroke-dasharray="4 4" fill="none" fill-rule="evenodd"/></g></svg>