<svg width="1280" height="720" xmlns="http://www.w3.org/2000/svg" xmlns:xlink="http://www.w3.org/1999/xlink" overflow="hidden"><g><rect x="0" y="0" width="1280" height="720" fill="#FFFFFF"/><rect x="285" y="209" width="302" height="302" fill="#03234B"/><text fill="#FFFFFF" font-family="Arial,Arial_MSFontService,sans-serif" font-weight="400" font-size="24" transform="translate(373.883 237)">STM32H7S</text><rect x="549" y="368" width="38" height="136" fill="#49B170"/><text fill="#FFFFFF" font-family="Arial,Arial_MSFontService,sans-serif" font-weight="400" font-size="24" transform="translate(562.181 401)">x</text><text fill="#FFFFFF" font-family="Arial,Arial_MSFontService,sans-serif" font-weight="400" font-size="24" transform="translate(560.181 430)">S</text><text fill="#FFFFFF" font-family="Arial,Arial_MSFontService,sans-serif" font-weight="400" font-size="24" transform="translate(560.181 459)">P</text><text fill="#FFFFFF" font-family="Arial,Arial_MSFontService,sans-serif" font-weight="400" font-size="24" transform="translate(564.848 488)">I</text><rect x="761" y="209" width="227" height="302" fill="#3CB4E6"/><text fill="#FFFFFF" font-family="Arial,Arial_MSFontService,sans-serif" font-weight="400" font-size="24" transform="translate(849.023 237)">xSPI</text><text fill="#FFFFFF" font-family="Arial,Arial_MSFontService,sans-serif" font-weight="400" font-size="24" transform="translate(831.023 266)">memory</text><text fill="#FFFFFF" font-family="Arial,Arial_MSFontService,sans-serif" font-weight="400" font-size="24" transform="translate(843.023 295)">64MB</text><rect x="292" y="171" width="15" height="38" fill="#03234B"/><rect x="322" y="171" width="16" height="38" fill="#03234B"/><rect x="353" y="171" width="15" height="38" fill="#03234B"/><rect x="383" y="171" width="15" height="38" fill="#03234B"/><rect x="413" y="171" width="15" height="38" fill="#03234B"/><rect x="443" y="171" width="16" height="38" fill="#03234B"/><rect x="474" y="171" width="15" height="38" fill="#03234B"/><rect x="504" y="171" width="15" height="38" fill="#03234B"/><rect x="534" y="171" width="15" height="38" fill="#03234B"/><rect x="247" y="489" width="38" height="15" fill="#03234B"/><rect x="247" y="458" width="38" height="15" fill="#03234B"/><rect x="247" y="428" width="38" height="15" fill="#03234B"/><rect x="247" y="398" width="38" height="15" fill="#03234B"/><rect x="247" y="368" width="38" height="15" fill="#03234B"/><rect x="247" y="337" width="38" height="15" fill="#03234B"/><rect x="247" y="307" width="38" height="15" fill="#03234B"/><rect x="247" y="277" width="38" height="15" fill="#03234B"/><rect x="247" y="247" width="38" height="15" fill="#03234B"/><rect x="247" y="216" width="38" height="15" fill="#03234B"/><rect x="292" y="511" width="15" height="38" fill="#03234B"/><rect x="322" y="511" width="16" height="38" fill="#03234B"/><rect x="353" y="511" width="15" height="38" fill="#03234B"/><rect x="383" y="511" width="15" height="38" fill="#03234B"/><rect x="413" y="511" width="15" height="38" fill="#03234B"/><rect x="443" y="511" width="16" height="38" fill="#03234B"/><rect x="474" y="511" width="15" height="38" fill="#03234B"/><rect x="504" y="511" width="15" height="38" fill="#03234B"/><rect x="534" y="511" width="15" height="38" fill="#03234B"/><rect x="587" y="489" width="38" height="15" fill="#49B170"/><rect x="587" y="458" width="38" height="15" fill="#49B170"/><rect x="587" y="428" width="38" height="15" fill="#49B170"/><rect x="587" y="398" width="38" height="15" fill="#49B170"/><rect x="587" y="368" width="38" height="15" fill="#49B170"/><rect x="587" y="337" width="38" height="15" fill="#03234B"/><rect x="587" y="307" width="38" height="15" fill="#03234B"/><rect x="587" y="277" width="38" height="15" fill="#03234B"/><rect x="587" y="247" width="38" height="15" fill="#03234B"/><rect x="564" y="171" width="16" height="38" fill="#03234B"/><rect x="587" y="216" width="38" height="15" fill="#03234B"/><rect x="723" y="489" width="38" height="15" fill="#3CB4E6"/><rect x="723" y="458" width="38" height="15" fill="#3CB4E6"/><rect x="723" y="428" width="38" height="15" fill="#3CB4E6"/><rect x="723" y="398" width="38" height="15" fill="#3CB4E6"/><rect x="723" y="368" width="38" height="15" fill="#3CB4E6"/><rect x="988" y="489" width="38" height="15" fill="#3CB4E6"/><rect x="988" y="458" width="38" height="15" fill="#3CB4E6"/><rect x="988" y="428" width="38" height="15" fill="#3CB4E6"/><rect x="988" y="398" width="38" height="15" fill="#3CB4E6"/><rect x="988" y="368" width="38" height="15" fill="#3CB4E6"/><rect x="988" y="337" width="38" height="15" fill="#3CB4E6"/><rect x="988" y="307" width="38" height="15" fill="#3CB4E6"/><rect x="988" y="277" width="38" height="15" fill="#3CB4E6"/><rect x="988" y="247" width="38" height="15" fill="#3CB4E6"/><rect x="988" y="216" width="38" height="15" fill="#3CB4E6"/><rect x="723" y="337" width="38" height="15" fill="#3CB4E6"/><rect x="723" y="307" width="38" height="15" fill="#3CB4E6"/><rect x="723" y="277" width="38" height="15" fill="#3CB4E6"/><rect x="723" y="247" width="38" height="15" fill="#3CB4E6"/><rect x="723" y="216" width="38" height="15" fill="#3CB4E6"/><path d="M645 432 703.279 432 703.279 440 645 440ZM649 448 625 436 649 424ZM699.279 424 723.279 436 699.279 448Z" fill="#49B170"/><path d="M645 462 703.279 462 703.279 470 645 470ZM649 478 625 466 649 454ZM699.279 454 723.279 466 699.279 478Z" fill="#49B170"/><path d="M645 492 703.279 492 703.279 500 645 500ZM649 508 625 496 649 484ZM699.279 484 723.279 496 699.279 508Z" fill="#49B170"/><path d="M645 401 703.279 401 703.279 409 645 409ZM649 417 625 405 649 393ZM699.279 393 723.279 405 699.279 417Z" fill="#49B170"/><path d="M645 371 703.279 371 703.279 379 645 379ZM649 387 625 375 649 363ZM699.279 363 723.279 375 699.279 387Z" fill="#49B170"/><rect x="307" y="398" width="91" height="75" fill="#8C0078"/><text fill="#FFFFFF" font-family="Arial,Arial_MSFontService,sans-serif" font-weight="400" font-size="24" transform="translate(326.724 444)">Core</text><path d="M5.04994e-07-2 4-2 4 2-5.04994e-07 2ZM8-2 12-2 12 2 8 2ZM16-2 20-1.99999 20 2.00001 16 2ZM24-1.99999 28-1.99999 28 2.00001 24 2.00001ZM32-1.99999 36-1.99999 36 2.00001 32 2.00001ZM40-1.99999 44-1.99999 44 2.00001 40 2.00001ZM48-1.99999 52-1.99999 52 2.00001 48 2.00001ZM56-1.99999 60-1.99998 60 2.00002 56 2.00001ZM64-1.99998 68-1.99998 68 2.00002 64 2.00002ZM72-1.99998 76-1.99998 76 2.00002 72 2.00002ZM80-1.99998 84-1.99998 84 2.00002 80 2.00002ZM88-1.99998 92-1.99998 92 2.00002 88 2.00002ZM96-1.99998 100-1.99997 100 2.00003 96 2.00002ZM104-1.99997 108-1.99997 108 2.00003 104 2.00003ZM112-1.99997 116-1.99997 116 2.00003 112 2.00003ZM120-1.99997 124-1.99997 124 2.00003 120 2.00003ZM128-1.99997 132-1.99997 132 2.00003 128 2.00003ZM136-1.99997 140-1.99996 140 2.00004 136 2.00003ZM144-1.99996 148-1.99996 148 2.00004 144 2.00004ZM152-1.99996 156-1.99996 156 2.00004 152 2.00004ZM160-1.99996 164-1.99996 164 2.00004 160 2.00004ZM168-1.99996 172-1.99996 172 2.00004 168 2.00004ZM176-1.99996 180-1.99995 180 2.00005 176 2.00004ZM184-1.99995 188-1.99995 188 2.00005 184 2.00005ZM192-1.99995 196-1.99995 196 2.00005 192 2.00005ZM200-1.99995 204-1.99995 204 2.00005 200 2.00005ZM208-1.99995 212-1.99995 212 2.00005 208 2.00005ZM216-1.99995 220-1.99994 220 2.00006 216 2.00005ZM224-1.99994 228-1.99994 228 2.00006 224 2.00006ZM232-1.99994 236-1.99994 236 2.00006 232 2.00006ZM240-1.99994 244-1.99994 244 2.00006 240 2.00006ZM248-1.99994 252-1.99994 252 2.00006 248 2.00006ZM256-1.99994 260-1.99993 260 2.00007 256 2.00006ZM264-1.99993 268-1.99993 268 2.00007 264 2.00007ZM272-1.99993 276-1.99993 276 2.00007 272 2.00007ZM280-1.99993 284-1.99993 284 2.00007 280 2.00007ZM288-1.99993 292-1.99993 292 2.00007 288 2.00007ZM296-1.99993 300-1.99992 300 2.00008 296 2.00007ZM304-1.99992 308-1.99992 308 2.00008 304 2.00008ZM312-1.99992 316-1.99992 316 2.00008 312 2.00008ZM320-1.99992 324-1.99992 324 2.00008 320 2.00008ZM328-1.99992 332-1.99992 332 2.00008 328 2.00008ZM336-1.99992 340-1.99991 340 2.00009 336 2.00008ZM344-1.99991 348-1.99991 348 2.00009 344 2.00009ZM352-1.99991 356-1.99991 356 2.00009 352 2.00009ZM360-1.99991 364-1.99991 364 2.00009 360 2.00009ZM368-1.99991 372-1.99991 372 2.00009 368 2.00009ZM376-1.9999 380-1.9999 380 2.0001 376 2.00009ZM384-1.9999 388-1.9999 388 2.0001 384 2.0001ZM392-1.9999 396-1.9999 396 2.0001 392 2.0001ZM400-1.9999 404-1.9999 404 2.0001 400 2.0001ZM403.794-5.9999 415.794 0.000104987 403.794 6.0001Z" fill="#E6007E" transform="matrix(-1 0 0 1 813.794 436)"/><text fill="#E6007E" font-family="Arial,Arial_MSFontService,sans-serif" font-weight="700" font-size="15" transform="translate(406.99 310)">App code</text><text fill="#E6007E" font-family="Arial,Arial_MSFontService,sans-serif" font-weight="700" font-size="15" transform="translate(406.99 328)">and data</text><path d="M479.777 337 408.222 337C402.588 337 398 341.733 398 347.554L398 424.447C398 430.267 402.588 435 408.222 435L461.889 435C462.566 435 463.217 434.723 463.697 434.228L489.252 407.845C489.731 407.349 490 406.679 490 405.978L490 347.553C490 341.733 485.412 337 479.777 337ZM464.445 425.993 464.445 425.993 464.445 413.895C464.447 410.982 466.734 408.621 469.556 408.618L481.276 408.618 464.445 425.993ZM484.888 403.34 469.555 403.34C463.921 403.34 459.333 408.073 459.333 413.894L459.333 429.724 408.222 429.724C405.4 429.721 403.114 427.36 403.11 424.447L403.11 347.554C403.113 344.641 405.4 342.279 408.222 342.277L479.779 342.277C482.6 342.28 484.887 344.64 484.89 347.553L484.89 403.34Z" fill="#E6007E" fill-rule="evenodd"/><text fill="#E6007E" font-family="Arial,Arial_MSFontService,sans-serif" font-weight="700" font-size="12" transform="translate(410.335 357)">A</text><text fill="#E6007E" font-family="Arial,Arial_MSFontService,sans-serif" font-weight="700" font-size="12" transform="translate(425.455 357)">B</text><text fill="#E6007E" font-family="Arial,Arial_MSFontService,sans-serif" font-weight="700" font-size="12" transform="translate(440.574 357)">C</text><text fill="#E6007E" font-family="Arial,Arial_MSFontService,sans-serif" font-weight="700" font-size="12" transform="translate(455.694 357)">D</text><text fill="#E6007E" font-family="Arial,Arial_MSFontService,sans-serif" font-weight="700" font-size="12" transform="translate(471.147 357)">E</text><text fill="#E6007E" font-family="Arial,Arial_MSFontService,sans-serif" font-weight="700" font-size="12" transform="translate(411.001 372)">F</text><text fill="#E6007E" font-family="Arial,Arial_MSFontService,sans-serif" font-weight="700" font-size="12" transform="translate(425.121 372)">G</text><text fill="#E6007E" font-family="Arial,Arial_MSFontService,sans-serif" font-weight="700" font-size="12" transform="translate(440.574 372)">H</text><text fill="#E6007E" font-family="Arial,Arial_MSFontService,sans-serif" font-weight="700" font-size="12" transform="translate(458.361 372)">I</text><text fill="#E6007E" font-family="Arial,Arial_MSFontService,sans-serif" font-weight="700" font-size="12" transform="translate(471.814 372)">J</text><text fill="#E6007E" font-family="Arial,Arial_MSFontService,sans-serif" font-weight="700" font-size="12" transform="translate(410.335 387)">K</text><text fill="#E6007E" font-family="Arial,Arial_MSFontService,sans-serif" font-weight="700" font-size="12" transform="translate(426.121 387)">L</text><text fill="#E6007E" font-family="Arial,Arial_MSFontService,sans-serif" font-weight="700" font-size="12" transform="translate(439.908 387)">M</text><text fill="#E6007E" font-family="Arial,Arial_MSFontService,sans-serif" font-weight="700" font-size="12" transform="translate(455.694 387)">N</text><text fill="#E6007E" font-family="Arial,Arial_MSFontService,sans-serif" font-weight="700" font-size="12" transform="translate(470.481 387)">O</text><text fill="#E6007E" font-family="Arial,Arial_MSFontService,sans-serif" font-weight="700" font-size="12" transform="translate(410.668 403)">P</text><text fill="#E6007E" font-family="Arial,Arial_MSFontService,sans-serif" font-weight="700" font-size="12" transform="translate(425.121 403)">Q</text><text fill="#E6007E" font-family="Arial,Arial_MSFontService,sans-serif" font-weight="700" font-size="12" transform="translate(440.574 403)">R</text><text fill="#E6007E" font-family="Arial,Arial_MSFontService,sans-serif" font-weight="700" font-size="12" transform="translate(456.027 403)">S</text><text fill="#E6007E" font-family="Arial,Arial_MSFontService,sans-serif" font-weight="700" font-size="12" transform="translate(471.481 403)">T</text><text fill="#E6007E" font-family="Arial,Arial_MSFontService,sans-serif" font-weight="700" font-size="12" transform="translate(410.335 418)">U</text><text fill="#E6007E" font-family="Arial,Arial_MSFontService,sans-serif" font-weight="700" font-size="12" transform="translate(425.788 418)">V</text><text fill="#E6007E" font-family="Arial,Arial_MSFontService,sans-serif" font-weight="700" font-size="12" transform="translate(439.241 418)">W</text><path d="M678 436 678 564.518" stroke="#E6007E" stroke-width="4" stroke-miterlimit="8" stroke-dasharray="4 4" fill="none" fill-rule="evenodd"/><rect x="511" y="564" width="318" height="83" fill="#E6007E"/><text fill="#FFFFFF" font-family="Arial,Arial_MSFontService,sans-serif" font-weight="400" font-size="24" transform="translate(529.573 600)">All your code is accessible</text><text fill="#FFFFFF" font-family="Arial,Arial_MSFontService,sans-serif" font-weight="400" font-size="24" transform="translate(526.24 629)">on bus. Or in</text><text fill="#FFFFFF" font-family="Arial,Arial_MSFontService,sans-serif" font-weight="400" font-size="24" transform="translate(670.24 629)">xSPI</text><text fill="#FFFFFF" font-family="Arial,Arial_MSFontService,sans-serif" font-weight="400" font-size="24" transform="translate(727.573 629)">memory</text><text fill="#E6007E" font-family="Arial,Arial_MSFontService,sans-serif" font-weight="700" font-size="15" transform="translate(821.319 341)">App code</text><text fill="#E6007E" font-family="Arial,Arial_MSFontService,sans-serif" font-weight="700" font-size="15" transform="translate(821.319 359)">and data</text><path d="M894.666 368 822.333 368C816.637 368 812 372.733 812 378.554L812 455.447C812 461.267 816.637 466 822.333 466L876.583 466C877.268 466 877.926 465.723 878.411 465.228L904.244 438.845C904.729 438.349 905 437.679 905 436.978L905 378.553C905 372.733 900.363 368 894.666 368ZM879.168 456.993 879.167 456.993 879.167 444.895C879.169 441.982 881.481 439.621 884.334 439.618L896.181 439.618 879.168 456.993ZM899.833 434.34 884.333 434.34C878.637 434.34 874 439.073 874 444.894L874 460.724 822.333 460.724C819.481 460.721 817.169 458.36 817.166 455.447L817.166 378.554C817.168 375.641 819.48 373.279 822.333 373.277L894.668 373.277C897.52 373.28 899.831 375.64 899.834 378.553L899.834 434.34Z" fill="#E6007E" fill-rule="evenodd"/><text fill="#E6007E" font-family="Arial,Arial_MSFontService,sans-serif" font-weight="700" font-size="12" transform="translate(824.664 388)">A</text><text fill="#E6007E" font-family="Arial,Arial_MSFontService,sans-serif" font-weight="700" font-size="12" transform="translate(839.784 388)">B</text><text fill="#E6007E" font-family="Arial,Arial_MSFontService,sans-serif" font-weight="700" font-size="12" transform="translate(854.904 388)">C</text><text fill="#E6007E" font-family="Arial,Arial_MSFontService,sans-serif" font-weight="700" font-size="12" transform="translate(870.023 388)">D</text><text fill="#E6007E" font-family="Arial,Arial_MSFontService,sans-serif" font-weight="700" font-size="12" transform="translate(885.477 388)">E</text><text fill="#E6007E" font-family="Arial,Arial_MSFontService,sans-serif" font-weight="700" font-size="12" transform="translate(825.331 403)">F</text><text fill="#E6007E" font-family="Arial,Arial_MSFontService,sans-serif" font-weight="700" font-size="12" transform="translate(839.451 403)">G</text><text fill="#E6007E" font-family="Arial,Arial_MSFontService,sans-serif" font-weight="700" font-size="12" transform="translate(854.904 403)">H</text><text fill="#E6007E" font-family="Arial,Arial_MSFontService,sans-serif" font-weight="700" font-size="12" transform="translate(872.69 403)">I</text><text fill="#E6007E" font-family="Arial,Arial_MSFontService,sans-serif" font-weight="700" font-size="12" transform="translate(886.143 403)">J</text><text fill="#E6007E" font-family="Arial,Arial_MSFontService,sans-serif" font-weight="700" font-size="12" transform="translate(824.664 419)">K</text><text fill="#E6007E" font-family="Arial,Arial_MSFontService,sans-serif" font-weight="700" font-size="12" transform="translate(840.451 419)">L</text><text fill="#E6007E" font-family="Arial,Arial_MSFontService,sans-serif" font-weight="700" font-size="12" transform="translate(854.237 419)">M</text><text fill="#E6007E" font-family="Arial,Arial_MSFontService,sans-serif" font-weight="700" font-size="12" transform="translate(870.023 419)">N</text><text fill="#E6007E" font-family="Arial,Arial_MSFontService,sans-serif" font-weight="700" font-size="12" transform="translate(884.81 419)">O</text><text fill="#E6007E" font-family="Arial,Arial_MSFontService,sans-serif" font-weight="700" font-size="12" transform="translate(824.997 434)">P</text><text fill="#E6007E" font-family="Arial,Arial_MSFontService,sans-serif" font-weight="700" font-size="12" transform="translate(839.451 434)">Q</text><text fill="#E6007E" font-family="Arial,Arial_MSFontService,sans-serif" font-weight="700" font-size="12" transform="translate(854.904 434)">R</text><text fill="#E6007E" font-family="Arial,Arial_MSFontService,sans-serif" font-weight="700" font-size="12" transform="translate(870.357 434)">S</text><text fill="#E6007E" font-family="Arial,Arial_MSFontService,sans-serif" font-weight="700" font-size="12" transform="translate(885.81 434)">T</text><text fill="#E6007E" font-family="Arial,Arial_MSFontService,sans-serif" font-weight="700" font-size="12" transform="translate(824.664 449)">U</text><text fill="#E6007E" font-family="Arial,Arial_MSFontService,sans-serif" font-weight="700" font-size="12" transform="translate(840.117 449)">V</text><text fill="#E6007E" font-family="Arial,Arial_MSFontService,sans-serif" font-weight="700" font-size="12" transform="translate(853.57 449)">W</text></g></svg>