<svg width="1280" height="720" xmlns="http://www.w3.org/2000/svg" xmlns:xlink="http://www.w3.org/1999/xlink" overflow="hidden"><g><rect x="0" y="0" width="1280" height="720" fill="#FFFFFF"/><rect x="285" y="209" width="302" height="302" fill="#03234B"/><text fill="#FFFFFF" font-family="Arial,Arial_MSFontService,sans-serif" font-weight="400" font-size="24" transform="translate(373.883 237)">STM32H7S</text><rect x="549" y="368" width="38" height="136" fill="#49B170"/><text fill="#FFFFFF" font-family="Arial,Arial_MSFontService,sans-serif" font-weight="400" font-size="24" transform="translate(562.181 401)">x</text><text fill="#FFFFFF" font-family="Arial,Arial_MSFontService,sans-serif" font-weight="400" font-size="24" transform="translate(560.181 430)">S</text><text fill="#FFFFFF" font-family="Arial,Arial_MSFontService,sans-serif" font-weight="400" font-size="24" transform="translate(560.181 459)">P</text><text fill="#FFFFFF" font-family="Arial,Arial_MSFontService,sans-serif" font-weight="400" font-size="24" transform="translate(564.848 488)">I</text><rect x="761" y="209" width="227" height="302" fill="#3CB4E6"/><text fill="#FFFFFF" font-family="Arial,Arial_MSFontService,sans-serif" font-weight="400" font-size="24" transform="translate(849.023 237)">xSPI</text><text fill="#FFFFFF" font-family="Arial,Arial_MSFontService,sans-serif" font-weight="400" font-size="24" transform="translate(831.023 266)">memory</text><text fill="#FFFFFF" font-family="Arial,Arial_MSFontService,sans-serif" font-weight="400" font-size="24" transform="translate(843.023 295)">64MB</text><rect x="292" y="171" width="15" height="38" fill="#03234B"/><rect x="322" y="171" width="16" height="38" fill="#03234B"/><rect x="353" y="171" width="15" height="38" fill="#03234B"/><rect x="383" y="171" width="15" height="38" fill="#03234B"/><rect x="413" y="171" width="15" height="38" fill="#03234B"/><rect x="443" y="171" width="16" height="38" fill="#03234B"/><rect x="474" y="171" width="15" height="38" fill="#03234B"/><rect x="504" y="171" width="15" height="38" fill="#03234B"/><rect x="534" y="171" width="15" height="38" fill="#03234B"/><rect x="247" y="489" width="38" height="15" fill="#03234B"/><rect x="247" y="458" width="38" height="15" fill="#03234B"/><rect x="247" y="428" width="38" height="15" fill="#03234B"/><rect x="247" y="398" width="38" height="15" fill="#03234B"/><rect x="247" y="368" width="38" height="15" fill="#03234B"/><rect x="247" y="337" width="38" height="15" fill="#03234B"/><rect x="247" y="307" width="38" height="15" fill="#03234B"/><rect x="247" y="277" width="38" height="15" fill="#03234B"/><rect x="247" y="247" width="38" height="15" fill="#03234B"/><rect x="247" y="216" width="38" height="15" fill="#03234B"/><rect x="292" y="511" width="15" height="38" fill="#03234B"/><rect x="322" y="511" width="16" height="38" fill="#03234B"/><rect x="353" y="511" width="15" height="38" fill="#03234B"/><rect x="383" y="511" width="15" height="38" fill="#03234B"/><rect x="413" y="511" width="15" height="38" fill="#03234B"/><rect x="443" y="511" width="16" height="38" fill="#03234B"/><rect x="474" y="511" width="15" height="38" fill="#03234B"/><rect x="504" y="511" width="15" height="38" fill="#03234B"/><rect x="534" y="511" width="15" height="38" fill="#03234B"/><rect x="587" y="489" width="38" height="15" fill="#49B170"/><rect x="587" y="458" width="38" height="15" fill="#49B170"/><rect x="587" y="428" width="38" height="15" fill="#49B170"/><rect x="587" y="398" width="38" height="15" fill="#49B170"/><rect x="587" y="368" width="38" height="15" fill="#49B170"/><rect x="587" y="337" width="38" height="15" fill="#03234B"/><rect x="587" y="307" width="38" height="15" fill="#03234B"/><rect x="587" y="277" width="38" height="15" fill="#03234B"/><rect x="587" y="247" width="38" height="15" fill="#03234B"/><rect x="564" y="171" width="16" height="38" fill="#03234B"/><rect x="587" y="216" width="38" height="15" fill="#03234B"/><rect x="723" y="489" width="38" height="15" fill="#3CB4E6"/><rect x="723" y="458" width="38" height="15" fill="#3CB4E6"/><rect x="723" y="428" width="38" height="15" fill="#3CB4E6"/><rect x="723" y="398" width="38" height="15" fill="#3CB4E6"/><rect x="723" y="368" width="38" height="15" fill="#3CB4E6"/><rect x="988" y="489" width="38" height="15" fill="#3CB4E6"/><rect x="988" y="458" width="38" height="15" fill="#3CB4E6"/><rect x="988" y="428" width="38" height="15" fill="#3CB4E6"/><rect x="988" y="398" width="38" height="15" fill="#3CB4E6"/><rect x="988" y="368" width="38" height="15" fill="#3CB4E6"/><rect x="988" y="337" width="38" height="15" fill="#3CB4E6"/><rect x="988" y="307" width="38" height="15" fill="#3CB4E6"/><rect x="988" y="277" width="38" height="15" fill="#3CB4E6"/><rect x="988" y="247" width="38" height="15" fill="#3CB4E6"/><rect x="988" y="216" width="38" height="15" fill="#3CB4E6"/><rect x="723" y="337" width="38" height="15" fill="#3CB4E6"/><rect x="723" y="307" width="38" height="15" fill="#3CB4E6"/><rect x="723" y="277" width="38" height="15" fill="#3CB4E6"/><rect x="723" y="247" width="38" height="15" fill="#3CB4E6"/><rect x="723" y="216" width="38" height="15" fill="#3CB4E6"/><path d="M645 432 703.279 432 703.279 440 645 440ZM649 448 625 436 649 424ZM699.279 424 723.279 436 699.279 448Z" fill="#49B170"/><path d="M645 462 703.279 462 703.279 470 645 470ZM649 478 625 466 649 454ZM699.279 454 723.279 466 699.279 478Z" fill="#49B170"/><path d="M645 492 703.279 492 703.279 500 645 500ZM649 508 625 496 649 484ZM699.279 484 723.279 496 699.279 508Z" fill="#49B170"/><path d="M645 401 703.279 401 703.279 409 645 409ZM649 417 625 405 649 393ZM699.279 393 723.279 405 699.279 417Z" fill="#49B170"/><path d="M645 371 703.279 371 703.279 379 645 379ZM649 387 625 375 649 363ZM699.279 363 723.279 375 699.279 387Z" fill="#49B170"/><rect x="504" y="368" width="38" height="136" fill="#FFC000"/><text fill="#FFFFFF" font-family="Arial,Arial_MSFontService,sans-serif" font-weight="400" font-size="24" transform="translate(512.822 415)">M</text><text fill="#FFFFFF" font-family="Arial,Arial_MSFontService,sans-serif" font-weight="400" font-size="24" transform="translate(513.402 444)">C</text><text fill="#FFFFFF" font-family="Arial,Arial_MSFontService,sans-serif" font-weight="400" font-size="24" transform="translate(514.068 473)">E</text><path d="M7.93563e-07-2 4-2 4 2-7.93563e-07 2ZM8-2 12-2 12 2 8 2ZM16-1.99999 20-1.99999 20 2.00001 16 2.00001ZM24-1.99999 28-1.99999 28 2.00001 24 2.00001ZM32-1.99999 36-1.99999 36 2.00001 32 2.00001ZM40-1.99998 44-1.99998 44 2.00002 40 2.00002ZM48-1.99998 52-1.99998 52 2.00002 48 2.00002ZM56-1.99998 60-1.99998 60 2.00002 56 2.00002ZM64-1.99997 68-1.99997 68 2.00003 64 2.00003ZM72-1.99997 76-1.99997 76 2.00003 72 2.00003ZM80-1.99997 84-1.99997 84 2.00003 80 2.00003ZM88-1.99997 92-1.99996 92 2.00004 88 2.00003ZM96-1.99996 100-1.99996 100 2.00004 96 2.00004ZM104-1.99996 108-1.99996 108 2.00004 104 2.00004ZM112-1.99996 116-1.99995 116 2.00005 112 2.00004ZM120-1.99995 124-1.99995 124 2.00005 120 2.00005ZM128-1.99995 132-1.99995 132 2.00005 128 2.00005ZM136-1.99995 140-1.99994 140 2.00006 136 2.00005ZM144-1.99994 148-1.99994 148 2.00006 144 2.00006ZM152-1.99994 156-1.99994 156 2.00006 152 2.00006ZM160-1.99994 164-1.99993 164 2.00006 160 2.00006ZM168-1.99993 172-1.99993 172 2.00007 168 2.00007ZM176-1.99993 180-1.99993 180 2.00007 176 2.00007ZM184-1.99993 188-1.99993 188 2.00007 184 2.00007ZM192-1.99992 196-1.99992 196 2.00008 192 2.00008ZM200-1.99992 204-1.99992 204 2.00008 200 2.00008ZM208-1.99992 212-1.99992 212 2.00008 208 2.00008ZM216-1.99991 220-1.99991 220 2.00009 216 2.00009ZM224-1.99991 228-1.99991 228 2.00009 224 2.00009ZM232-1.99991 236-1.99991 236 2.00009 232 2.00009ZM240-1.9999 244-1.9999 244 2.0001 240 2.0001ZM248-1.9999 252-1.9999 252 2.0001 248 2.0001ZM252.596-5.9999 264.596 0.000104987 252.596 6.0001Z" fill="#FFC000" transform="matrix(-1 0 0 1 806.596 436)"/><path d="M886.777 383 815.222 383C809.588 383 805 387.685 805 393.446L805 469.555C805 475.315 809.588 480 815.222 480L868.889 480C869.566 480 870.217 479.726 870.697 479.235L896.252 453.122C896.731 452.632 897 451.968 897 451.274L897 393.445C897 387.685 892.412 383 886.777 383ZM871.445 471.085 871.445 471.085 871.445 459.111C871.447 456.227 873.734 453.89 876.556 453.887L888.276 453.887 871.445 471.085ZM891.888 448.663 876.555 448.663C870.921 448.663 866.333 453.348 866.333 459.11L866.333 474.778 815.222 474.778C812.4 474.775 810.114 472.438 810.11 469.555L810.11 393.446C810.113 390.563 812.4 388.225 815.222 388.223L886.779 388.223C889.6 388.226 891.887 390.562 891.89 393.445L891.89 448.663Z" fill="#FFC000" fill-rule="evenodd"/><text fill="#FFC000" font-family="Arial,Arial_MSFontService,sans-serif" font-weight="700" font-size="12" transform="translate(819.438 403)">!</text><text fill="#FFC000" font-family="Arial,Arial_MSFontService,sans-serif" font-weight="700" font-size="12" transform="translate(830.724 403)">@</text><text fill="#FFC000" font-family="Arial,Arial_MSFontService,sans-serif" font-weight="700" font-size="12" transform="translate(848.344 403)">#</text><text fill="#FFC000" font-family="Arial,Arial_MSFontService,sans-serif" font-weight="700" font-size="12" transform="translate(863.464 403)">$</text><text fill="#FFC000" font-family="Arial,Arial_MSFontService,sans-serif" font-weight="700" font-size="12" transform="translate(876.583 403)">%</text><text fill="#FFC000" font-family="Arial,Arial_MSFontService,sans-serif" font-weight="700" font-size="12" transform="translate(817.938 418)">^</text><text fill="#FFC000" font-family="Arial,Arial_MSFontService,sans-serif" font-weight="700" font-size="12" transform="translate(832.224 418)">&amp;</text><text fill="#FFC000" font-family="Arial,Arial_MSFontService,sans-serif" font-weight="700" font-size="12" transform="translate(849.344 418)">*</text><text fill="#FFC000" font-family="Arial,Arial_MSFontService,sans-serif" font-weight="700" font-size="12" transform="translate(864.797 418)">(</text><text fill="#FFC000" font-family="Arial,Arial_MSFontService,sans-serif" font-weight="700" font-size="12" transform="translate(879.917 418)">)</text><text fill="#FFC000" font-family="Arial,Arial_MSFontService,sans-serif" font-weight="700" font-size="12" transform="translate(818.104 433)">_</text><text fill="#FFC000" font-family="Arial,Arial_MSFontService,sans-serif" font-weight="700" font-size="12" transform="translate(833.057 433)">+</text><text fill="#FFC000" font-family="Arial,Arial_MSFontService,sans-serif" font-weight="700" font-size="12" transform="translate(849.677 433)">;</text><text fill="#FFC000" font-family="Arial,Arial_MSFontService,sans-serif" font-weight="700" font-size="12" transform="translate(864.797 433)">:</text><text fill="#FFC000" font-family="Arial,Arial_MSFontService,sans-serif" font-weight="700" font-size="12" transform="translate(880.25 433)">\</text><text fill="#FFC000" font-family="Arial,Arial_MSFontService,sans-serif" font-weight="700" font-size="12" transform="translate(819.771 448)">|</text><text fill="#FFC000" font-family="Arial,Arial_MSFontService,sans-serif" font-weight="700" font-size="12" transform="translate(833.557 448)">“</text><text fill="#FFC000" font-family="Arial,Arial_MSFontService,sans-serif" font-weight="700" font-size="12" transform="translate(848.01 448)">?</text><text fill="#FFC000" font-family="Arial,Arial_MSFontService,sans-serif" font-weight="700" font-size="12" transform="translate(863.297 448)">&lt;</text><text fill="#FFC000" font-family="Arial,Arial_MSFontService,sans-serif" font-weight="700" font-size="12" transform="translate(880.25 448)">/</text><text fill="#FFC000" font-family="Arial,Arial_MSFontService,sans-serif" font-weight="700" font-size="12" transform="translate(817.938 463)">&gt;</text><text fill="#FFC000" font-family="Arial,Arial_MSFontService,sans-serif" font-weight="700" font-size="12" transform="translate(834.557 463)">[</text><text fill="#FFC000" font-family="Arial,Arial_MSFontService,sans-serif" font-weight="700" font-size="12" transform="translate(849.344 463)">}</text><text fill="#FFC000" font-family="Arial,Arial_MSFontService,sans-serif" font-weight="700" font-size="15" transform="translate(793.238 356)">Encrypted app</text><text fill="#FFC000" font-family="Arial,Arial_MSFontService,sans-serif" font-weight="700" font-size="15" transform="translate(797.238 374)">code and data</text><rect x="307" y="398" width="91" height="75" fill="#8C0078"/><text fill="#FFFFFF" font-family="Arial,Arial_MSFontService,sans-serif" font-weight="400" font-size="24" transform="translate(326.724 444)">Core</text><path d="M1.98391e-06-2 4-2 4 2-1.98391e-06 2ZM8-1.99999 12-1.99999 12 2.00001 8 2.00001ZM16-1.99998 20-1.99998 20 2.00002 16 2.00002ZM24-1.99998 28-1.99997 28 2.00003 24 2.00002ZM32-1.99997 36-1.99996 36 2.00004 32 2.00003ZM40-1.99996 44-1.99996 44 2.00004 40 2.00004ZM48-1.99995 52-1.99995 52 2.00005 48 2.00005ZM56-1.99994 60-1.99994 60 2.00006 56 2.00006ZM64-1.99994 68-1.99993 68 2.00007 64 2.00006ZM72-1.99993 76-1.99992 76 2.00008 72 2.00007ZM80-1.99992 84-1.99992 84 2.00008 80 2.00008ZM88-1.99991 92-1.99991 92 2.00009 88 2.00009ZM93.8385-5.99991 105.839 0.000104987 93.8385 6.00009Z" fill="#E6007E" transform="matrix(-1 0 0 1 503.839 436)"/><text fill="#E6007E" font-family="Arial,Arial_MSFontService,sans-serif" font-weight="700" font-size="15" transform="translate(406.99 310)">App code</text><text fill="#E6007E" font-family="Arial,Arial_MSFontService,sans-serif" font-weight="700" font-size="15" transform="translate(406.99 328)">and data</text><path d="M479.777 337 408.222 337C402.588 337 398 341.733 398 347.554L398 424.447C398 430.267 402.588 435 408.222 435L461.889 435C462.566 435 463.217 434.723 463.697 434.228L489.252 407.845C489.731 407.349 490 406.679 490 405.978L490 347.553C490 341.733 485.412 337 479.777 337ZM464.445 425.993 464.445 425.993 464.445 413.895C464.447 410.982 466.734 408.621 469.556 408.618L481.276 408.618 464.445 425.993ZM484.888 403.34 469.555 403.34C463.921 403.34 459.333 408.073 459.333 413.894L459.333 429.724 408.222 429.724C405.4 429.721 403.114 427.36 403.11 424.447L403.11 347.554C403.113 344.641 405.4 342.279 408.222 342.277L479.779 342.277C482.6 342.28 484.887 344.64 484.89 347.553L484.89 403.34Z" fill="#E6007E" fill-rule="evenodd"/><text fill="#E6007E" font-family="Arial,Arial_MSFontService,sans-serif" font-weight="700" font-size="12" transform="translate(410.335 357)">A</text><text fill="#E6007E" font-family="Arial,Arial_MSFontService,sans-serif" font-weight="700" font-size="12" transform="translate(425.455 357)">B</text><text fill="#E6007E" font-family="Arial,Arial_MSFontService,sans-serif" font-weight="700" font-size="12" transform="translate(440.574 357)">C</text><text fill="#E6007E" font-family="Arial,Arial_MSFontService,sans-serif" font-weight="700" font-size="12" transform="translate(455.694 357)">D</text><text fill="#E6007E" font-family="Arial,Arial_MSFontService,sans-serif" font-weight="700" font-size="12" transform="translate(471.147 357)">E</text><text fill="#E6007E" font-family="Arial,Arial_MSFontService,sans-serif" font-weight="700" font-size="12" transform="translate(411.001 372)">F</text><text fill="#E6007E" font-family="Arial,Arial_MSFontService,sans-serif" font-weight="700" font-size="12" transform="translate(425.121 372)">G</text><text fill="#E6007E" font-family="Arial,Arial_MSFontService,sans-serif" font-weight="700" font-size="12" transform="translate(440.574 372)">H</text><text fill="#E6007E" font-family="Arial,Arial_MSFontService,sans-serif" font-weight="700" font-size="12" transform="translate(458.361 372)">I</text><text fill="#E6007E" font-family="Arial,Arial_MSFontService,sans-serif" font-weight="700" font-size="12" transform="translate(471.814 372)">J</text><text fill="#E6007E" font-family="Arial,Arial_MSFontService,sans-serif" font-weight="700" font-size="12" transform="translate(410.335 387)">K</text><text fill="#E6007E" font-family="Arial,Arial_MSFontService,sans-serif" font-weight="700" font-size="12" transform="translate(426.121 387)">L</text><text fill="#E6007E" font-family="Arial,Arial_MSFontService,sans-serif" font-weight="700" font-size="12" transform="translate(439.908 387)">M</text><text fill="#E6007E" font-family="Arial,Arial_MSFontService,sans-serif" font-weight="700" font-size="12" transform="translate(455.694 387)">N</text><text fill="#E6007E" font-family="Arial,Arial_MSFontService,sans-serif" font-weight="700" font-size="12" transform="translate(470.481 387)">O</text><text fill="#E6007E" font-family="Arial,Arial_MSFontService,sans-serif" font-weight="700" font-size="12" transform="translate(410.668 403)">P</text><text fill="#E6007E" font-family="Arial,Arial_MSFontService,sans-serif" font-weight="700" font-size="12" transform="translate(425.121 403)">Q</text><text fill="#E6007E" font-family="Arial,Arial_MSFontService,sans-serif" font-weight="700" font-size="12" transform="translate(440.574 403)">R</text><text fill="#E6007E" font-family="Arial,Arial_MSFontService,sans-serif" font-weight="700" font-size="12" transform="translate(456.027 403)">S</text><text fill="#E6007E" font-family="Arial,Arial_MSFontService,sans-serif" font-weight="700" font-size="12" transform="translate(471.481 403)">T</text><text fill="#E6007E" font-family="Arial,Arial_MSFontService,sans-serif" font-weight="700" font-size="12" transform="translate(410.335 418)">U</text><text fill="#E6007E" font-family="Arial,Arial_MSFontService,sans-serif" font-weight="700" font-size="12" transform="translate(425.788 418)">V</text><text fill="#E6007E" font-family="Arial,Arial_MSFontService,sans-serif" font-weight="700" font-size="12" transform="translate(439.241 418)">W</text><path d="M443 436 443 594.758" stroke="#E6007E" stroke-width="4" stroke-miterlimit="8" stroke-dasharray="4 4" fill="none" fill-rule="evenodd"/><rect x="285" y="572" width="317" height="83" fill="#E6007E"/><text fill="#FFFFFF" font-family="Arial,Arial_MSFontService,sans-serif" font-weight="400" font-size="24" transform="translate(327.443 593)">The Core and internal</text><text fill="#FFFFFF" font-family="Arial,Arial_MSFontService,sans-serif" font-weight="400" font-size="24" transform="translate(322.109 622)">peripheral will see only</text><text fill="#FFFFFF" font-family="Arial,Arial_MSFontService,sans-serif" font-weight="400" font-size="24" transform="translate(364.109 651)">decrypted data</text></g></svg>