<svg width="1280" height="720" xmlns="http://www.w3.org/2000/svg" xmlns:xlink="http://www.w3.org/1999/xlink" overflow="hidden"><g><rect x="0" y="0" width="1280" height="720" fill="#FFFFFF"/><rect x="277" y="209" width="303" height="302" fill="#03234B"/><text fill="#FFFFFF" font-family="Arial,Arial_MSFontService,sans-serif" font-weight="400" font-size="24" transform="translate(366.323 237)">STM32H7S</text><rect x="315" y="466" width="166" height="30" fill="#3CB4E6"/><text fill="#FFFFFF" font-family="Arial,Arial_MSFontService,sans-serif" font-weight="400" font-size="24" transform="translate(326.75 490)">FLASH 64KB</text><rect x="542" y="368" width="38" height="136" fill="#49B170"/><text fill="#FFFFFF" font-family="Arial,Arial_MSFontService,sans-serif" font-weight="400" font-size="24" transform="translate(554.621 401)">x</text><text fill="#FFFFFF" font-family="Arial,Arial_MSFontService,sans-serif" font-weight="400" font-size="24" transform="translate(552.621 430)">S</text><text fill="#FFFFFF" font-family="Arial,Arial_MSFontService,sans-serif" font-weight="400" font-size="24" transform="translate(552.621 459)">P</text><text fill="#FFFFFF" font-family="Arial,Arial_MSFontService,sans-serif" font-weight="400" font-size="24" transform="translate(557.288 488)">I</text><rect x="753" y="209" width="227" height="302" fill="#3CB4E6"/><text fill="#FFFFFF" font-family="Arial,Arial_MSFontService,sans-serif" font-weight="400" font-size="24" transform="translate(841.464 237)">xSPI</text><text fill="#FFFFFF" font-family="Arial,Arial_MSFontService,sans-serif" font-weight="400" font-size="24" transform="translate(823.464 266)">memory</text><text fill="#FFFFFF" font-family="Arial,Arial_MSFontService,sans-serif" font-weight="400" font-size="24" transform="translate(835.464 295)">64MB</text><rect x="285" y="171" width="15" height="38" fill="#03234B"/><rect x="315" y="171" width="15" height="38" fill="#03234B"/><rect x="345" y="171" width="15" height="38" fill="#03234B"/><rect x="375" y="171" width="16" height="38" fill="#03234B"/><rect x="406" y="171" width="15" height="38" fill="#03234B"/><rect x="436" y="171" width="15" height="38" fill="#03234B"/><rect x="466" y="171" width="15" height="38" fill="#03234B"/><rect x="496" y="171" width="15" height="38" fill="#03234B"/><rect x="527" y="171" width="15" height="38" fill="#03234B"/><rect x="239" y="489" width="38" height="15" fill="#03234B"/><rect x="239" y="458" width="38" height="15" fill="#03234B"/><rect x="239" y="428" width="38" height="15" fill="#03234B"/><rect x="239" y="398" width="38" height="15" fill="#03234B"/><rect x="239" y="368" width="38" height="15" fill="#03234B"/><rect x="239" y="337" width="38" height="15" fill="#03234B"/><rect x="239" y="307" width="38" height="15" fill="#03234B"/><rect x="239" y="277" width="38" height="15" fill="#03234B"/><rect x="239" y="247" width="38" height="15" fill="#03234B"/><rect x="239" y="216" width="38" height="15" fill="#03234B"/><rect x="285" y="511" width="15" height="38" fill="#03234B"/><rect x="315" y="511" width="15" height="38" fill="#03234B"/><rect x="345" y="511" width="15" height="38" fill="#03234B"/><rect x="375" y="511" width="16" height="38" fill="#03234B"/><rect x="406" y="511" width="15" height="38" fill="#03234B"/><rect x="436" y="511" width="15" height="38" fill="#03234B"/><rect x="466" y="511" width="15" height="38" fill="#03234B"/><rect x="496" y="511" width="15" height="38" fill="#03234B"/><rect x="527" y="511" width="15" height="38" fill="#03234B"/><rect x="580" y="489" width="37" height="15" fill="#49B170"/><rect x="580" y="458" width="37" height="15" fill="#49B170"/><rect x="580" y="428" width="37" height="15" fill="#49B170"/><rect x="580" y="398" width="37" height="15" fill="#49B170"/><rect x="580" y="368" width="37" height="15" fill="#49B170"/><rect x="580" y="337" width="37" height="15" fill="#03234B"/><rect x="580" y="307" width="37" height="15" fill="#03234B"/><rect x="580" y="277" width="37" height="15" fill="#03234B"/><rect x="580" y="247" width="37" height="15" fill="#03234B"/><rect x="557" y="171" width="15" height="38" fill="#03234B"/><rect x="580" y="216" width="37" height="15" fill="#03234B"/><rect x="716" y="489" width="37" height="15" fill="#3CB4E6"/><rect x="716" y="458" width="37" height="15" fill="#3CB4E6"/><rect x="716" y="428" width="37" height="15" fill="#3CB4E6"/><rect x="716" y="398" width="37" height="15" fill="#3CB4E6"/><rect x="716" y="368" width="37" height="15" fill="#3CB4E6"/><rect x="980" y="489" width="38" height="15" fill="#3CB4E6"/><rect x="980" y="458" width="38" height="15" fill="#3CB4E6"/><rect x="980" y="428" width="38" height="15" fill="#3CB4E6"/><rect x="980" y="398" width="38" height="15" fill="#3CB4E6"/><rect x="980" y="368" width="38" height="15" fill="#3CB4E6"/><rect x="980" y="337" width="38" height="15" fill="#3CB4E6"/><rect x="980" y="307" width="38" height="15" fill="#3CB4E6"/><rect x="980" y="277" width="38" height="15" fill="#3CB4E6"/><rect x="980" y="247" width="38" height="15" fill="#3CB4E6"/><rect x="980" y="216" width="38" height="15" fill="#3CB4E6"/><rect x="716" y="337" width="37" height="15" fill="#3CB4E6"/><rect x="716" y="307" width="37" height="15" fill="#3CB4E6"/><rect x="716" y="277" width="37" height="15" fill="#3CB4E6"/><rect x="716" y="247" width="37" height="15" fill="#3CB4E6"/><rect x="716" y="216" width="37" height="15" fill="#3CB4E6"/><path d="M637 432 695.279 432 695.279 440 637 440ZM641 448 617 436 641 424ZM691.279 424 715.279 436 691.279 448Z" fill="#49B170"/><path d="M637 462 695.279 462 695.279 470 637 470ZM641 478 617 466 641 454ZM691.279 454 715.279 466 691.279 478Z" fill="#49B170"/><path d="M637 492 695.279 492 695.279 500 637 500ZM641 508 617 496 641 484ZM691.279 484 715.279 496 691.279 508Z" fill="#49B170"/><path d="M637 401 695.279 401 695.279 409 637 409ZM641 417 617 405 641 393ZM691.279 393 715.279 405 691.279 417Z" fill="#49B170"/><path d="M637 371 695.279 371 695.279 379 637 379ZM641 387 617 375 641 363ZM691.279 363 715.279 375 691.279 387Z" fill="#49B170"/><rect x="421" y="572" width="378" height="53" fill="#E6007E"/><text fill="#FFFFFF" font-family="Arial,Arial_MSFontService,sans-serif" font-weight="400" font-size="24" transform="translate(438.427 592)">Project needed for bootloader to</text><text fill="#FFFFFF" font-family="Arial,Arial_MSFontService,sans-serif" font-weight="400" font-size="24" transform="translate(467.76 621)">configure external memory</text><path d="M421 496 421 624.518" stroke="#E6007E" stroke-width="4" stroke-miterlimit="8" stroke-dasharray="4 4" fill="none" fill-rule="evenodd"/></g></svg>