<svg width="1280" height="720" xmlns="http://www.w3.org/2000/svg" xmlns:xlink="http://www.w3.org/1999/xlink" overflow="hidden"><g><rect x="0" y="0" width="1280" height="720" fill="#FFFFFF"/><rect x="65" y="209" width="303" height="302" fill="#03234B"/><text fill="#FFFFFF" font-family="Arial,Arial_MSFontService,sans-serif" font-weight="400" font-size="24" transform="translate(115.979 237)">STM32H7xx(older)</text><rect x="103" y="269" width="227" height="227" fill="#3CB4E6"/><text fill="#FFFFFF" font-family="Arial,Arial_MSFontService,sans-serif" font-weight="400" font-size="24" transform="translate(177.979 377)">FLASH</text><text fill="#FFFFFF" font-family="Arial,Arial_MSFontService,sans-serif" font-weight="400" font-size="24" transform="translate(149.979 406)">512MB</text><text fill="#FFFFFF" font-family="Arial,Arial_MSFontService,sans-serif" font-weight="400" font-size="24" transform="translate(225.979 406)">-</text><text fill="#FFFFFF" font-family="Arial,Arial_MSFontService,sans-serif" font-weight="400" font-size="24" transform="translate(233.979 406)">2MB</text><rect x="73.0001" y="171" width="15" height="38" fill="#03234B"/><rect x="103" y="171" width="15" height="38" fill="#03234B"/><rect x="133" y="171" width="16" height="38" fill="#03234B"/><rect x="164" y="171" width="15" height="38" fill="#03234B"/><rect x="194" y="171" width="15" height="38" fill="#03234B"/><rect x="224" y="171" width="15" height="38" fill="#03234B"/><rect x="254" y="171" width="16" height="38" fill="#03234B"/><rect x="285" y="171" width="15" height="38" fill="#03234B"/><rect x="315" y="171" width="15" height="38" fill="#03234B"/><rect x="28" y="489" width="37" height="15" fill="#03234B"/><rect x="28" y="458" width="37" height="15" fill="#03234B"/><rect x="28" y="428" width="37" height="15" fill="#03234B"/><rect x="28" y="398" width="37" height="15" fill="#03234B"/><rect x="28" y="368" width="37" height="15" fill="#03234B"/><rect x="28" y="337" width="37" height="15" fill="#03234B"/><rect x="28" y="307" width="37" height="15" fill="#03234B"/><rect x="28" y="277" width="37" height="15" fill="#03234B"/><rect x="28" y="247" width="37" height="15" fill="#03234B"/><rect x="28" y="216" width="37" height="15" fill="#03234B"/><rect x="73.0001" y="511" width="15" height="38" fill="#03234B"/><rect x="103" y="511" width="15" height="38" fill="#03234B"/><rect x="133" y="511" width="16" height="38" fill="#03234B"/><rect x="164" y="511" width="15" height="38" fill="#03234B"/><rect x="194" y="511" width="15" height="38" fill="#03234B"/><rect x="224" y="511" width="15" height="38" fill="#03234B"/><rect x="254" y="511" width="16" height="38" fill="#03234B"/><rect x="285" y="511" width="15" height="38" fill="#03234B"/><rect x="315" y="511" width="15" height="38" fill="#03234B"/><rect x="368" y="489" width="38" height="15" fill="#03234B"/><rect x="368" y="458" width="38" height="15" fill="#03234B"/><rect x="368" y="428" width="38" height="15" fill="#03234B"/><rect x="368" y="398" width="38" height="15" fill="#03234B"/><rect x="368" y="368" width="38" height="15" fill="#03234B"/><rect x="368" y="337" width="38" height="15" fill="#03234B"/><rect x="368" y="307" width="38" height="15" fill="#03234B"/><rect x="368" y="277" width="38" height="15" fill="#03234B"/><rect x="368" y="247" width="38" height="15" fill="#03234B"/><rect x="345" y="171" width="15" height="38" fill="#03234B"/><rect x="368" y="216" width="38" height="15" fill="#03234B"/><rect x="111" y="572" width="378" height="53" fill="#E6007E"/><text fill="#FFFFFF" font-family="Arial,Arial_MSFontService,sans-serif" font-weight="400" font-size="24" transform="translate(125.138 592)">One project needed for complete</text><text fill="#FFFFFF" font-family="Arial,Arial_MSFontService,sans-serif" font-weight="400" font-size="24" transform="translate(242.471 621)">application</text><path d="M111 473 111 601.518" stroke="#E6007E" stroke-width="4" stroke-miterlimit="8" stroke-dasharray="4 4" fill="none" fill-rule="evenodd"/></g></svg>