<svg width="1280" height="720" xmlns="http://www.w3.org/2000/svg" xmlns:xlink="http://www.w3.org/1999/xlink" overflow="hidden"><g><rect x="0" y="0" width="1280" height="720" fill="#FFFFFF"/><rect x="65" y="209" width="303" height="302" fill="#03234B"/><text fill="#FFFFFF" font-family="Arial,Arial_MSFontService,sans-serif" font-weight="400" font-size="24" transform="translate(115.979 237)">STM32H7xx(older)</text><rect x="489" y="209" width="302" height="302" fill="#03234B"/><text fill="#FFFFFF" font-family="Arial,Arial_MSFontService,sans-serif" font-weight="400" font-size="24" transform="translate(578 237)">STM32H7S</text><rect x="103" y="269" width="227" height="227" fill="#3CB4E6"/><text fill="#FFFFFF" font-family="Arial,Arial_MSFontService,sans-serif" font-weight="400" font-size="24" transform="translate(177.979 377)">FLASH</text><text fill="#FFFFFF" font-family="Arial,Arial_MSFontService,sans-serif" font-weight="400" font-size="24" transform="translate(149.979 406)">512MB</text><text fill="#FFFFFF" font-family="Arial,Arial_MSFontService,sans-serif" font-weight="400" font-size="24" transform="translate(225.979 406)">-</text><text fill="#FFFFFF" font-family="Arial,Arial_MSFontService,sans-serif" font-weight="400" font-size="24" transform="translate(233.979 406)">2MB</text><rect x="527" y="466" width="166" height="30" fill="#3CB4E6"/><text fill="#FFFFFF" font-family="Arial,Arial_MSFontService,sans-serif" font-weight="400" font-size="24" transform="translate(538.427 490)">FLASH 64KB</text><rect x="753" y="368" width="38" height="136" fill="#49B170"/><text fill="#FFFFFF" font-family="Arial,Arial_MSFontService,sans-serif" font-weight="400" font-size="24" transform="translate(766.298 401)">x</text><text fill="#FFFFFF" font-family="Arial,Arial_MSFontService,sans-serif" font-weight="400" font-size="24" transform="translate(764.298 430)">S</text><text fill="#FFFFFF" font-family="Arial,Arial_MSFontService,sans-serif" font-weight="400" font-size="24" transform="translate(764.298 459)">P</text><text fill="#FFFFFF" font-family="Arial,Arial_MSFontService,sans-serif" font-weight="400" font-size="24" transform="translate(768.965 488)">I</text><rect x="965" y="209" width="227" height="302" fill="#3CB4E6"/><text fill="#FFFFFF" font-family="Arial,Arial_MSFontService,sans-serif" font-weight="400" font-size="24" transform="translate(1053.14 237)">xSPI</text><text fill="#FFFFFF" font-family="Arial,Arial_MSFontService,sans-serif" font-weight="400" font-size="24" transform="translate(1035.14 266)">memory</text><text fill="#FFFFFF" font-family="Arial,Arial_MSFontService,sans-serif" font-weight="400" font-size="24" transform="translate(1047.14 295)">64MB</text><rect x="73.0001" y="171" width="15" height="38" fill="#03234B"/><rect x="103" y="171" width="15" height="38" fill="#03234B"/><rect x="133" y="171" width="16" height="38" fill="#03234B"/><rect x="164" y="171" width="15" height="38" fill="#03234B"/><rect x="194" y="171" width="15" height="38" fill="#03234B"/><rect x="224" y="171" width="15" height="38" fill="#03234B"/><rect x="254" y="171" width="16" height="38" fill="#03234B"/><rect x="285" y="171" width="15" height="38" fill="#03234B"/><rect x="315" y="171" width="15" height="38" fill="#03234B"/><rect x="28" y="489" width="37" height="15" fill="#03234B"/><rect x="28" y="458" width="37" height="15" fill="#03234B"/><rect x="28" y="428" width="37" height="15" fill="#03234B"/><rect x="28" y="398" width="37" height="15" fill="#03234B"/><rect x="28" y="368" width="37" height="15" fill="#03234B"/><rect x="28" y="337" width="37" height="15" fill="#03234B"/><rect x="28" y="307" width="37" height="15" fill="#03234B"/><rect x="28" y="277" width="37" height="15" fill="#03234B"/><rect x="28" y="247" width="37" height="15" fill="#03234B"/><rect x="28" y="216" width="37" height="15" fill="#03234B"/><rect x="73.0001" y="511" width="15" height="38" fill="#03234B"/><rect x="103" y="511" width="15" height="38" fill="#03234B"/><rect x="133" y="511" width="16" height="38" fill="#03234B"/><rect x="164" y="511" width="15" height="38" fill="#03234B"/><rect x="194" y="511" width="15" height="38" fill="#03234B"/><rect x="224" y="511" width="15" height="38" fill="#03234B"/><rect x="254" y="511" width="16" height="38" fill="#03234B"/><rect x="285" y="511" width="15" height="38" fill="#03234B"/><rect x="315" y="511" width="15" height="38" fill="#03234B"/><rect x="368" y="489" width="38" height="15" fill="#03234B"/><rect x="368" y="458" width="38" height="15" fill="#03234B"/><rect x="368" y="428" width="38" height="15" fill="#03234B"/><rect x="368" y="398" width="38" height="15" fill="#03234B"/><rect x="368" y="368" width="38" height="15" fill="#03234B"/><rect x="368" y="337" width="38" height="15" fill="#03234B"/><rect x="368" y="307" width="38" height="15" fill="#03234B"/><rect x="368" y="277" width="38" height="15" fill="#03234B"/><rect x="368" y="247" width="38" height="15" fill="#03234B"/><rect x="496" y="171" width="15" height="38" fill="#03234B"/><rect x="527" y="171" width="15" height="38" fill="#03234B"/><rect x="557" y="171" width="15" height="38" fill="#03234B"/><rect x="587" y="171" width="15" height="38" fill="#03234B"/><rect x="617" y="171" width="15" height="38" fill="#03234B"/><rect x="648" y="171" width="15" height="38" fill="#03234B"/><rect x="678" y="171" width="15" height="38" fill="#03234B"/><rect x="708" y="171" width="15" height="38" fill="#03234B"/><rect x="738" y="171" width="15" height="38" fill="#03234B"/><rect x="451" y="489" width="38" height="15" fill="#03234B"/><rect x="451" y="458" width="38" height="15" fill="#03234B"/><rect x="451" y="428" width="38" height="15" fill="#03234B"/><rect x="451" y="398" width="38" height="15" fill="#03234B"/><rect x="451" y="368" width="38" height="15" fill="#03234B"/><rect x="451" y="337" width="38" height="15" fill="#03234B"/><rect x="451" y="307" width="38" height="15" fill="#03234B"/><rect x="451" y="277" width="38" height="15" fill="#03234B"/><rect x="451" y="247" width="38" height="15" fill="#03234B"/><rect x="451" y="216" width="38" height="15" fill="#03234B"/><rect x="496" y="511" width="15" height="38" fill="#03234B"/><rect x="527" y="511" width="15" height="38" fill="#03234B"/><rect x="557" y="511" width="15" height="38" fill="#03234B"/><rect x="587" y="511" width="15" height="38" fill="#03234B"/><rect x="617" y="511" width="15" height="38" fill="#03234B"/><rect x="648" y="511" width="15" height="38" fill="#03234B"/><rect x="678" y="511" width="15" height="38" fill="#03234B"/><rect x="708" y="511" width="15" height="38" fill="#03234B"/><rect x="738" y="511" width="15" height="38" fill="#03234B"/><rect x="791" y="489" width="38" height="15" fill="#49B170"/><rect x="791" y="458" width="38" height="15" fill="#49B170"/><rect x="791" y="428" width="38" height="15" fill="#49B170"/><rect x="791" y="398" width="38" height="15" fill="#49B170"/><rect x="791" y="368" width="38" height="15" fill="#49B170"/><rect x="791" y="337" width="38" height="15" fill="#03234B"/><rect x="791" y="307" width="38" height="15" fill="#03234B"/><rect x="791" y="277" width="38" height="15" fill="#03234B"/><rect x="791" y="247" width="38" height="15" fill="#03234B"/><rect x="345" y="171" width="15" height="38" fill="#03234B"/><rect x="368" y="216" width="38" height="15" fill="#03234B"/><rect x="769" y="171" width="15" height="38" fill="#03234B"/><rect x="791" y="216" width="38" height="15" fill="#03234B"/><rect x="927" y="489" width="38" height="15" fill="#3CB4E6"/><rect x="927" y="458" width="38" height="15" fill="#3CB4E6"/><rect x="927" y="428" width="38" height="15" fill="#3CB4E6"/><rect x="927" y="398" width="38" height="15" fill="#3CB4E6"/><rect x="927" y="368" width="38" height="15" fill="#3CB4E6"/><rect x="1192" y="489" width="38" height="15" fill="#3CB4E6"/><rect x="1192" y="458" width="38" height="15" fill="#3CB4E6"/><rect x="1192" y="428" width="38" height="15" fill="#3CB4E6"/><rect x="1192" y="398" width="38" height="15" fill="#3CB4E6"/><rect x="1192" y="368" width="38" height="15" fill="#3CB4E6"/><rect x="1192" y="337" width="38" height="15" fill="#3CB4E6"/><rect x="1192" y="307" width="38" height="15" fill="#3CB4E6"/><rect x="1192" y="277" width="38" height="15" fill="#3CB4E6"/><rect x="1192" y="247" width="38" height="15" fill="#3CB4E6"/><rect x="1192" y="216" width="38" height="15" fill="#3CB4E6"/><rect x="927" y="337" width="38" height="15" fill="#3CB4E6"/><rect x="927" y="307" width="38" height="15" fill="#3CB4E6"/><rect x="927" y="277" width="38" height="15" fill="#3CB4E6"/><rect x="927" y="247" width="38" height="15" fill="#3CB4E6"/><rect x="927" y="216" width="38" height="15" fill="#3CB4E6"/><path d="M849 432 907.279 432 907.279 440 849 440ZM853 448 829 436 853 424ZM903.279 424 927.279 436 903.279 448Z" fill="#49B170"/><path d="M849 462 907.279 462 907.279 470 849 470ZM853 478 829 466 853 454ZM903.279 454 927.279 466 903.279 478Z" fill="#49B170"/><path d="M849 492 907.279 492 907.279 500 849 500ZM853 508 829 496 853 484ZM903.279 484 927.279 496 903.279 508Z" fill="#49B170"/><path d="M849 401 907.279 401 907.279 409 849 409ZM853 417 829 405 853 393ZM903.279 393 927.279 405 903.279 417Z" fill="#49B170"/><path d="M849 371 907.279 371 907.279 379 849 379ZM853 387 829 375 853 363ZM903.279 363 927.279 375 903.279 387Z" fill="#49B170"/><rect x="254" y="572" width="378" height="53" fill="#E6007E"/><text fill="#FFFFFF" font-family="Arial,Arial_MSFontService,sans-serif" font-weight="400" font-size="24" transform="translate(272.109 592)">Project needed for bootloader to</text><text fill="#FFFFFF" font-family="Arial,Arial_MSFontService,sans-serif" font-weight="400" font-size="24" transform="translate(301.443 621)">configure external memory</text><path d="M632 496 632 624.518" stroke="#E6007E" stroke-width="4" stroke-miterlimit="8" stroke-dasharray="4 4" fill="none" fill-rule="evenodd"/></g></svg>