<svg width="1280" height="720" xmlns="http://www.w3.org/2000/svg" xmlns:xlink="http://www.w3.org/1999/xlink" overflow="hidden"><g><rect x="0" y="0" width="1280" height="720" fill="#FFFFFF"/><rect x="187" y="284" width="151" height="152" fill="#03234B"/><text fill="#FFFFFF" font-family="Arial,Arial_MSFontService,sans-serif" font-weight="400" font-size="27" transform="translate(211.104 370)">M7 Core</text><rect x="489" y="284" width="83" height="152" fill="#03234B"/><text fill="#FFFFFF" font-family="Arial,Arial_MSFontService,sans-serif" font-weight="400" font-size="27" transform="translate(498.577 370)">OSPI</text><rect x="640" y="284" width="121" height="152" fill="#03234B"/><text fill="#FFFFFF" font-family="Arial,Arial_MSFontService,sans-serif" font-weight="400" font-size="27" transform="translate(668.649 354)">OSPI</text><text fill="#FFFFFF" font-family="Arial,Arial_MSFontService,sans-serif" font-weight="400" font-size="27" transform="translate(652.396 386)">memory</text><path d="M338 343 479.159 343 479.159 347 338 347ZM477.159 339 489.159 345 477.159 351Z" fill="#03234B"/><path d="M338 257C338 251.477 342.477 247 348 247L365.667 247 365.667 247 407.167 247 494 247C499.523 247 504 251.477 504 257L504 282 504 282 504 297 504 297C504 302.523 499.523 307 494 307L407.167 307 389.901 337.011 365.667 307 348 307C342.477 307 338 302.523 338 297L338 297 338 282 338 282Z" fill="#E6007E" fill-rule="evenodd"/><text fill="#FFFFFF" font-family="Arial,Arial_MSFontService,sans-serif" font-weight="400" font-size="27" transform="translate(351.82 271)">Speculative</text><text fill="#FFFFFF" font-family="Arial,Arial_MSFontService,sans-serif" font-weight="400" font-size="27" transform="translate(394.153 303)">read</text><path d="M542 257C542 251.477 546.477 247 552 247L584.833 247 584.833 247 649.083 247 789 247C794.523 247 799 251.477 799 257L799 282 799 282 799 297 799 297C799 302.523 794.523 307 789 307L649.083 307 622.354 337.012 584.833 307 552 307C546.477 307 542 302.523 542 297L542 297 542 282 542 282Z" fill="#E6007E" fill-rule="evenodd"/><text fill="#FFFFFF" font-family="Arial,Arial_MSFontService,sans-serif" font-weight="400" font-size="27" transform="translate(554.648 271)">Infinite read (invalid</text><text fill="#FFFFFF" font-family="Arial,Arial_MSFontService,sans-serif" font-weight="400" font-size="27" transform="translate(605.895 303)">mem area)</text><path d="M572 358 630.021 358 630.021 362 572 362ZM628.021 354 640.021 360 628.021 366Z" fill="#03234B"/><path d="M345 430.167C345 424.552 349.552 420 355.167 420L372.833 420 396.338 379.475 414.583 420 501.833 420C507.448 420 512 424.552 512 430.167L512 430.167 512 430.167 512 445.417 512 470.833C512 476.448 507.448 481 501.833 481L414.583 481 372.833 481 372.833 481 355.167 481C349.552 481 345 476.448 345 470.833L345 445.417 345 430.167 345 430.167Z" fill="#E6007E" fill-rule="evenodd"/><text fill="#FFFFFF" font-family="Arial,Arial_MSFontService,sans-serif" font-weight="400" font-size="27" transform="translate(399.541 445)">Core</text><text fill="#FFFFFF" font-family="Arial,Arial_MSFontService,sans-serif" font-weight="400" font-size="27" transform="translate(389.795 477)">stalled</text><path d="M1.3891e-06-2 12-1.99999 12 2.00001-1.3891e-06 2ZM16-1.99999 28-1.99998 28 2.00002 16 2.00001ZM32-1.99998 44-1.99997 44 2.00003 32 2.00002ZM48-1.99997 60-1.99996 60 2.00004 48 2.00003ZM64-1.99996 76-1.99995 76 2.00005 64 2.00004ZM80-1.99994 92-1.99994 92 2.00006 80 2.00006ZM96-1.99993 108-1.99992 108 2.00008 96 2.00007ZM112-1.99992 124-1.99991 124 2.00009 112 2.00008ZM128-1.99991 140-1.9999 140 2.0001 128 2.00009ZM139.159-5.9999 151.159 0.000104987 139.159 6.0001Z" fill="#3CB4E6" transform="matrix(-1 0 0 1 489.159 375)"/><path d="M527 247C527 238.716 533.716 232 542 232 550.284 232 557 238.716 557 247 557 255.284 550.284 262 542 262 533.716 262 527 255.284 527 247Z" fill="#8C0078" fill-rule="evenodd"/><text fill="#FFFFFF" font-family="Arial,Arial_MSFontService,sans-serif" font-weight="400" font-size="19" transform="translate(536.58 253)">2</text><path d="M323 247C323 238.716 329.716 232 338 232 346.284 232 353 238.716 353 247 353 255.284 346.284 262 338 262 329.716 262 323 255.284 323 247Z" fill="#8C0078" fill-rule="evenodd"/><text fill="#FFFFFF" font-family="Arial,Arial_MSFontService,sans-serif" font-weight="400" font-size="19" transform="translate(332.516 253)">1</text><path d="M338 420.5C338 411.94 344.716 405 353 405 361.284 405 368 411.94 368 420.5 368 429.06 361.284 436 353 436 344.716 436 338 429.06 338 420.5Z" fill="#8C0078" fill-rule="evenodd"/><text fill="#FFFFFF" font-family="Arial,Arial_MSFontService,sans-serif" font-weight="400" font-size="19" transform="translate(347.632 427)">3</text><rect x="867.5" y="171.5" width="151" height="38" stroke="#021735" stroke-width="1.33333" stroke-miterlimit="8" fill="#03234B"/><text fill="#FFFFFF" font-family="Arial,Arial_MSFontService,sans-serif" font-weight="400" font-size="21" transform="translate(916.9 198)">Code</text><rect x="867.5" y="209.5" width="151" height="38" stroke="#021735" stroke-width="1.33333" stroke-miterlimit="8" fill="#03234B"/><text fill="#FFFFFF" font-family="Arial,Arial_MSFontService,sans-serif" font-weight="400" font-size="21" transform="translate(918.65 236)">RAM</text><rect x="867.5" y="247.5" width="151" height="37" stroke="#338150" stroke-width="1.33333" stroke-miterlimit="8" fill="#FFD300"/><text fill="#FFFFFF" font-family="Arial,Arial_MSFontService,sans-serif" font-weight="400" font-size="21" transform="translate(911.567 274)">Periph</text><rect x="867.5" y="284.5" width="151" height="76" stroke="#021735" stroke-width="1.33333" stroke-miterlimit="8" fill="#03234B"/><text fill="#FFFFFF" font-family="Arial,Arial_MSFontService,sans-serif" font-weight="400" font-size="21" transform="translate(900.234 330)">Ext RAM</text><rect x="867.5" y="360.5" width="151" height="76" stroke="#338150" stroke-width="1.33333" stroke-miterlimit="8" fill="#FFD300"/><text fill="#FFFFFF" font-family="Arial,Arial_MSFontService,sans-serif" font-weight="400" font-size="21" transform="translate(893.15 406)">Ext device</text><rect x="867.5" y="436.5" width="151" height="37" stroke="#021735" stroke-width="1.33333" stroke-miterlimit="8" fill="#FFD300"/><text fill="#FFFFFF" font-family="Arial,Arial_MSFontService,sans-serif" font-weight="400" font-size="19" transform="translate(882.817 461)">Core reg &amp; ST</text><text fill="#8C0078" font-family="Arial,Arial_MSFontService,sans-serif" font-weight="400" font-size="13" transform="translate(1019.94 219)">0x20000000</text><text fill="#8C0078" font-family="Arial,Arial_MSFontService,sans-serif" font-weight="400" font-size="13" transform="translate(1019.94 257)">0x40000000</text><text fill="#8C0078" font-family="Arial,Arial_MSFontService,sans-serif" font-weight="400" font-size="13" transform="translate(1019.94 295)">0x60000000</text><text fill="#8C0078" font-family="Arial,Arial_MSFontService,sans-serif" font-weight="400" font-size="13" transform="translate(1019.94 332)">0x80000000</text><text fill="#8C0078" font-family="Arial,Arial_MSFontService,sans-serif" font-weight="400" font-size="13" transform="translate(1019.94 370)">0xA0000000</text><text fill="#8C0078" font-family="Arial,Arial_MSFontService,sans-serif" font-weight="400" font-size="13" transform="translate(1019.94 408)">0xC0000000</text><text fill="#8C0078" font-family="Arial,Arial_MSFontService,sans-serif" font-weight="400" font-size="13" transform="translate(1019.94 446)">0xE0000000</text><text fill="#8C0078" font-family="Arial,Arial_MSFontService,sans-serif" font-weight="400" font-size="13" transform="translate(1019.94 484)">0xFFFFFFFF</text><text fill="#8C0078" font-family="Arial,Arial_MSFontService,sans-serif" font-weight="400" font-size="13" transform="translate(1019.94 181)">0x0</text></g></svg>