<svg width="1280" height="720" xmlns="http://www.w3.org/2000/svg" xmlns:xlink="http://www.w3.org/1999/xlink" overflow="hidden"><g><rect x="0" y="0" width="1280" height="720" fill="#FFFFFF"/><rect x="903.5" y="224.5" width="152" height="38" stroke="#021735" stroke-width="1.33333" stroke-miterlimit="8" fill="#03234B"/><text fill="#FFFFFF" font-family="Arial,Arial_MSFontService,sans-serif" font-weight="400" font-size="21" transform="translate(953.605 251)">Code</text><rect x="903.5" y="262.5" width="152" height="38" stroke="#021735" stroke-width="1.33333" stroke-miterlimit="8" fill="#03234B"/><text fill="#FFFFFF" font-family="Arial,Arial_MSFontService,sans-serif" font-weight="400" font-size="21" transform="translate(955.355 289)">RAM</text><rect x="903.5" y="300.5" width="152" height="37" stroke="#338150" stroke-width="1.33333" stroke-miterlimit="8" fill="#FFD300"/><text fill="#FFFFFF" font-family="Arial,Arial_MSFontService,sans-serif" font-weight="400" font-size="21" transform="translate(948.272 327)">Periph</text><rect x="903.5" y="337.5" width="152" height="76" stroke="#021735" stroke-width="1.33333" stroke-miterlimit="8" fill="#03234B"/><text fill="#FFFFFF" font-family="Arial,Arial_MSFontService,sans-serif" font-weight="400" font-size="21" transform="translate(936.939 383)">Ext RAM</text><rect x="903.5" y="413.5" width="152" height="75" stroke="#338150" stroke-width="1.33333" stroke-miterlimit="8" fill="#FFD300"/><text fill="#FFFFFF" font-family="Arial,Arial_MSFontService,sans-serif" font-weight="400" font-size="21" transform="translate(929.855 459)">Ext device</text><rect x="903.5" y="488.5" width="152" height="38" stroke="#021735" stroke-width="1.33333" stroke-miterlimit="8" fill="#FFD300"/><text fill="#FFFFFF" font-family="Arial,Arial_MSFontService,sans-serif" font-weight="400" font-size="19" transform="translate(919.522 514)">Core reg &amp; ST</text><text fill="#8C0078" font-family="Arial,Arial_MSFontService,sans-serif" font-weight="400" font-size="13" transform="translate(1056.64 272)">0x20000000</text><text fill="#8C0078" font-family="Arial,Arial_MSFontService,sans-serif" font-weight="400" font-size="13" transform="translate(1056.64 310)">0x40000000</text><text fill="#8C0078" font-family="Arial,Arial_MSFontService,sans-serif" font-weight="400" font-size="13" transform="translate(1056.64 348)">0x60000000</text><text fill="#8C0078" font-family="Arial,Arial_MSFontService,sans-serif" font-weight="400" font-size="13" transform="translate(1056.64 385)">0x80000000</text><text fill="#8C0078" font-family="Arial,Arial_MSFontService,sans-serif" font-weight="400" font-size="13" transform="translate(1056.64 423)">0xA0000000</text><text fill="#8C0078" font-family="Arial,Arial_MSFontService,sans-serif" font-weight="400" font-size="13" transform="translate(1056.64 461)">0xC0000000</text><text fill="#8C0078" font-family="Arial,Arial_MSFontService,sans-serif" font-weight="400" font-size="13" transform="translate(1056.64 499)">0xE0000000</text><text fill="#8C0078" font-family="Arial,Arial_MSFontService,sans-serif" font-weight="400" font-size="13" transform="translate(1056.64 536)">0xFFFFFFFF</text><text fill="#8C0078" font-family="Arial,Arial_MSFontService,sans-serif" font-weight="400" font-size="13" transform="translate(1056.64 234)">0x0</text><rect x="495.5" y="224.5" width="151" height="38" stroke="#2983A9" stroke-width="1.33333" stroke-miterlimit="8" fill="#3CB4E6"/><rect x="495.5" y="262.5" width="151" height="38" stroke="#2983A9" stroke-width="1.33333" stroke-miterlimit="8" fill="#3CB4E6"/><rect x="495.5" y="300.5" width="151" height="37" stroke="#2983A9" stroke-width="1.33333" stroke-miterlimit="8" fill="#3CB4E6"/><rect x="495.5" y="488.5" width="151" height="38" stroke="#2983A9" stroke-width="1.33333" stroke-miterlimit="8" fill="#3CB4E6"/><rect x="495.5" y="337.5" width="151" height="76" stroke="#A9005B" stroke-width="1.33333" stroke-miterlimit="8" fill="#E6007E"/><text fill="#FFFFFF" font-family="Arial,Arial_MSFontService,sans-serif" font-weight="400" font-size="21" transform="translate(506.91 383)">Not</text><text fill="#FFFFFF" font-family="Arial,Arial_MSFontService,sans-serif" font-weight="400" font-size="21" transform="translate(546.077 383)">accesible</text><rect x="495.5" y="413.5" width="151" height="38" stroke="#2983A9" stroke-width="1.33333" stroke-miterlimit="8" fill="#3CB4E6"/><rect x="495.5" y="451.5" width="151" height="37" stroke="#A9005B" stroke-width="1.33333" stroke-miterlimit="8" fill="#E6007E"/><text fill="#FFFFFF" font-family="Arial,Arial_MSFontService,sans-serif" font-weight="400" font-size="21" transform="translate(506.91 478)">Not</text><text fill="#FFFFFF" font-family="Arial,Arial_MSFontService,sans-serif" font-weight="400" font-size="21" transform="translate(546.077 478)">accesible</text><rect x="495" y="163" width="151" height="38" fill="#03234B"/><text fill="#FFFFFF" font-family="Arial,Arial_MSFontService,sans-serif" font-weight="400" font-size="27" transform="translate(522.66 192)">region 0</text><rect x="677.5" y="224.5" width="151" height="38" stroke="#2983A9" stroke-width="1.33333" stroke-miterlimit="8" fill="#3CB4E6"/><rect x="677.5" y="262.5" width="151" height="37" stroke="#2983A9" stroke-width="1.33333" stroke-miterlimit="8" fill="#3CB4E6"/><rect x="677.5" y="299.5" width="151" height="38" stroke="#2983A9" stroke-width="1.33333" stroke-miterlimit="8" fill="#3CB4E6"/><rect x="677.5" y="488.5" width="151" height="38" stroke="#2983A9" stroke-width="1.33333" stroke-miterlimit="8" fill="#3CB4E6"/><rect x="677.5" y="337.5" width="151" height="76" stroke="#A9005B" stroke-width="1.33333" stroke-miterlimit="8" fill="#E6007E"/><text fill="#FFFFFF" font-family="Arial,Arial_MSFontService,sans-serif" font-weight="400" font-size="21" transform="translate(688.348 383)">Not</text><text fill="#FFFFFF" font-family="Arial,Arial_MSFontService,sans-serif" font-weight="400" font-size="21" transform="translate(727.514 383)">accesible</text><rect x="677.5" y="413.5" width="151" height="38" stroke="#2983A9" stroke-width="1.33333" stroke-miterlimit="8" fill="#3CB4E6"/><rect x="677.5" y="451.5" width="151" height="37" stroke="#A9005B" stroke-width="1.33333" stroke-miterlimit="8" fill="#E6007E"/><text fill="#FFFFFF" font-family="Arial,Arial_MSFontService,sans-serif" font-weight="400" font-size="21" transform="translate(688.348 478)">Not</text><text fill="#FFFFFF" font-family="Arial,Arial_MSFontService,sans-serif" font-weight="400" font-size="21" transform="translate(727.514 478)">accesible</text><rect x="677" y="163" width="151" height="38" fill="#03234B"/><text fill="#FFFFFF" font-family="Arial,Arial_MSFontService,sans-serif" font-weight="400" font-size="27" transform="translate(686.431 192)">MPU result</text><rect x="117" y="269" width="151" height="151" fill="#03234B"/><text fill="#FFFFFF" font-family="Arial,Arial_MSFontService,sans-serif" font-weight="400" font-size="27" transform="translate(141.793 355)">M7 Core</text><rect x="926" y="398" width="129" height="15" fill="#49B170"/><text fill="#FFFFFF" font-family="Arial,Arial_MSFontService,sans-serif" font-weight="400" font-size="27" transform="translate(962.195 415)">xSPI</text><path d="M268 402 661.234 402 661.234 408 268 408ZM658.234 396 676.234 405 658.234 414Z" fill="#49B170"/><path d="M669.066 397.55 676.55 390.066 684.5 398.016 692.45 390.066 699.934 397.55 691.984 405.5 699.934 413.45 692.45 420.934 684.5 412.984 676.55 420.934 669.066 413.45 677.016 405.5Z" fill="#FF0000" fill-rule="evenodd"/></g></svg>