<svg width="1280" height="720" xmlns="http://www.w3.org/2000/svg" xmlns:xlink="http://www.w3.org/1999/xlink" overflow="hidden"><g><rect x="0" y="0" width="1280" height="720" fill="#FFFFFF"/><rect x="300" y="209" width="302" height="302" fill="#03234B"/><text fill="#FFFFFF" font-family="Arial,Arial_MSFontService,sans-serif" font-weight="400" font-size="24" transform="translate(389.003 237)">STM32H7S</text><rect x="338" y="466" width="166" height="30" fill="#3CB4E6"/><rect x="564" y="368" width="38" height="136" fill="#49B170"/><text fill="#FFFFFF" font-family="Arial,Arial_MSFontService,sans-serif" font-weight="400" font-size="24" transform="translate(577.301 401)">x</text><text fill="#FFFFFF" font-family="Arial,Arial_MSFontService,sans-serif" font-weight="400" font-size="24" transform="translate(575.301 430)">S</text><text fill="#FFFFFF" font-family="Arial,Arial_MSFontService,sans-serif" font-weight="400" font-size="24" transform="translate(575.301 459)">P</text><text fill="#FFFFFF" font-family="Arial,Arial_MSFontService,sans-serif" font-weight="400" font-size="24" transform="translate(579.967 488)">I</text><rect x="776" y="209" width="227" height="302" fill="#3CB4E6"/><text fill="#FFFFFF" font-family="Arial,Arial_MSFontService,sans-serif" font-weight="400" font-size="24" transform="translate(864.143 237)">xSPI</text><text fill="#FFFFFF" font-family="Arial,Arial_MSFontService,sans-serif" font-weight="400" font-size="24" transform="translate(846.143 266)">memory</text><text fill="#FFFFFF" font-family="Arial,Arial_MSFontService,sans-serif" font-weight="400" font-size="24" transform="translate(858.143 295)">64MB</text><rect x="307" y="171" width="15" height="38" fill="#03234B"/><rect x="338" y="171" width="15" height="38" fill="#03234B"/><rect x="368" y="171" width="15" height="38" fill="#03234B"/><rect x="398" y="171" width="15" height="38" fill="#03234B"/><rect x="428" y="171" width="15" height="38" fill="#03234B"/><rect x="459" y="171" width="15" height="38" fill="#03234B"/><rect x="489" y="171" width="15" height="38" fill="#03234B"/><rect x="519" y="171" width="15" height="38" fill="#03234B"/><rect x="549" y="171" width="15" height="38" fill="#03234B"/><rect x="262" y="489" width="38" height="15" fill="#03234B"/><rect x="262" y="458" width="38" height="15" fill="#03234B"/><rect x="262" y="428" width="38" height="15" fill="#03234B"/><rect x="262" y="398" width="38" height="15" fill="#03234B"/><rect x="262" y="368" width="38" height="15" fill="#03234B"/><rect x="262" y="337" width="38" height="15" fill="#03234B"/><rect x="262" y="307" width="38" height="15" fill="#03234B"/><rect x="262" y="277" width="38" height="15" fill="#03234B"/><rect x="262" y="247" width="38" height="15" fill="#03234B"/><rect x="262" y="216" width="38" height="15" fill="#03234B"/><rect x="307" y="511" width="15" height="38" fill="#03234B"/><rect x="338" y="511" width="15" height="38" fill="#03234B"/><rect x="368" y="511" width="15" height="38" fill="#03234B"/><rect x="398" y="511" width="15" height="38" fill="#03234B"/><rect x="428" y="511" width="15" height="38" fill="#03234B"/><rect x="459" y="511" width="15" height="38" fill="#03234B"/><rect x="489" y="511" width="15" height="38" fill="#03234B"/><rect x="519" y="511" width="15" height="38" fill="#03234B"/><rect x="549" y="511" width="15" height="38" fill="#03234B"/><rect x="602" y="489" width="38" height="15" fill="#49B170"/><rect x="602" y="458" width="38" height="15" fill="#03234B"/><rect x="602" y="428" width="38" height="15" fill="#03234B"/><rect x="602" y="398" width="38" height="15" fill="#03234B"/><rect x="602" y="368" width="38" height="15" fill="#03234B"/><rect x="602" y="337" width="38" height="15" fill="#03234B"/><rect x="602" y="307" width="38" height="15" fill="#03234B"/><rect x="602" y="277" width="38" height="15" fill="#03234B"/><rect x="602" y="247" width="38" height="15" fill="#03234B"/><rect x="580" y="171" width="15" height="38" fill="#03234B"/><rect x="602" y="216" width="38" height="15" fill="#03234B"/><rect x="738" y="489" width="38" height="15" fill="#3CB4E6"/><rect x="738" y="458" width="38" height="15" fill="#3CB4E6"/><rect x="738" y="428" width="38" height="15" fill="#3CB4E6"/><rect x="738" y="398" width="38" height="15" fill="#3CB4E6"/><rect x="738" y="368" width="38" height="15" fill="#3CB4E6"/><rect x="1003" y="489" width="38" height="15" fill="#3CB4E6"/><rect x="1003" y="458" width="38" height="15" fill="#3CB4E6"/><rect x="1003" y="428" width="38" height="15" fill="#3CB4E6"/><rect x="1003" y="398" width="38" height="15" fill="#3CB4E6"/><rect x="1003" y="368" width="38" height="15" fill="#3CB4E6"/><rect x="1003" y="337" width="38" height="15" fill="#3CB4E6"/><rect x="1003" y="307" width="38" height="15" fill="#3CB4E6"/><rect x="1003" y="277" width="38" height="15" fill="#3CB4E6"/><rect x="1003" y="247" width="38" height="15" fill="#3CB4E6"/><rect x="1003" y="216" width="38" height="15" fill="#3CB4E6"/><rect x="738" y="337" width="38" height="15" fill="#3CB4E6"/><rect x="738" y="307" width="38" height="15" fill="#3CB4E6"/><rect x="738" y="277" width="38" height="15" fill="#3CB4E6"/><rect x="738" y="247" width="38" height="15" fill="#3CB4E6"/><rect x="738" y="216" width="38" height="15" fill="#3CB4E6"/><path d="M660 492 718.279 492 718.279 500 660 500ZM664 508 640 496 664 484ZM714.279 484 738.279 496 714.279 508Z" fill="#49B170"/><path d="M504 466 504 594.518" stroke="#E6007E" stroke-width="4" stroke-miterlimit="8" stroke-dasharray="4 4" fill="none" fill-rule="evenodd"/><text fill="#FFFFFF" font-family="Arial,Arial_MSFontService,sans-serif" font-weight="400" font-size="24" transform="translate(347.204 456)">FLASH 64KB</text><rect x="466" y="466" width="38" height="30" fill="#E6007E"/><rect x="338" y="564" width="529" height="98" fill="#E6007E"/><text fill="#FFFFFF" font-family="Arial,Arial_MSFontService,sans-serif" font-weight="400" font-size="24" transform="translate(483.534 593)">EXTMEM_MANAGER</text><text fill="#FFFFFF" font-family="Arial,Arial_MSFontService,sans-serif" font-weight="400" font-size="24" transform="translate(355.534 622)">initialize</text><text fill="#FFFFFF" font-family="Arial,Arial_MSFontService,sans-serif" font-weight="400" font-size="24" transform="translate(447.534 622)">xSPI</text><text fill="#FFFFFF" font-family="Arial,Arial_MSFontService,sans-serif" font-weight="400" font-size="24" transform="translate(504.867 622)">in SPI mode and can access the</text><text fill="#FFFFFF" font-family="Arial,Arial_MSFontService,sans-serif" font-weight="400" font-size="24" transform="translate(558.867 651)">memory</text></g></svg>