<svg width="1280" height="720" xmlns="http://www.w3.org/2000/svg" xmlns:xlink="http://www.w3.org/1999/xlink" overflow="hidden"><g><rect x="0" y="0" width="1280" height="720" fill="#FFFFFF"/><rect x="247" y="209" width="302" height="302" fill="#03234B"/><text fill="#FFFFFF" font-family="Arial,Arial_MSFontService,sans-serif" font-weight="400" font-size="24" transform="translate(336.083 237)">STM32H7S</text><rect x="511" y="368" width="38" height="143" fill="#49B170"/><text fill="#FFFFFF" font-family="Arial,Arial_MSFontService,sans-serif" font-weight="400" font-size="24" transform="translate(524.381 405)">x</text><text fill="#FFFFFF" font-family="Arial,Arial_MSFontService,sans-serif" font-weight="400" font-size="24" transform="translate(522.381 434)">S</text><text fill="#FFFFFF" font-family="Arial,Arial_MSFontService,sans-serif" font-weight="400" font-size="24" transform="translate(522.381 463)">P</text><text fill="#FFFFFF" font-family="Arial,Arial_MSFontService,sans-serif" font-weight="400" font-size="24" transform="translate(527.048 492)">I</text><rect x="723" y="239" width="227" height="302" fill="#3CB4E6"/><text fill="#FFFFFF" font-family="Arial,Arial_MSFontService,sans-serif" font-weight="400" font-size="24" transform="translate(811.224 267)">xSPI</text><text fill="#FFFFFF" font-family="Arial,Arial_MSFontService,sans-serif" font-weight="400" font-size="24" transform="translate(793.224 296)">memory</text><text fill="#FFFFFF" font-family="Arial,Arial_MSFontService,sans-serif" font-weight="400" font-size="24" transform="translate(805.224 325)">64MB</text><rect x="254" y="171" width="16" height="38" fill="#FFD200"/><rect x="285" y="171" width="15" height="38" fill="#03234B"/><rect x="315" y="171" width="15" height="38" fill="#03234B"/><rect x="345" y="171" width="15" height="38" fill="#03234B"/><rect x="375" y="171" width="16" height="38" fill="#03234B"/><rect x="406" y="171" width="15" height="38" fill="#03234B"/><rect x="436" y="171" width="15" height="38" fill="#03234B"/><rect x="466" y="171" width="15" height="38" fill="#03234B"/><rect x="496" y="171" width="15" height="38" fill="#03234B"/><rect x="209" y="489" width="38" height="15" fill="#03234B"/><rect x="209" y="458" width="38" height="15" fill="#03234B"/><rect x="209" y="428" width="38" height="15" fill="#03234B"/><rect x="209" y="398" width="38" height="15" fill="#03234B"/><rect x="209" y="368" width="38" height="15" fill="#03234B"/><rect x="209" y="337" width="38" height="15" fill="#03234B"/><rect x="209" y="307" width="38" height="15" fill="#03234B"/><rect x="209" y="277" width="38" height="15" fill="#03234B"/><rect x="209" y="247" width="38" height="15" fill="#03234B"/><rect x="209" y="216" width="38" height="15" fill="#03234B"/><rect x="254" y="511" width="16" height="38" fill="#03234B"/><rect x="285" y="511" width="15" height="38" fill="#03234B"/><rect x="315" y="511" width="15" height="38" fill="#03234B"/><rect x="345" y="511" width="15" height="38" fill="#03234B"/><rect x="375" y="511" width="16" height="38" fill="#03234B"/><rect x="406" y="511" width="15" height="38" fill="#03234B"/><rect x="436" y="511" width="15" height="38" fill="#03234B"/><rect x="466" y="511" width="15" height="38" fill="#03234B"/><rect x="496" y="511" width="15" height="38" fill="#03234B"/><rect x="549" y="489" width="38" height="15" fill="#49B170"/><rect x="549" y="458" width="38" height="15" fill="#49B170"/><rect x="549" y="428" width="38" height="15" fill="#49B170"/><rect x="549" y="398" width="38" height="15" fill="#49B170"/><rect x="549" y="368" width="38" height="15" fill="#49B170"/><rect x="549" y="337" width="38" height="15" fill="#03234B"/><rect x="549" y="307" width="38" height="15" fill="#03234B"/><rect x="549" y="277" width="38" height="15" fill="#03234B"/><rect x="549" y="247" width="38" height="15" fill="#03234B"/><rect x="527" y="171" width="15" height="38" fill="#03234B"/><rect x="549" y="216" width="38" height="15" fill="#03234B"/><rect x="685" y="519" width="38" height="15" fill="#49B170"/><rect x="685" y="489" width="38" height="15" fill="#49B170"/><rect x="685" y="458" width="38" height="15" fill="#49B170"/><rect x="685" y="428" width="38" height="15" fill="#49B170"/><rect x="685" y="398" width="38" height="15" fill="#49B170"/><rect x="950" y="519" width="38" height="15" fill="#3CB4E6"/><rect x="950" y="489" width="38" height="15" fill="#3CB4E6"/><rect x="950" y="458" width="38" height="15" fill="#3CB4E6"/><rect x="950" y="428" width="38" height="15" fill="#3CB4E6"/><rect x="950" y="398" width="38" height="15" fill="#3CB4E6"/><rect x="950" y="368" width="38" height="15" fill="#3CB4E6"/><rect x="950" y="337" width="38" height="15" fill="#3CB4E6"/><rect x="950" y="307" width="38" height="15" fill="#3CB4E6"/><rect x="950" y="277" width="38" height="15" fill="#3CB4E6"/><rect x="950" y="247" width="38" height="15" fill="#3CB4E6"/><rect x="685" y="368" width="38" height="15" fill="#49B170"/><rect x="685" y="337" width="38" height="15" fill="#3CB4E6"/><rect x="685" y="307" width="38" height="15" fill="#3CB4E6"/><rect x="685" y="277" width="38" height="15" fill="#3CB4E6"/><rect x="685" y="247" width="38" height="15" fill="#3CB4E6"/><path d="M607 432 665.279 432 665.279 440 607 440ZM611 448 587 436 611 424ZM661.279 424 685.279 436 661.279 448Z" fill="#49B170"/><path d="M607 462 665.279 462 665.279 470 607 470ZM611 478 587 466 611 454ZM661.279 454 685.279 466 661.279 478Z" fill="#49B170"/><path d="M607 492 665.279 492 665.279 500 607 500ZM611 508 587 496 611 484ZM661.279 484 685.279 496 661.279 508Z" fill="#49B170"/><path d="M607 401 665.279 401 665.279 409 607 409ZM611 417 587 405 611 393ZM661.279 393 685.279 405 661.279 417Z" fill="#49B170"/><path d="M607 371 665.279 371 665.279 379 607 379ZM611 387 587 375 611 363ZM661.279 363 685.279 375 661.279 387Z" fill="#49B170"/><rect x="527" y="511" width="15" height="38" fill="#49B170"/><rect x="663" y="557" width="181" height="60" fill="#49B170"/><text fill="#FFFFFF" font-family="Arial,Arial_MSFontService,sans-serif" font-weight="400" font-size="24" transform="translate(697.398 595)">1.8V PWR</text><path d="M542 526 685.638 526" stroke="#49B170" stroke-width="4" stroke-miterlimit="8" fill="none" fill-rule="evenodd"/><path d="M0 0 0.000104987 52.9193" stroke="#49B170" stroke-width="4" stroke-miterlimit="8" fill="none" fill-rule="evenodd" transform="matrix(1 0 0 -1 632 586.919)"/><path d="M625.5 527C625.5 522.858 628.858 519.5 633 519.5 637.142 519.5 640.5 522.858 640.5 527 640.5 531.142 637.142 534.5 633 534.5 628.858 534.5 625.5 531.142 625.5 527Z" stroke="#49B170" stroke-width="1.33333" stroke-miterlimit="8" fill="#49B170" fill-rule="evenodd"/><rect x="202" y="65" width="181" height="68" fill="#FFD200"/><text fill="#FFFFFF" font-family="Arial,Arial_MSFontService,sans-serif" font-weight="400" font-size="24" transform="translate(236.245 108)">3.3V PWR</text><path d="M0 0 0.000104987 37.7995" stroke="#FFD200" stroke-width="4" stroke-miterlimit="8" fill="none" fill-rule="evenodd" transform="matrix(1 0 0 -1 262 170.799)"/><path d="M632 587 662.24 587" stroke="#49B170" stroke-width="4" stroke-miterlimit="8" fill="none" fill-rule="evenodd"/><rect x="247" y="564" width="317" height="98" fill="#E6007E"/><text fill="#FFFFFF" font-family="Arial,Arial_MSFontService,sans-serif" font-weight="400" font-size="24" transform="translate(256.485 593)">HSLV must be enabled in</text><text fill="#FFFFFF" font-family="Arial,Arial_MSFontService,sans-serif" font-weight="400" font-size="24" transform="translate(256.485 622)">•</text><text fill="#FFFFFF" font-family="Arial,Arial_MSFontService,sans-serif" font-weight="400" font-size="24" transform="translate(286.485 622)">Option</text><text fill="#FFFFFF" font-family="Arial,Arial_MSFontService,sans-serif" font-weight="400" font-size="24" transform="translate(363.819 622)">bytes</text><text fill="#FFFFFF" font-family="Arial,Arial_MSFontService,sans-serif" font-weight="400" font-size="24" transform="translate(256.485 651)">•</text><text fill="#FFFFFF" font-family="Arial,Arial_MSFontService,sans-serif" font-weight="400" font-size="24" transform="translate(286.485 651)">In SBS</text><path d="M0 0 0.000104987 173.878" stroke="#E6007E" stroke-width="4" stroke-miterlimit="8" stroke-dasharray="4 4" fill="none" fill-rule="evenodd" transform="matrix(1 0 0 -1 474 563.878)"/><rect x="413" y="337" width="83" height="53" fill="#49B170"/><text fill="#FFFFFF" font-family="Arial,Arial_MSFontService,sans-serif" font-weight="400" font-size="24" transform="translate(430.783 372)">BSB</text><rect x="270" y="337" width="121" height="53" fill="#49B170"/><text fill="#FFFFFF" font-family="Arial,Arial_MSFontService,sans-serif" font-weight="400" font-size="24" transform="translate(294.711 358)">Option</text><text fill="#FFFFFF" font-family="Arial,Arial_MSFontService,sans-serif" font-weight="400" font-size="24" transform="translate(311.378 387)">bits</text><path d="M0 0 0.000104987 173.878" stroke="#E6007E" stroke-width="4" stroke-miterlimit="8" stroke-dasharray="4 4" fill="none" fill-rule="evenodd" transform="matrix(1 0 0 -1 292 563.878)"/></g></svg>