<svg width="1280" height="720" xmlns="http://www.w3.org/2000/svg" xmlns:xlink="http://www.w3.org/1999/xlink" overflow="hidden"><g><rect x="0" y="0" width="1280" height="720" fill="#FFFFFF"/><rect x="329" y="95" width="462" height="454" fill="#03234B"/><text fill="#FFFFFF" font-family="Arial,Arial_MSFontService,sans-serif" font-weight="400" font-size="24" transform="translate(498.277 123)">STM32H7S</text><rect x="685" y="103" width="38" height="136" fill="#49B170"/><text fill="#FFFFFF" font-family="Arial,Arial_MSFontService,sans-serif" font-weight="400" font-size="21" transform="translate(698.922 128)">x</text><text fill="#FFFFFF" font-family="Arial,Arial_MSFontService,sans-serif" font-weight="400" font-size="21" transform="translate(697.176 153)">S</text><text fill="#FFFFFF" font-family="Arial,Arial_MSFontService,sans-serif" font-weight="400" font-size="21" transform="translate(697.176 179)">P</text><text fill="#FFFFFF" font-family="Arial,Arial_MSFontService,sans-serif" font-weight="400" font-size="21" transform="translate(701.256 205)">I</text><text fill="#FFFFFF" font-family="Arial,Arial_MSFontService,sans-serif" font-weight="400" font-size="21" transform="translate(698.342 230)">1</text><rect x="375" y="57.9999" width="16" height="37" fill="#03234B"/><rect x="406" y="58" width="15" height="37" fill="#03234B"/><rect x="436" y="58" width="15" height="37" fill="#03234B"/><rect x="466" y="58" width="15" height="37" fill="#03234B"/><rect x="496" y="58" width="15" height="37" fill="#03234B"/><rect x="527" y="58" width="15" height="37" fill="#03234B"/><rect x="557" y="58" width="15" height="37" fill="#03234B"/><rect x="587" y="58" width="15" height="37" fill="#03234B"/><rect x="617" y="58" width="15" height="37" fill="#03234B"/><rect x="292" y="489" width="38" height="15" fill="#03234B"/><rect x="292" y="458" width="38" height="15" fill="#03234B"/><rect x="292" y="428" width="38" height="15" fill="#03234B"/><rect x="292" y="398" width="38" height="15" fill="#03234B"/><rect x="292" y="368" width="38" height="15" fill="#03234B"/><rect x="292" y="337" width="38" height="15" fill="#03234B"/><rect x="292" y="307" width="38" height="15" fill="#03234B"/><rect x="292" y="277" width="38" height="15" fill="#03234B"/><rect x="292" y="247" width="38" height="15" fill="#03234B"/><rect x="292" y="103" width="38" height="15" fill="#03234B"/><rect x="527" y="549" width="15" height="38" fill="#03234B"/><rect x="557" y="549" width="15" height="38" fill="#03234B"/><rect x="587" y="549" width="15" height="38" fill="#03234B"/><rect x="617" y="549" width="15" height="38" fill="#03234B"/><rect x="648" y="549" width="15" height="38" fill="#03234B"/><rect x="678" y="549" width="15" height="38" fill="#03234B"/><rect x="708" y="549" width="15" height="38" fill="#03234B"/><rect x="738" y="549" width="15" height="38" fill="#03234B"/><rect x="769" y="549" width="15" height="38" fill="#03234B"/><rect x="791" y="224" width="38" height="15" fill="#3CB4E6"/><rect x="791" y="194" width="38" height="15" fill="#3CB4E6"/><rect x="791" y="163" width="38" height="16" fill="#3CB4E6"/><rect x="791" y="133" width="38" height="15" fill="#3CB4E6"/><rect x="791" y="103" width="38" height="15" fill="#3CB4E6"/><rect x="791" y="345" width="38" height="15" fill="#8C0078"/><rect x="791" y="315" width="38" height="15" fill="#8C0078"/><rect x="791" y="284" width="38" height="16" fill="#8C0078"/><rect x="791" y="254" width="38" height="15" fill="#8C0078"/><rect x="648" y="58" width="15" height="37" fill="#03234B"/><rect x="791" y="405" width="38" height="15" fill="#49B170"/><rect x="632" y="103" width="38" height="136" fill="#FFC000"/><text fill="#FFFFFF" font-family="Arial,Arial_MSFontService,sans-serif" font-weight="400" font-size="24" transform="translate(641.34 136)">M</text><text fill="#FFFFFF" font-family="Arial,Arial_MSFontService,sans-serif" font-weight="400" font-size="24" transform="translate(641.92 165)">C</text><text fill="#FFFFFF" font-family="Arial,Arial_MSFontService,sans-serif" font-weight="400" font-size="24" transform="translate(642.586 194)">E</text><text fill="#FFFFFF" font-family="Arial,Arial_MSFontService,sans-serif" font-weight="400" font-size="24" transform="translate(643.92 223)">1</text><rect x="632" y="254" width="38" height="136" fill="#FFC000"/><text fill="#FFFFFF" font-family="Arial,Arial_MSFontService,sans-serif" font-weight="400" font-size="24" transform="translate(641.34 288)">M</text><text fill="#FFFFFF" font-family="Arial,Arial_MSFontService,sans-serif" font-weight="400" font-size="24" transform="translate(641.92 317)">C</text><text fill="#FFFFFF" font-family="Arial,Arial_MSFontService,sans-serif" font-weight="400" font-size="24" transform="translate(642.586 346)">E</text><text fill="#FFFFFF" font-family="Arial,Arial_MSFontService,sans-serif" font-weight="400" font-size="24" transform="translate(643.92 375)">2</text><rect x="700" y="405" width="38" height="136" fill="#FFC000"/><text fill="#FFFFFF" font-family="Arial,Arial_MSFontService,sans-serif" font-weight="400" font-size="24" transform="translate(709.379 439)">M</text><text fill="#FFFFFF" font-family="Arial,Arial_MSFontService,sans-serif" font-weight="400" font-size="24" transform="translate(709.959 468)">C</text><text fill="#FFFFFF" font-family="Arial,Arial_MSFontService,sans-serif" font-weight="400" font-size="24" transform="translate(710.626 497)">E</text><text fill="#FFFFFF" font-family="Arial,Arial_MSFontService,sans-serif" font-weight="400" font-size="24" transform="translate(711.959 526)">3</text><rect x="685" y="254" width="38" height="136" fill="#49B170"/><text fill="#FFFFFF" font-family="Arial,Arial_MSFontService,sans-serif" font-weight="400" font-size="21" transform="translate(698.922 279)">x</text><text fill="#FFFFFF" font-family="Arial,Arial_MSFontService,sans-serif" font-weight="400" font-size="21" transform="translate(697.176 304)">S</text><text fill="#FFFFFF" font-family="Arial,Arial_MSFontService,sans-serif" font-weight="400" font-size="21" transform="translate(697.176 330)">P</text><text fill="#FFFFFF" font-family="Arial,Arial_MSFontService,sans-serif" font-weight="400" font-size="21" transform="translate(701.256 356)">I</text><text fill="#FFFFFF" font-family="Arial,Arial_MSFontService,sans-serif" font-weight="400" font-size="21" transform="translate(698.342 381)">2</text><rect x="753" y="405" width="38" height="136" fill="#49B170"/><text fill="#FFFFFF" font-family="Arial,Arial_MSFontService,sans-serif" font-weight="400" font-size="21" transform="translate(765.795 456)">F</text><text fill="#FFFFFF" font-family="Arial,Arial_MSFontService,sans-serif" font-weight="400" font-size="21" transform="translate(763.381 481)">M</text><text fill="#FFFFFF" font-family="Arial,Arial_MSFontService,sans-serif" font-weight="400" font-size="21" transform="translate(764.628 507)">C</text><rect x="791" y="375" width="38" height="15" fill="#8C0078"/><rect x="791" y="526" width="38" height="15" fill="#49B170"/><rect x="791" y="496" width="38" height="15" fill="#49B170"/><rect x="791" y="466" width="38" height="15" fill="#49B170"/><rect x="791" y="436" width="38" height="15" fill="#49B170"/><rect x="345" y="549" width="15" height="38" fill="#03234B"/><rect x="375" y="549" width="16" height="38" fill="#03234B"/><rect x="406" y="549" width="15" height="38" fill="#03234B"/><rect x="436" y="549" width="15" height="38" fill="#03234B"/><rect x="466" y="549" width="15" height="38" fill="#03234B"/><rect x="496" y="549" width="15" height="38" fill="#03234B"/><rect x="678" y="58" width="15" height="37" fill="#03234B"/><rect x="708" y="58" width="15" height="37" fill="#03234B"/><rect x="738" y="58" width="15" height="37" fill="#03234B"/><rect x="769" y="58" width="15" height="37" fill="#03234B"/><rect x="292" y="224" width="38" height="15" fill="#03234B"/><rect x="292" y="194" width="38" height="15" fill="#03234B"/><rect x="292" y="163" width="38" height="16" fill="#03234B"/><rect x="292" y="133" width="38" height="15" fill="#03234B"/><rect x="292" y="519" width="38" height="15" fill="#03234B"/><rect x="769" y="103" width="22" height="136" fill="#3CB4E6"/><text fill="#FFFFFF" font-family="Arial,Arial_MSFontService,sans-serif" font-weight="400" font-size="21" transform="translate(772.775 128)">P</text><text fill="#FFFFFF" font-family="Arial,Arial_MSFontService,sans-serif" font-weight="400" font-size="21" transform="translate(772.775 153)">o</text><text fill="#FFFFFF" font-family="Arial,Arial_MSFontService,sans-serif" font-weight="400" font-size="21" transform="translate(772.775 179)">r</text><text fill="#FFFFFF" font-family="Arial,Arial_MSFontService,sans-serif" font-weight="400" font-size="21" transform="translate(772.775 205)">t</text><text fill="#FFFFFF" font-family="Arial,Arial_MSFontService,sans-serif" font-weight="400" font-size="21" transform="translate(772.775 230)">1</text><rect x="769" y="254" width="22" height="136" fill="#8C0078"/><text fill="#FFFFFF" font-family="Arial,Arial_MSFontService,sans-serif" font-weight="400" font-size="21" transform="translate(772.775 279)">P</text><text fill="#FFFFFF" font-family="Arial,Arial_MSFontService,sans-serif" font-weight="400" font-size="21" transform="translate(772.775 304)">o</text><text fill="#FFFFFF" font-family="Arial,Arial_MSFontService,sans-serif" font-weight="400" font-size="21" transform="translate(772.775 330)">r</text><text fill="#FFFFFF" font-family="Arial,Arial_MSFontService,sans-serif" font-weight="400" font-size="21" transform="translate(772.775 356)">t</text><text fill="#FFFFFF" font-family="Arial,Arial_MSFontService,sans-serif" font-weight="400" font-size="21" transform="translate(772.775 381)">2</text><path d="M670 154 675.12 154 675.12 158 670 158ZM673.12 150 685.12 156 673.12 162Z" fill="#E6007E"/><path d="M670 305 675.12 305 675.12 309 670 309ZM673.12 301 685.12 307 673.12 313Z" fill="#E6007E"/><path d="M738 456 743.12 456 743.12 460 738 460ZM741.12 452 753.12 458 741.12 464Z" fill="#E6007E"/><path d="M680 184 685.12 184 685.12 188 680 188ZM682 192 670 186 682 180Z" fill="#E6007E"/><path d="M680 335 685.12 335 685.12 339 680 339ZM682 343 670 337 682 331Z" fill="#E6007E"/><path d="M748 487 753.12 487 753.12 491 748 491ZM750 495 738 489 750 483Z" fill="#E6007E"/><path d="M723 133 768.359 133" stroke="#E6007E" stroke-width="4" stroke-miterlimit="8" fill="none" fill-rule="evenodd"/><path d="M731 133 761.24 284.198" stroke="#E6007E" stroke-width="4" stroke-miterlimit="8" fill="none" fill-rule="evenodd"/><path d="M753 284 768.12 284" stroke="#03234B" stroke-width="2.33333" stroke-miterlimit="8" fill="none" fill-rule="evenodd"/><path d="M761 284 768.56 284" stroke="#E6007E" stroke-width="4" stroke-miterlimit="8" fill="none" fill-rule="evenodd"/><path d="M761 209 768.56 209" stroke="#E6007E" stroke-width="4" stroke-miterlimit="8" fill="none" fill-rule="evenodd"/><path d="M0 0 30.2396 151.198" stroke="#E6007E" stroke-width="4" stroke-miterlimit="8" fill="none" fill-rule="evenodd" transform="matrix(-1 0 0 1 761.24 209)"/><path d="M723 360 768.359 360" stroke="#E6007E" stroke-width="4" stroke-miterlimit="8" fill="none" fill-rule="evenodd"/></g></svg>